import { Component, OnInit } from '@angular/core';

@Component({
  selector: 'app-notes',
  templateUrl: './notes.component.html',
  styleUrls: ['./notes.component.css']
})
export class NotesComponent implements OnInit {

  constructor() { }

  ngOnInit() {
  }

  notes = ['A', 'Bb', 'B', 'C', 'C#', 'D', 'D#', 'E', 'F', 'F#', 'G', 'G#']

  nextChar(c) {
    return String.fromCharCode(c.charCodeAt(0) + 1)
  }

  data = {
    "header": {
      "PPQ": 480,
      "timeSignature": [
        2,
        4
      ],
      "bpm": 26.66999745301524,
      "name": "2. Movement"
    },
    "startTime": 0,
    "duration": 329.0214037500014,
    "tracks": [
      {
        "startTime": 0,
        "duration": 0,
        "length": 0,
        "notes": [],
        "controlChanges": {},
        "id": 0,
        "name": "2. Movement"
      },
      {
        "startTime": 0,
        "duration": 329.0214037500014,
        "length": 329,
        "notes": [
          {
            "name": "C4",
            "midi": 60,
            "time": 0,
            "velocity": 0.3937007874015748,
            "duration": 2.2497190000000002
          },
          {
            "name": "A#3",
            "midi": 58,
            "time": 2.2497190000000002,
            "velocity": 0.36220472440944884,
            "duration": 2.2497190000000002
          },
          {
            "name": "D#4",
            "midi": 63,
            "time": 4.4994380000000005,
            "velocity": 0.3937007874015748,
            "duration": 3.3745785
          },
          {
            "name": "C#4",
            "midi": 61,
            "time": 7.874016500000001,
            "velocity": 0.3779527559055118,
            "duration": 1.1248595000000003
          },
          {
            "name": "C4",
            "midi": 60,
            "time": 8.998876000000001,
            "velocity": 0.3700787401574803,
            "duration": 1.1248594999999995
          },
          {
            "name": "D#4",
            "midi": 63,
            "time": 10.1237355,
            "velocity": 0.3858267716535433,
            "duration": 1.1248594999999995
          },
          {
            "name": "G#4",
            "midi": 68,
            "time": 11.248595,
            "velocity": 0.4015748031496063,
            "duration": 1.1248594999999995
          },
          {
            "name": "A#4",
            "midi": 70,
            "time": 12.3734545,
            "velocity": 0.4409448818897638,
            "duration": 1.1248594999999995
          },
          {
            "name": "D#4",
            "midi": 63,
            "time": 13.498313999999999,
            "velocity": 0.3937007874015748,
            "duration": 3.3745785
          },
          {
            "name": "E4",
            "midi": 64,
            "time": 16.8728925,
            "velocity": 0.36220472440944884,
            "duration": 1.1248594999999995
          },
          {
            "name": "F4",
            "midi": 65,
            "time": 17.997752,
            "velocity": 0.3937007874015748,
            "duration": 2.249718999999999
          },
          {
            "name": "A#3",
            "midi": 58,
            "time": 20.247470999999997,
            "velocity": 0.3937007874015748,
            "duration": 1.6872892499999992
          },
          {
            "name": "C4",
            "midi": 60,
            "time": 21.934760249999997,
            "velocity": 0.36220472440944884,
            "duration": 0.28121487499999986
          },
          {
            "name": "C#4",
            "midi": 61,
            "time": 22.215975124999996,
            "velocity": 0.36220472440944884,
            "duration": 0.28121487499999986
          },
          {
            "name": "D#4",
            "midi": 63,
            "time": 22.497189999999996,
            "velocity": 0.3937007874015748,
            "duration": 2.249718999999999
          },
          {
            "name": "A3",
            "midi": 57,
            "time": 24.746908999999995,
            "velocity": 0.3779527559055118,
            "duration": 2.249718999999999
          },
          {
            "name": "C#4",
            "midi": 61,
            "time": 26.996627999999994,
            "velocity": 0.3937007874015748,
            "duration": 2.249718999999999
          },
          {
            "name": "C4",
            "midi": 60,
            "time": 29.246346999999993,
            "velocity": 0.3779527559055118,
            "duration": 0.5624297499999997
          },
          {
            "name": "A#3",
            "midi": 58,
            "time": 29.808776749999993,
            "velocity": 0.3779527559055118,
            "duration": 0.5624297499999997
          },
          {
            "name": "G#3",
            "midi": 56,
            "time": 30.371206499999992,
            "velocity": 0.3779527559055118,
            "duration": 0.5624297499999997
          },
          {
            "name": "G3",
            "midi": 55,
            "time": 30.933636249999992,
            "velocity": 0.3779527559055118,
            "duration": 0.5624297499999997
          },
          {
            "name": "G3",
            "midi": 55,
            "time": 31.496065999999992,
            "velocity": 0.31496062992125984,
            "duration": 2.249718999999999
          },
          {
            "name": "A#3",
            "midi": 58,
            "time": 31.496065999999992,
            "velocity": 0.3937007874015748,
            "duration": 2.249718999999999
          },
          {
            "name": "G#3",
            "midi": 56,
            "time": 33.74578499999999,
            "velocity": 0.3937007874015748,
            "duration": 1.1248594999999995
          },
          {
            "name": "C4",
            "midi": 60,
            "time": 34.87064449999999,
            "velocity": 0.28346456692913385,
            "duration": 0.2812148750000034
          },
          {
            "name": "D#4",
            "midi": 63,
            "time": 35.24559766666666,
            "velocity": 0.2755905511811024,
            "duration": 0.2812148750000034
          },
          {
            "name": "G#4",
            "midi": 68,
            "time": 35.62055083333333,
            "velocity": 0.2755905511811024,
            "duration": 0.2812148750000034
          },
          {
            "name": "C5",
            "midi": 72,
            "time": 35.995504000000004,
            "velocity": 0.3937007874015748,
            "duration": 2.249718999999999
          },
          {
            "name": "A#4",
            "midi": 70,
            "time": 38.245223,
            "velocity": 0.36220472440944884,
            "duration": 2.249718999999999
          },
          {
            "name": "D#5",
            "midi": 75,
            "time": 40.494942,
            "velocity": 0.3937007874015748,
            "duration": 3.3745784999999984
          },
          {
            "name": "C#5",
            "midi": 73,
            "time": 43.8695205,
            "velocity": 0.3779527559055118,
            "duration": 1.1248594999999995
          },
          {
            "name": "C5",
            "midi": 72,
            "time": 44.99438,
            "velocity": 0.3700787401574803,
            "duration": 1.1248594999999995
          },
          {
            "name": "D#5",
            "midi": 75,
            "time": 46.1192395,
            "velocity": 0.3858267716535433,
            "duration": 1.1248594999999995
          },
          {
            "name": "G#5",
            "midi": 80,
            "time": 47.244099,
            "velocity": 0.4015748031496063,
            "duration": 1.1248594999999995
          },
          {
            "name": "A#5",
            "midi": 82,
            "time": 48.3689585,
            "velocity": 0.4409448818897638,
            "duration": 1.1248594999999995
          },
          {
            "name": "D#5",
            "midi": 75,
            "time": 49.493818,
            "velocity": 0.3937007874015748,
            "duration": 3.3745784999999984
          },
          {
            "name": "E5",
            "midi": 76,
            "time": 52.868396499999996,
            "velocity": 0.36220472440944884,
            "duration": 1.1248594999999995
          },
          {
            "name": "F5",
            "midi": 77,
            "time": 53.993255999999995,
            "velocity": 0.3937007874015748,
            "duration": 2.249718999999999
          },
          {
            "name": "A#4",
            "midi": 70,
            "time": 56.242974999999994,
            "velocity": 0.3937007874015748,
            "duration": 1.6872892499999992
          },
          {
            "name": "C5",
            "midi": 72,
            "time": 57.93026424999999,
            "velocity": 0.36220472440944884,
            "duration": 0.2812148750000034
          },
          {
            "name": "C#5",
            "midi": 73,
            "time": 58.211479125,
            "velocity": 0.36220472440944884,
            "duration": 0.2812148750000034
          },
          {
            "name": "D#5",
            "midi": 75,
            "time": 58.492694,
            "velocity": 0.3937007874015748,
            "duration": 2.249718999999999
          },
          {
            "name": "A4",
            "midi": 69,
            "time": 60.742413,
            "velocity": 0.3779527559055118,
            "duration": 2.249718999999999
          },
          {
            "name": "C#5",
            "midi": 73,
            "time": 62.992132,
            "velocity": 0.3937007874015748,
            "duration": 2.249718999999999
          },
          {
            "name": "C5",
            "midi": 72,
            "time": 65.241851,
            "velocity": 0.3779527559055118,
            "duration": 0.5624297500000068
          },
          {
            "name": "A#4",
            "midi": 70,
            "time": 65.80428075,
            "velocity": 0.3779527559055118,
            "duration": 0.5624297500000068
          },
          {
            "name": "G#4",
            "midi": 68,
            "time": 66.36671050000001,
            "velocity": 0.3779527559055118,
            "duration": 0.5624297500000068
          },
          {
            "name": "G4",
            "midi": 67,
            "time": 66.92914025000002,
            "velocity": 0.3779527559055118,
            "duration": 0.5624297500000068
          },
          {
            "name": "A#4",
            "midi": 70,
            "time": 67.49157000000002,
            "velocity": 0.3937007874015748,
            "duration": 2.249718999999999
          },
          {
            "name": "G#4",
            "midi": 68,
            "time": 69.74128900000002,
            "velocity": 0.3937007874015748,
            "duration": 1.1248594999999995
          },
          {
            "name": "C4",
            "midi": 60,
            "time": 71.70979312500002,
            "velocity": 0.3543307086614173,
            "duration": 0.2812148750000034
          },
          {
            "name": "C5",
            "midi": 72,
            "time": 71.99100800000002,
            "velocity": 0.3937007874015748,
            "duration": 2.8121487500000057
          },
          {
            "name": "G#5",
            "midi": 80,
            "time": 74.80315675000003,
            "velocity": 0.3937007874015748,
            "duration": 0.5624297500000068
          },
          {
            "name": "G5",
            "midi": 79,
            "time": 75.36558650000003,
            "velocity": 0.4015748031496063,
            "duration": 0.5624297500000068
          },
          {
            "name": "F5",
            "midi": 77,
            "time": 75.92801625000004,
            "velocity": 0.3779527559055118,
            "duration": 0.5624297500000068
          },
          {
            "name": "C6",
            "midi": 84,
            "time": 76.49044600000005,
            "velocity": 0.4251968503937008,
            "duration": 2.8121487500000057
          },
          {
            "name": "G#5",
            "midi": 80,
            "time": 79.30259475000005,
            "velocity": 0.3937007874015748,
            "duration": 0.5624297500000068
          },
          {
            "name": "G5",
            "midi": 79,
            "time": 79.86502450000006,
            "velocity": 0.3937007874015748,
            "duration": 0.5624297500000068
          },
          {
            "name": "F5",
            "midi": 77,
            "time": 80.42745425000007,
            "velocity": 0.3779527559055118,
            "duration": 0.5624297500000068
          },
          {
            "name": "C5",
            "midi": 72,
            "time": 80.98988400000007,
            "velocity": 0.4094488188976378,
            "duration": 2.8121487500000057
          },
          {
            "name": "G#5",
            "midi": 80,
            "time": 83.80203275000008,
            "velocity": 0.36220472440944884,
            "duration": 0.5624297500000068
          },
          {
            "name": "G5",
            "midi": 79,
            "time": 84.36446250000009,
            "velocity": 0.3858267716535433,
            "duration": 0.5624297500000068
          },
          {
            "name": "F5",
            "midi": 77,
            "time": 84.9268922500001,
            "velocity": 0.4015748031496063,
            "duration": 0.5624297500000068
          },
          {
            "name": "D#5",
            "midi": 75,
            "time": 85.4893220000001,
            "velocity": 0.44881889763779526,
            "duration": 1.1248594999999995
          },
          {
            "name": "D5",
            "midi": 74,
            "time": 86.6141815000001,
            "velocity": 0.41732283464566927,
            "duration": 1.6872892500000063
          },
          {
            "name": "D#5",
            "midi": 75,
            "time": 88.3014707500001,
            "velocity": 0.4330708661417323,
            "duration": 0.1406074374999946
          },
          {
            "name": "D5",
            "midi": 74,
            "time": 88.4420781875001,
            "velocity": 0.4330708661417323,
            "duration": 0.1406074374999946
          },
          {
            "name": "C5",
            "midi": 72,
            "time": 88.5826856250001,
            "velocity": 0.4251968503937008,
            "duration": 0.1406074374999946
          },
          {
            "name": "D5",
            "midi": 74,
            "time": 88.72329306250009,
            "velocity": 0.4251968503937008,
            "duration": 0.1406074374999946
          },
          {
            "name": "F5",
            "midi": 77,
            "time": 88.86390050000009,
            "velocity": 0.49606299212598426,
            "duration": 0.843644624999996
          },
          {
            "name": "D#5",
            "midi": 75,
            "time": 89.70754512500008,
            "velocity": 0.4330708661417323,
            "duration": 0.2812148750000034
          },
          {
            "name": "D#5",
            "midi": 75,
            "time": 89.98876000000008,
            "velocity": 0.4881889763779528,
            "duration": 2.249718999999999
          },
          {
            "name": "F4",
            "midi": 65,
            "time": 92.23847900000008,
            "velocity": 0.4330708661417323,
            "duration": 1.4060743749999887
          },
          {
            "name": "G4",
            "midi": 67,
            "time": 93.36333850000008,
            "velocity": 0.4251968503937008,
            "duration": 0.1406074374999946
          },
          {
            "name": "F4",
            "midi": 65,
            "time": 93.50394593750008,
            "velocity": 0.4251968503937008,
            "duration": 0.4218223124999838
          },
          {
            "name": "E4",
            "midi": 64,
            "time": 93.64455337500007,
            "velocity": 0.41732283464566927,
            "duration": 0.1406074374999946
          },
          {
            "name": "F4",
            "midi": 65,
            "time": 93.78516081250007,
            "velocity": 0.41732283464566927,
            "duration": 0.1406074374999946
          },
          {
            "name": "G#4",
            "midi": 68,
            "time": 93.92576825000006,
            "velocity": 0.4566929133858268,
            "duration": 0.2812148750000034
          },
          {
            "name": "C5",
            "midi": 72,
            "time": 94.20698312500006,
            "velocity": 0.4015748031496063,
            "duration": 0.2812148750000034
          },
          {
            "name": "B4",
            "midi": 71,
            "time": 94.48819800000007,
            "velocity": 0.3543307086614173,
            "duration": 0.1874765833333356
          },
          {
            "name": "C5",
            "midi": 72,
            "time": 94.6756745833334,
            "velocity": 0.3543307086614173,
            "duration": 0.1874765833333356
          },
          {
            "name": "D5",
            "midi": 74,
            "time": 94.86315116666674,
            "velocity": 0.3543307086614173,
            "duration": 0.1874765833333356
          },
          {
            "name": "C5",
            "midi": 72,
            "time": 95.05062775000007,
            "velocity": 0.3858267716535433,
            "duration": 0.2812148750000034
          },
          {
            "name": "A#4",
            "midi": 70,
            "time": 95.33184262500008,
            "velocity": 0.3543307086614173,
            "duration": 0.2812148750000034
          },
          {
            "name": "G5",
            "midi": 79,
            "time": 95.61305750000008,
            "velocity": 0.4094488188976378,
            "duration": 1.1248594999999995
          },
          {
            "name": "F5",
            "midi": 77,
            "time": 96.73791700000008,
            "velocity": 0.3937007874015748,
            "duration": 0.2812148750000034
          },
          {
            "name": "D#5",
            "midi": 75,
            "time": 97.01913187500008,
            "velocity": 0.3858267716535433,
            "duration": 0.2812148750000034
          },
          {
            "name": "D5",
            "midi": 74,
            "time": 97.30034675000009,
            "velocity": 0.3700787401574803,
            "duration": 0.2812148750000034
          },
          {
            "name": "C5",
            "midi": 72,
            "time": 97.58156162500009,
            "velocity": 0.36220472440944884,
            "duration": 0.2812148750000034
          },
          {
            "name": "A#4",
            "midi": 70,
            "time": 97.8627765000001,
            "velocity": 0.3464566929133858,
            "duration": 0.2812148750000034
          },
          {
            "name": "A4",
            "midi": 69,
            "time": 98.1439913750001,
            "velocity": 0.33858267716535434,
            "duration": 0.2812148750000034
          },
          {
            "name": "C5",
            "midi": 72,
            "time": 98.4252062500001,
            "velocity": 0.3700787401574803,
            "duration": 0.2812148750000034
          },
          {
            "name": "A#4",
            "midi": 70,
            "time": 98.7064211250001,
            "velocity": 0.36220472440944884,
            "duration": 0.2812148750000034
          },
          {
            "name": "G#4",
            "midi": 68,
            "time": 98.98763600000011,
            "velocity": 0.3543307086614173,
            "duration": 0.2812148750000034
          },
          {
            "name": "F4",
            "midi": 65,
            "time": 99.26885087500011,
            "velocity": 0.33858267716535434,
            "duration": 0.2812148750000034
          },
          {
            "name": "D#4",
            "midi": 63,
            "time": 99.55006575000012,
            "velocity": 0.3858267716535433,
            "duration": 1.1248594999999995
          },
          {
            "name": "A#3",
            "midi": 58,
            "time": 101.23735500000012,
            "velocity": 0.3464566929133858,
            "duration": 0.5624297500000068
          },
          {
            "name": "G3",
            "midi": 55,
            "time": 101.79978475000013,
            "velocity": 0.3858267716535433,
            "duration": 0.5624297500000068
          },
          {
            "name": "A#3",
            "midi": 58,
            "time": 102.36221450000014,
            "velocity": 0.3543307086614173,
            "duration": 0.5624297500000068
          },
          {
            "name": "G3",
            "midi": 55,
            "time": 102.92464425000014,
            "velocity": 0.3858267716535433,
            "duration": 0.5624297500000068
          },
          {
            "name": "D#3",
            "midi": 51,
            "time": 103.48707400000015,
            "velocity": 0.3543307086614173,
            "duration": 0.5624297500000068
          },
          {
            "name": "F3",
            "midi": 53,
            "time": 104.04950375000016,
            "velocity": 0.2992125984251969,
            "duration": 1.101424927083329
          },
          {
            "name": "G#3",
            "midi": 56,
            "time": 104.04950375000016,
            "velocity": 0.3543307086614173,
            "duration": 1.101424927083329
          },
          {
            "name": "F3",
            "midi": 53,
            "time": 105.17436325000016,
            "velocity": 0.30708661417322836,
            "duration": 1.101424927083329
          },
          {
            "name": "G#3",
            "midi": 56,
            "time": 105.17436325000016,
            "velocity": 0.3700787401574803,
            "duration": 1.101424927083329
          },
          {
            "name": "F3",
            "midi": 53,
            "time": 106.29922275000015,
            "velocity": 0.33070866141732286,
            "duration": 1.101424927083329
          },
          {
            "name": "G#3",
            "midi": 56,
            "time": 106.29922275000015,
            "velocity": 0.3937007874015748,
            "duration": 1.101424927083329
          },
          {
            "name": "D3",
            "midi": 50,
            "time": 107.42408225000015,
            "velocity": 0.28346456692913385,
            "duration": 1.101424927083329
          },
          {
            "name": "F3",
            "midi": 53,
            "time": 107.42408225000015,
            "velocity": 0.3228346456692913,
            "duration": 1.101424927083329
          },
          {
            "name": "G#3",
            "midi": 56,
            "time": 107.42408225000015,
            "velocity": 0.3858267716535433,
            "duration": 1.101424927083329
          },
          {
            "name": "A#2",
            "midi": 46,
            "time": 108.54894175000015,
            "velocity": 0.28346456692913385,
            "duration": 1.1248594999999995
          },
          {
            "name": "D#3",
            "midi": 51,
            "time": 108.54894175000015,
            "velocity": 0.3228346456692913,
            "duration": 1.1248594999999995
          },
          {
            "name": "G3",
            "midi": 55,
            "time": 108.54894175000015,
            "velocity": 0.3858267716535433,
            "duration": 1.1248594999999995
          },
          {
            "name": "A#3",
            "midi": 58,
            "time": 111.92352025000015,
            "velocity": 0.3858267716535433,
            "duration": 0.843644624999996
          },
          {
            "name": "D#4",
            "midi": 63,
            "time": 112.76716487500015,
            "velocity": 0.3858267716535433,
            "duration": 0.2812148750000034
          },
          {
            "name": "D#4",
            "midi": 63,
            "time": 113.04837975000015,
            "velocity": 0.3858267716535433,
            "duration": 0.5624297500000068
          },
          {
            "name": "D4",
            "midi": 62,
            "time": 113.61080950000016,
            "velocity": 0.3464566929133858,
            "duration": 0.5389951770833363
          },
          {
            "name": "D4",
            "midi": 62,
            "time": 114.17323925000017,
            "velocity": 0.3858267716535433,
            "duration": 0.5624297500000068
          },
          {
            "name": "C4",
            "midi": 60,
            "time": 114.73566900000017,
            "velocity": 0.3543307086614173,
            "duration": 0.5389951770833363
          },
          {
            "name": "C4",
            "midi": 60,
            "time": 115.29809875000018,
            "velocity": 0.41732283464566927,
            "duration": 0.5624297500000068
          },
          {
            "name": "B3",
            "midi": 59,
            "time": 115.86052850000019,
            "velocity": 0.3700787401574803,
            "duration": 0.5389951770833363
          },
          {
            "name": "B3",
            "midi": 59,
            "time": 116.42295825000019,
            "velocity": 0.41732283464566927,
            "duration": 0.5624297500000068
          },
          {
            "name": "A#3",
            "midi": 58,
            "time": 116.9853880000002,
            "velocity": 0.3858267716535433,
            "duration": 0.5389951770833363
          },
          {
            "name": "G3",
            "midi": 55,
            "time": 117.5478177500002,
            "velocity": 0.3937007874015748,
            "duration": 8.998875999999996
          },
          {
            "name": "A#3",
            "midi": 58,
            "time": 117.5478177500002,
            "velocity": 0.3937007874015748,
            "duration": 8.998875999999996
          },
          {
            "name": "C4",
            "midi": 60,
            "time": 126.5466937500002,
            "velocity": 0.3700787401574803,
            "duration": 2.249718999999999
          },
          {
            "name": "A#3",
            "midi": 58,
            "time": 128.7964127500002,
            "velocity": 0.36220472440944884,
            "duration": 2.249718999999999
          },
          {
            "name": "D#4",
            "midi": 63,
            "time": 131.0461317500002,
            "velocity": 0.3937007874015748,
            "duration": 3.3745785000000126
          },
          {
            "name": "C#4",
            "midi": 61,
            "time": 134.4207102500002,
            "velocity": 0.3779527559055118,
            "duration": 1.1248595000000137
          },
          {
            "name": "C4",
            "midi": 60,
            "time": 135.54556975000023,
            "velocity": 0.3700787401574803,
            "duration": 1.1248595000000137
          },
          {
            "name": "D#4",
            "midi": 63,
            "time": 136.67042925000024,
            "velocity": 0.3858267716535433,
            "duration": 1.1248595000000137
          },
          {
            "name": "G#4",
            "midi": 68,
            "time": 137.79528875000025,
            "velocity": 0.4015748031496063,
            "duration": 1.1248595000000137
          },
          {
            "name": "A#4",
            "midi": 70,
            "time": 138.92014825000027,
            "velocity": 0.4409448818897638,
            "duration": 1.1248595000000137
          },
          {
            "name": "D#4",
            "midi": 63,
            "time": 140.04500775000028,
            "velocity": 0.3937007874015748,
            "duration": 3.3745785000000126
          },
          {
            "name": "E4",
            "midi": 64,
            "time": 143.4195862500003,
            "velocity": 0.36220472440944884,
            "duration": 1.1248595000000137
          },
          {
            "name": "F4",
            "midi": 65,
            "time": 144.5444457500003,
            "velocity": 0.3937007874015748,
            "duration": 2.249718999999999
          },
          {
            "name": "A#3",
            "midi": 58,
            "time": 146.7941647500003,
            "velocity": 0.3937007874015748,
            "duration": 1.687289249999992
          },
          {
            "name": "C4",
            "midi": 60,
            "time": 148.4814540000003,
            "velocity": 0.36220472440944884,
            "duration": 0.2812148749999892
          },
          {
            "name": "C#4",
            "midi": 61,
            "time": 148.7626688750003,
            "velocity": 0.36220472440944884,
            "duration": 0.2812148749999892
          },
          {
            "name": "D#4",
            "midi": 63,
            "time": 149.04388375000028,
            "velocity": 0.3937007874015748,
            "duration": 2.249718999999999
          },
          {
            "name": "A3",
            "midi": 57,
            "time": 151.29360275000028,
            "velocity": 0.3779527559055118,
            "duration": 2.249718999999999
          },
          {
            "name": "C#4",
            "midi": 61,
            "time": 153.54332175000027,
            "velocity": 0.3937007874015748,
            "duration": 2.249718999999999
          },
          {
            "name": "C4",
            "midi": 60,
            "time": 155.79304075000027,
            "velocity": 0.3779527559055118,
            "duration": 0.5624297500000068
          },
          {
            "name": "A#3",
            "midi": 58,
            "time": 156.35547050000028,
            "velocity": 0.3779527559055118,
            "duration": 0.5624297500000068
          },
          {
            "name": "G#3",
            "midi": 56,
            "time": 156.9179002500003,
            "velocity": 0.3779527559055118,
            "duration": 0.5624297500000068
          },
          {
            "name": "G3",
            "midi": 55,
            "time": 157.4803300000003,
            "velocity": 0.3779527559055118,
            "duration": 0.5624297500000068
          },
          {
            "name": "G3",
            "midi": 55,
            "time": 158.0427597500003,
            "velocity": 0.31496062992125984,
            "duration": 2.249718999999999
          },
          {
            "name": "A#3",
            "midi": 58,
            "time": 158.0427597500003,
            "velocity": 0.3937007874015748,
            "duration": 2.249718999999999
          },
          {
            "name": "G#3",
            "midi": 56,
            "time": 160.2924787500003,
            "velocity": 0.3937007874015748,
            "duration": 1.1248595000000137
          },
          {
            "name": "D#4",
            "midi": 63,
            "time": 161.4173382500003,
            "velocity": 0.3700787401574803,
            "duration": 1.1248595000000137
          },
          {
            "name": "G#4",
            "midi": 68,
            "time": 162.54219775000033,
            "velocity": 0.3937007874015748,
            "duration": 1.1248595000000137
          },
          {
            "name": "B4",
            "midi": 71,
            "time": 163.66705725000034,
            "velocity": 0.3700787401574803,
            "duration": 1.1248595000000137
          },
          {
            "name": "A#4",
            "midi": 70,
            "time": 164.79191675000035,
            "velocity": 0.3700787401574803,
            "duration": 1.1248595000000137
          },
          {
            "name": "G#4",
            "midi": 68,
            "time": 165.91677625000037,
            "velocity": 0.36220472440944884,
            "duration": 1.1248595000000137
          },
          {
            "name": "G4",
            "midi": 67,
            "time": 167.04163575000038,
            "velocity": 0.4015748031496063,
            "duration": 1.1248595000000137
          },
          {
            "name": "C#5",
            "midi": 73,
            "time": 168.1664952500004,
            "velocity": 0.3700787401574803,
            "duration": 1.1248595000000137
          },
          {
            "name": "G#4",
            "midi": 68,
            "time": 171.5410737500004,
            "velocity": 0.3937007874015748,
            "duration": 1.1248595000000137
          },
          {
            "name": "B4",
            "midi": 71,
            "time": 172.66593325000042,
            "velocity": 0.3700787401574803,
            "duration": 1.1248595000000137
          },
          {
            "name": "A#4",
            "midi": 70,
            "time": 173.79079275000043,
            "velocity": 0.3700787401574803,
            "duration": 1.1248595000000137
          },
          {
            "name": "G#4",
            "midi": 68,
            "time": 174.91565225000045,
            "velocity": 0.36220472440944884,
            "duration": 1.1248595000000137
          },
          {
            "name": "G#4",
            "midi": 68,
            "time": 176.04051175000046,
            "velocity": 0.4015748031496063,
            "duration": 1.1248595000000137
          },
          {
            "name": "G4",
            "midi": 67,
            "time": 177.16537125000048,
            "velocity": 0.3700787401574803,
            "duration": 1.1248595000000137
          },
          {
            "name": "G#4",
            "midi": 68,
            "time": 180.5399497500005,
            "velocity": 0.4330708661417323,
            "duration": 1.1248595000000137
          },
          {
            "name": "B4",
            "midi": 71,
            "time": 181.6648092500005,
            "velocity": 0.4409448818897638,
            "duration": 1.1248595000000137
          },
          {
            "name": "A#4",
            "midi": 70,
            "time": 182.78966875000052,
            "velocity": 0.48031496062992124,
            "duration": 1.1248595000000137
          },
          {
            "name": "G#4",
            "midi": 68,
            "time": 183.91452825000053,
            "velocity": 0.5118110236220472,
            "duration": 1.1248595000000137
          },
          {
            "name": "F#4",
            "midi": 66,
            "time": 185.03938775000054,
            "velocity": 0.5748031496062992,
            "duration": 1.1248595000000137
          },
          {
            "name": "F#5",
            "midi": 78,
            "time": 185.03938775000054,
            "velocity": 0.6771653543307087,
            "duration": 1.499812666666685
          },
          {
            "name": "D#5",
            "midi": 75,
            "time": 186.53920041666723,
            "velocity": 0.6692913385826772,
            "duration": 0.3749531666666712
          },
          {
            "name": "B4",
            "midi": 71,
            "time": 186.9141535833339,
            "velocity": 0.6692913385826772,
            "duration": 0.3749531666666712
          },
          {
            "name": "B4",
            "midi": 71,
            "time": 187.28910675000057,
            "velocity": 0.6377952755905512,
            "duration": 1.1248595000000137
          },
          {
            "name": "B5",
            "midi": 83,
            "time": 187.28910675000057,
            "velocity": 0.7559055118110236,
            "duration": 1.499812666666685
          },
          {
            "name": "G#5",
            "midi": 80,
            "time": 188.78891941666726,
            "velocity": 0.7322834645669292,
            "duration": 0.3749531666666712
          },
          {
            "name": "E5",
            "midi": 76,
            "time": 189.16387258333393,
            "velocity": 0.7322834645669292,
            "duration": 0.3749531666666712
          },
          {
            "name": "E5",
            "midi": 76,
            "time": 189.5388257500006,
            "velocity": 0.6929133858267716,
            "duration": 1.1248595000000137
          },
          {
            "name": "E6",
            "midi": 88,
            "time": 189.5388257500006,
            "velocity": 0.8188976377952756,
            "duration": 1.499812666666685
          },
          {
            "name": "C#6",
            "midi": 85,
            "time": 191.03863841666728,
            "velocity": 0.7244094488188977,
            "duration": 0.3749531666666712
          },
          {
            "name": "A#5",
            "midi": 82,
            "time": 191.41359158333395,
            "velocity": 0.7244094488188977,
            "duration": 0.3749531666666712
          },
          {
            "name": "B4",
            "midi": 71,
            "time": 191.78854475000063,
            "velocity": 0.6377952755905512,
            "duration": 0.5624297500000068
          },
          {
            "name": "B5",
            "midi": 83,
            "time": 191.78854475000063,
            "velocity": 0.7559055118110236,
            "duration": 0.5624297500000068
          },
          {
            "name": "F#3",
            "midi": 54,
            "time": 192.91340425000064,
            "velocity": 0.5748031496062992,
            "duration": 0.5624297500000068
          },
          {
            "name": "A3",
            "midi": 57,
            "time": 192.91340425000064,
            "velocity": 0.5748031496062992,
            "duration": 0.5624297500000068
          },
          {
            "name": "B3",
            "midi": 59,
            "time": 192.91340425000064,
            "velocity": 0.6771653543307087,
            "duration": 0.5624297500000068
          },
          {
            "name": "D#4",
            "midi": 63,
            "time": 192.91340425000064,
            "velocity": 0.6771653543307087,
            "duration": 0.5624297500000068
          },
          {
            "name": "E4",
            "midi": 64,
            "time": 194.03826375000065,
            "velocity": 0.6771653543307087,
            "duration": 0.5624297500000068
          },
          {
            "name": "E4",
            "midi": 64,
            "time": 198.53770175000065,
            "velocity": 0.3937007874015748,
            "duration": 1.1248595000000137
          },
          {
            "name": "G#4",
            "midi": 68,
            "time": 199.66256125000066,
            "velocity": 0.3700787401574803,
            "duration": 1.1248595000000137
          },
          {
            "name": "F#4",
            "midi": 66,
            "time": 200.78742075000068,
            "velocity": 0.3700787401574803,
            "duration": 1.1248595000000137
          },
          {
            "name": "E4",
            "midi": 64,
            "time": 201.9122802500007,
            "velocity": 0.36220472440944884,
            "duration": 1.1248595000000137
          },
          {
            "name": "D#4",
            "midi": 63,
            "time": 203.0371397500007,
            "velocity": 0.4015748031496063,
            "duration": 1.1248595000000137
          },
          {
            "name": "A4",
            "midi": 69,
            "time": 204.16199925000072,
            "velocity": 0.3700787401574803,
            "duration": 1.1248595000000137
          },
          {
            "name": "E4",
            "midi": 64,
            "time": 207.53657775000073,
            "velocity": 0.3937007874015748,
            "duration": 1.1248595000000137
          },
          {
            "name": "G#4",
            "midi": 68,
            "time": 208.66143725000074,
            "velocity": 0.3700787401574803,
            "duration": 1.1248595000000137
          },
          {
            "name": "E4",
            "midi": 64,
            "time": 209.78629675000076,
            "velocity": 0.3700787401574803,
            "duration": 1.1248595000000137
          },
          {
            "name": "D#4",
            "midi": 63,
            "time": 210.91115625000077,
            "velocity": 0.36220472440944884,
            "duration": 1.1248595000000137
          },
          {
            "name": "D4",
            "midi": 62,
            "time": 212.0360157500008,
            "velocity": 0.4251968503937008,
            "duration": 3.3745785000000126
          },
          {
            "name": "D4",
            "midi": 62,
            "time": 215.4105942500008,
            "velocity": 0.4015748031496063,
            "duration": 1.1248595000000137
          },
          {
            "name": "D4",
            "midi": 62,
            "time": 216.5354537500008,
            "velocity": 0.4409448818897638,
            "duration": 3.3745785000000126
          },
          {
            "name": "D4",
            "midi": 62,
            "time": 219.91003225000082,
            "velocity": 0.41732283464566927,
            "duration": 1.1248595000000137
          },
          {
            "name": "C#4",
            "midi": 61,
            "time": 221.03489175000084,
            "velocity": 0.4645669291338583,
            "duration": 3.3745785000000126
          },
          {
            "name": "C#4",
            "midi": 61,
            "time": 224.40947025000085,
            "velocity": 0.5669291338582677,
            "duration": 1.1248595000000137
          },
          {
            "name": "C4",
            "midi": 60,
            "time": 225.53432975000086,
            "velocity": 0.3937007874015748,
            "duration": 2.249718999999999
          },
          {
            "name": "A#3",
            "midi": 58,
            "time": 227.78404875000086,
            "velocity": 0.36220472440944884,
            "duration": 2.249718999999999
          },
          {
            "name": "D#4",
            "midi": 63,
            "time": 230.03376775000086,
            "velocity": 0.3937007874015748,
            "duration": 3.3745785000000126
          },
          {
            "name": "C#4",
            "midi": 61,
            "time": 233.40834625000087,
            "velocity": 0.3779527559055118,
            "duration": 1.1248595000000137
          },
          {
            "name": "C4",
            "midi": 60,
            "time": 234.5332057500009,
            "velocity": 0.3700787401574803,
            "duration": 1.1248595000000137
          },
          {
            "name": "D#4",
            "midi": 63,
            "time": 235.6580652500009,
            "velocity": 0.3858267716535433,
            "duration": 1.1248595000000137
          },
          {
            "name": "G#4",
            "midi": 68,
            "time": 236.78292475000092,
            "velocity": 0.4015748031496063,
            "duration": 1.1248595000000137
          },
          {
            "name": "A#4",
            "midi": 70,
            "time": 237.90778425000093,
            "velocity": 0.4409448818897638,
            "duration": 1.1248595000000137
          },
          {
            "name": "D#4",
            "midi": 63,
            "time": 239.03264375000094,
            "velocity": 0.3937007874015748,
            "duration": 3.3745785000000126
          },
          {
            "name": "E4",
            "midi": 64,
            "time": 242.40722225000096,
            "velocity": 0.36220472440944884,
            "duration": 1.1248595000000137
          },
          {
            "name": "F4",
            "midi": 65,
            "time": 243.53208175000097,
            "velocity": 0.3937007874015748,
            "duration": 2.249718999999999
          },
          {
            "name": "A#3",
            "midi": 58,
            "time": 245.78180075000097,
            "velocity": 0.3937007874015748,
            "duration": 1.687289249999992
          },
          {
            "name": "C4",
            "midi": 60,
            "time": 247.46909000000096,
            "velocity": 0.36220472440944884,
            "duration": 0.2812148749999892
          },
          {
            "name": "C#4",
            "midi": 61,
            "time": 247.75030487500095,
            "velocity": 0.36220472440944884,
            "duration": 0.2812148749999892
          },
          {
            "name": "D#4",
            "midi": 63,
            "time": 248.03151975000094,
            "velocity": 0.3937007874015748,
            "duration": 2.249718999999999
          },
          {
            "name": "A3",
            "midi": 57,
            "time": 250.28123875000094,
            "velocity": 0.3779527559055118,
            "duration": 2.249718999999999
          },
          {
            "name": "C#4",
            "midi": 61,
            "time": 252.53095775000094,
            "velocity": 0.3937007874015748,
            "duration": 2.249718999999999
          },
          {
            "name": "C#4",
            "midi": 61,
            "time": 254.78067675000094,
            "velocity": 0.4094488188976378,
            "duration": 0.3749531666666712
          },
          {
            "name": "C4",
            "midi": 60,
            "time": 255.1556299166676,
            "velocity": 0.36220472440944884,
            "duration": 0.3749531666666712
          },
          {
            "name": "A#3",
            "midi": 58,
            "time": 255.53058308333428,
            "velocity": 0.36220472440944884,
            "duration": 0.3749531666666712
          },
          {
            "name": "A#3",
            "midi": 58,
            "time": 255.90553625000095,
            "velocity": 0.4015748031496063,
            "duration": 0.3749531666666428
          },
          {
            "name": "G#3",
            "midi": 56,
            "time": 256.2804894166676,
            "velocity": 0.3700787401574803,
            "duration": 0.3749531666666712
          },
          {
            "name": "G3",
            "midi": 55,
            "time": 256.65544258333426,
            "velocity": 0.3700787401574803,
            "duration": 0.3749531666666712
          },
          {
            "name": "G3",
            "midi": 55,
            "time": 257.03039575000093,
            "velocity": 0.31496062992125984,
            "duration": 2.2497190000000273
          },
          {
            "name": "A#3",
            "midi": 58,
            "time": 257.03039575000093,
            "velocity": 0.3937007874015748,
            "duration": 2.2497190000000273
          },
          {
            "name": "G#3",
            "midi": 56,
            "time": 259.28011475000096,
            "velocity": 0.3937007874015748,
            "duration": 1.1248595000000137
          },
          {
            "name": "C4",
            "midi": 60,
            "time": 260.404974250001,
            "velocity": 0.28346456692913385,
            "duration": 0.2812148749999892
          },
          {
            "name": "D#4",
            "midi": 63,
            "time": 260.77992741666765,
            "velocity": 0.2755905511811024,
            "duration": 0.2812148749999892
          },
          {
            "name": "G#4",
            "midi": 68,
            "time": 261.1548805833343,
            "velocity": 0.2755905511811024,
            "duration": 0.2812148749999892
          },
          {
            "name": "C5",
            "midi": 72,
            "time": 261.529833750001,
            "velocity": 0.3937007874015748,
            "duration": 2.2497190000000273
          },
          {
            "name": "A#4",
            "midi": 70,
            "time": 263.779552750001,
            "velocity": 0.36220472440944884,
            "duration": 2.2497190000000273
          },
          {
            "name": "D#5",
            "midi": 75,
            "time": 266.02927175000104,
            "velocity": 0.3937007874015748,
            "duration": 3.374578499999984
          },
          {
            "name": "C#5",
            "midi": 73,
            "time": 269.403850250001,
            "velocity": 0.3779527559055118,
            "duration": 1.1248595000000137
          },
          {
            "name": "C5",
            "midi": 72,
            "time": 270.52870975000104,
            "velocity": 0.3700787401574803,
            "duration": 1.1248595000000137
          },
          {
            "name": "D#5",
            "midi": 75,
            "time": 271.65356925000106,
            "velocity": 0.3858267716535433,
            "duration": 1.1248595000000137
          },
          {
            "name": "G#5",
            "midi": 80,
            "time": 272.77842875000107,
            "velocity": 0.4015748031496063,
            "duration": 1.1248595000000137
          },
          {
            "name": "A#5",
            "midi": 82,
            "time": 273.9032882500011,
            "velocity": 0.4409448818897638,
            "duration": 1.1248595000000137
          },
          {
            "name": "D#5",
            "midi": 75,
            "time": 275.0281477500011,
            "velocity": 0.3937007874015748,
            "duration": 3.374578499999984
          },
          {
            "name": "E5",
            "midi": 76,
            "time": 278.4027262500011,
            "velocity": 0.4330708661417323,
            "duration": 1.1248595000000137
          },
          {
            "name": "F5",
            "midi": 77,
            "time": 279.5275857500011,
            "velocity": 0.4645669291338583,
            "duration": 2.2497190000000273
          },
          {
            "name": "A#4",
            "midi": 70,
            "time": 281.7773047500011,
            "velocity": 0.44881889763779526,
            "duration": 1.687289249999992
          },
          {
            "name": "C5",
            "midi": 72,
            "time": 283.4645940000011,
            "velocity": 0.4409448818897638,
            "duration": 0.2812148749999892
          },
          {
            "name": "C#5",
            "midi": 73,
            "time": 283.7458088750011,
            "velocity": 0.4566929133858268,
            "duration": 0.2812148749999892
          },
          {
            "name": "D#5",
            "midi": 75,
            "time": 284.0270237500011,
            "velocity": 0.47244094488188976,
            "duration": 2.2497190000000273
          },
          {
            "name": "A4",
            "midi": 69,
            "time": 286.2767427500011,
            "velocity": 0.3779527559055118,
            "duration": 2.2497190000000273
          },
          {
            "name": "C#5",
            "midi": 73,
            "time": 288.52646175000115,
            "velocity": 0.3937007874015748,
            "duration": 2.2497190000000273
          },
          {
            "name": "C#5",
            "midi": 73,
            "time": 290.7761807500012,
            "velocity": 0.3779527559055118,
            "duration": 0.3749531666666712
          },
          {
            "name": "C5",
            "midi": 72,
            "time": 291.15113391666785,
            "velocity": 0.3700787401574803,
            "duration": 0.3749531666666712
          },
          {
            "name": "A#4",
            "midi": 70,
            "time": 291.5260870833345,
            "velocity": 0.3700787401574803,
            "duration": 0.2812148749999892
          },
          {
            "name": "A#4",
            "midi": 70,
            "time": 291.9010402500012,
            "velocity": 0.3779527559055118,
            "duration": 0.3749531666666712
          },
          {
            "name": "G#4",
            "midi": 68,
            "time": 292.27599341666786,
            "velocity": 0.36220472440944884,
            "duration": 0.3749531666666712
          },
          {
            "name": "G4",
            "midi": 67,
            "time": 292.65094658333453,
            "velocity": 0.36220472440944884,
            "duration": 0.3749531666666712
          },
          {
            "name": "C4",
            "midi": 60,
            "time": 293.0258997500012,
            "velocity": 0.4094488188976378,
            "duration": 1.1248595000000137
          },
          {
            "name": "G#4",
            "midi": 68,
            "time": 293.0258997500012,
            "velocity": 0.4094488188976378,
            "duration": 1.1248595000000137
          },
          {
            "name": "D#5",
            "midi": 75,
            "time": 296.40047825000124,
            "velocity": 0.3937007874015748,
            "duration": 0.8436446250000245
          },
          {
            "name": "E5",
            "midi": 76,
            "time": 297.24412287500127,
            "velocity": 0.3937007874015748,
            "duration": 0.2812148749999892
          },
          {
            "name": "F5",
            "midi": 77,
            "time": 297.52533775000126,
            "velocity": 0.4330708661417323,
            "duration": 1.499812666666685
          },
          {
            "name": "D#5",
            "midi": 75,
            "time": 299.02515041666794,
            "velocity": 0.4015748031496063,
            "duration": 0.3749531666666712
          },
          {
            "name": "C#5",
            "midi": 73,
            "time": 299.4001035833346,
            "velocity": 0.4015748031496063,
            "duration": 0.3749531666666712
          },
          {
            "name": "C5",
            "midi": 72,
            "time": 299.7750567500013,
            "velocity": 0.4094488188976378,
            "duration": 0.3749531666666712
          },
          {
            "name": "A#4",
            "midi": 70,
            "time": 300.15000991666795,
            "velocity": 0.41732283464566927,
            "duration": 0.3749531666666712
          },
          {
            "name": "G#4",
            "midi": 68,
            "time": 300.5249630833346,
            "velocity": 0.4251968503937008,
            "duration": 0.3749531666666712
          },
          {
            "name": "G4",
            "midi": 67,
            "time": 300.8999162500013,
            "velocity": 0.4566929133858268,
            "duration": 0.2812148749999892
          },
          {
            "name": "C#5",
            "midi": 73,
            "time": 301.1811311250013,
            "velocity": 0.41732283464566927,
            "duration": 0.2812148749999892
          },
          {
            "name": "A#4",
            "midi": 70,
            "time": 301.4623460000013,
            "velocity": 0.4015748031496063,
            "duration": 0.2812148749999892
          },
          {
            "name": "G4",
            "midi": 67,
            "time": 301.74356087500126,
            "velocity": 0.3937007874015748,
            "duration": 0.2812148749999892
          },
          {
            "name": "G#4",
            "midi": 68,
            "time": 302.02477575000125,
            "velocity": 0.4094488188976378,
            "duration": 0.3749531666666712
          },
          {
            "name": "A#4",
            "midi": 70,
            "time": 302.3997289166679,
            "velocity": 0.3543307086614173,
            "duration": 0.12185977916664115
          },
          {
            "name": "G#4",
            "midi": 68,
            "time": 302.52158869583457,
            "velocity": 0.30708661417322836,
            "duration": 0.12185977916664115
          },
          {
            "name": "G4",
            "midi": 67,
            "time": 302.6434484750012,
            "velocity": 0.30708661417322836,
            "duration": 0.12185977916664115
          },
          {
            "name": "G#4",
            "midi": 68,
            "time": 302.77468208333454,
            "velocity": 0.3464566929133858,
            "duration": 0.2812148749999892
          },
          {
            "name": "C5",
            "midi": 72,
            "time": 303.05589695833453,
            "velocity": 0.36220472440944884,
            "duration": 0.09373829166668202
          },
          {
            "name": "D#4",
            "midi": 63,
            "time": 303.1496352500012,
            "velocity": 0.36220472440944884,
            "duration": 1.1248595000000137
          },
          {
            "name": "D#6",
            "midi": 87,
            "time": 305.39935425000124,
            "velocity": 0.3937007874015748,
            "duration": 0.8436446250000245
          },
          {
            "name": "D#5",
            "midi": 75,
            "time": 305.39935425000124,
            "velocity": 0.33070866141732286,
            "duration": 0.8436446250000245
          },
          {
            "name": "E6",
            "midi": 88,
            "time": 306.24299887500126,
            "velocity": 0.3937007874015748,
            "duration": 0.2812148749999892
          },
          {
            "name": "E5",
            "midi": 76,
            "time": 306.24299887500126,
            "velocity": 0.33070866141732286,
            "duration": 0.2812148749999892
          },
          {
            "name": "F6",
            "midi": 89,
            "time": 306.52421375000125,
            "velocity": 0.4330708661417323,
            "duration": 1.499812666666685
          },
          {
            "name": "F5",
            "midi": 77,
            "time": 306.52421375000125,
            "velocity": 0.36220472440944884,
            "duration": 1.499812666666685
          },
          {
            "name": "D#6",
            "midi": 87,
            "time": 308.02402641666794,
            "velocity": 0.4015748031496063,
            "duration": 0.3749531666666712
          },
          {
            "name": "D#5",
            "midi": 75,
            "time": 308.02402641666794,
            "velocity": 0.33858267716535434,
            "duration": 0.3749531666666712
          },
          {
            "name": "C#6",
            "midi": 85,
            "time": 308.3989795833346,
            "velocity": 0.41732283464566927,
            "duration": 0.3749531666666712
          },
          {
            "name": "C#5",
            "midi": 73,
            "time": 308.3989795833346,
            "velocity": 0.3543307086614173,
            "duration": 0.3749531666666712
          },
          {
            "name": "C6",
            "midi": 84,
            "time": 308.7739327500013,
            "velocity": 0.41732283464566927,
            "duration": 0.3749531666666712
          },
          {
            "name": "C5",
            "midi": 72,
            "time": 308.7739327500013,
            "velocity": 0.3543307086614173,
            "duration": 0.3749531666666712
          },
          {
            "name": "A#5",
            "midi": 82,
            "time": 309.14888591666795,
            "velocity": 0.4094488188976378,
            "duration": 0.3749531666666712
          },
          {
            "name": "A#4",
            "midi": 70,
            "time": 309.14888591666795,
            "velocity": 0.3464566929133858,
            "duration": 0.3749531666666712
          },
          {
            "name": "G#5",
            "midi": 80,
            "time": 309.5238390833346,
            "velocity": 0.3937007874015748,
            "duration": 0.3749531666666712
          },
          {
            "name": "G#4",
            "midi": 68,
            "time": 309.5238390833346,
            "velocity": 0.33070866141732286,
            "duration": 0.3749531666666712
          },
          {
            "name": "G4",
            "midi": 67,
            "time": 309.8987922500013,
            "velocity": 0.33858267716535434,
            "duration": 0.3749531666666712
          },
          {
            "name": "G5",
            "midi": 79,
            "time": 309.8987922500013,
            "velocity": 0.4015748031496063,
            "duration": 0.3749531666666712
          },
          {
            "name": "C#5",
            "midi": 73,
            "time": 310.27374541666796,
            "velocity": 0.33070866141732286,
            "duration": 0.3749531666666712
          },
          {
            "name": "C#6",
            "midi": 85,
            "time": 310.27374541666796,
            "velocity": 0.3937007874015748,
            "duration": 0.3749531666666712
          },
          {
            "name": "G4",
            "midi": 67,
            "time": 310.64869858333464,
            "velocity": 0.3464566929133858,
            "duration": 0.3749531666666712
          },
          {
            "name": "G5",
            "midi": 79,
            "time": 310.64869858333464,
            "velocity": 0.4094488188976378,
            "duration": 0.3749531666666712
          },
          {
            "name": "G#5",
            "midi": 80,
            "time": 311.0236517500013,
            "velocity": 0.4094488188976378,
            "duration": 1.1248595000000137
          },
          {
            "name": "G#4",
            "midi": 68,
            "time": 311.0236517500013,
            "velocity": 0.3464566929133858,
            "duration": 1.1248595000000137
          },
          {
            "name": "D#5",
            "midi": 75,
            "time": 313.1327633125013,
            "velocity": 0.4094488188976378,
            "duration": 0.14060743750002302
          },
          {
            "name": "C#5",
            "midi": 73,
            "time": 313.27337075000133,
            "velocity": 0.49606299212598426,
            "duration": 0.3749531666666712
          },
          {
            "name": "C5",
            "midi": 72,
            "time": 313.648323916668,
            "velocity": 0.4330708661417323,
            "duration": 0.3749531666666712
          },
          {
            "name": "C#5",
            "midi": 73,
            "time": 314.0232770833347,
            "velocity": 0.4330708661417323,
            "duration": 0.3749531666666712
          },
          {
            "name": "F5",
            "midi": 77,
            "time": 314.39823025000135,
            "velocity": 0.4566929133858268,
            "duration": 0.3749531666666712
          },
          {
            "name": "D#5",
            "midi": 75,
            "time": 314.773183416668,
            "velocity": 0.4330708661417323,
            "duration": 0.3749531666666712
          },
          {
            "name": "C#5",
            "midi": 73,
            "time": 315.1481365833347,
            "velocity": 0.4251968503937008,
            "duration": 0.3749531666666712
          },
          {
            "name": "C5",
            "midi": 72,
            "time": 315.52308975000136,
            "velocity": 0.4094488188976378,
            "duration": 1.1248595000000137
          },
          {
            "name": "C5",
            "midi": 72,
            "time": 317.63220131250137,
            "velocity": 0.4251968503937008,
            "duration": 0.14060743750002302
          },
          {
            "name": "G4",
            "midi": 67,
            "time": 317.7728087500014,
            "velocity": 0.3700787401574803,
            "duration": 2.2497190000000273
          },
          {
            "name": "A#4",
            "midi": 70,
            "time": 317.7728087500014,
            "velocity": 0.5039370078740157,
            "duration": 0.3749531666666712
          },
          {
            "name": "A4",
            "midi": 69,
            "time": 318.14776191666806,
            "velocity": 0.4094488188976378,
            "duration": 0.3749531666666712
          },
          {
            "name": "A#4",
            "midi": 70,
            "time": 318.52271508333473,
            "velocity": 0.4094488188976378,
            "duration": 0.3749531666666712
          },
          {
            "name": "C#5",
            "midi": 73,
            "time": 318.8976682500014,
            "velocity": 0.4251968503937008,
            "duration": 0.3749531666666712
          },
          {
            "name": "C5",
            "midi": 72,
            "time": 319.2726214166681,
            "velocity": 0.4094488188976378,
            "duration": 0.3749531666666712
          },
          {
            "name": "A#4",
            "midi": 70,
            "time": 319.64757458333474,
            "velocity": 0.4094488188976378,
            "duration": 0.3749531666666712
          },
          {
            "name": "G#4",
            "midi": 68,
            "time": 320.0225277500014,
            "velocity": 0.36220472440944884,
            "duration": 1.1248595000000137
          },
          {
            "name": "C4",
            "midi": 60,
            "time": 322.1316393125014,
            "velocity": 0.4251968503937008,
            "duration": 0.14060743750002302
          },
          {
            "name": "A#3",
            "midi": 58,
            "time": 322.27224675000144,
            "velocity": 0.5039370078740157,
            "duration": 0.3749531666666712
          },
          {
            "name": "A3",
            "midi": 57,
            "time": 322.6471999166681,
            "velocity": 0.3779527559055118,
            "duration": 0.3749531666666712
          },
          {
            "name": "A#3",
            "midi": 58,
            "time": 323.0221530833348,
            "velocity": 0.3779527559055118,
            "duration": 0.3749531666666712
          },
          {
            "name": "C#4",
            "midi": 61,
            "time": 323.39710625000146,
            "velocity": 0.3937007874015748,
            "duration": 0.3749531666666712
          },
          {
            "name": "C4",
            "midi": 60,
            "time": 323.7720594166681,
            "velocity": 0.3700787401574803,
            "duration": 0.3749531666666712
          },
          {
            "name": "A#3",
            "midi": 58,
            "time": 324.1470125833348,
            "velocity": 0.3464566929133858,
            "duration": 0.3749531666666712
          },
          {
            "name": "G#3",
            "midi": 56,
            "time": 324.52196575000147,
            "velocity": 0.2755905511811024,
            "duration": 0.5624297499999784
          },
          {
            "name": "C3",
            "midi": 48,
            "time": 325.6468252500014,
            "velocity": 0.2204724409448819,
            "duration": 0.5624297499999784
          },
          {
            "name": "D#3",
            "midi": 51,
            "time": 325.6468252500014,
            "velocity": 0.2204724409448819,
            "duration": 0.5624297499999784
          },
          {
            "name": "G#3",
            "midi": 56,
            "time": 325.6468252500014,
            "velocity": 0.2755905511811024,
            "duration": 0.5624297499999784
          },
          {
            "name": "G#2",
            "midi": 44,
            "time": 326.7716847500014,
            "velocity": 0.2204724409448819,
            "duration": 2.2497190000000273
          },
          {
            "name": "C3",
            "midi": 48,
            "time": 326.7716847500014,
            "velocity": 0.2204724409448819,
            "duration": 2.2497190000000273
          },
          {
            "name": "G#3",
            "midi": 56,
            "time": 326.7716847500014,
            "velocity": 0.2755905511811024,
            "duration": 2.2497190000000273
          }
        ],
        "controlChanges": {
          "7": [
            {
              "number": 7,
              "time": 0,
              "value": 0.7874015748031497
            }
          ],
          "10": [
            {
              "number": 10,
              "time": 0,
              "value": 0.5039370078740157
            }
          ],
          "91": [
            {
              "number": 91,
              "time": 0,
              "value": 1
            },
            {
              "number": 91,
              "time": 35.995504000000004,
              "value": 1
            },
            {
              "number": 91,
              "time": 126.5466937500002,
              "value": 1
            },
            {
              "number": 91,
              "time": 225.53432975000086,
              "value": 1
            },
            {
              "number": 91,
              "time": 261.529833750001,
              "value": 1
            }
          ]
        },
        "id": 1,
        "name": "Piano right",
        "instrumentNumber": 1,
        "instrument": "bright acoustic piano",
        "instrumentFamily": "piano",
        "channelNumber": 0,
        "isPercussion": false
      },
      {
        "startTime": 35.995504000000004,
        "duration": 292.9321614583303,
        "length": 478,
        "notes": [
          {
            "name": "C4",
            "midi": 60,
            "time": 35.995504000000004,
            "velocity": 0.2204724409448819,
            "duration": 0.5624297499999997
          },
          {
            "name": "D#4",
            "midi": 63,
            "time": 36.557933750000004,
            "velocity": 0.1889763779527559,
            "duration": 0.5624297499999997
          },
          {
            "name": "C4",
            "midi": 60,
            "time": 37.1203635,
            "velocity": 0.2047244094488189,
            "duration": 0.5624297499999997
          },
          {
            "name": "D#4",
            "midi": 63,
            "time": 37.68279325,
            "velocity": 0.18110236220472442,
            "duration": 0.5624297499999997
          },
          {
            "name": "A#3",
            "midi": 58,
            "time": 38.245223,
            "velocity": 0.2204724409448819,
            "duration": 0.5624297499999997
          },
          {
            "name": "D#4",
            "midi": 63,
            "time": 38.80765275,
            "velocity": 0.1889763779527559,
            "duration": 0.5624297499999997
          },
          {
            "name": "A#3",
            "midi": 58,
            "time": 39.3700825,
            "velocity": 0.2047244094488189,
            "duration": 0.5624297499999997
          },
          {
            "name": "D#4",
            "midi": 63,
            "time": 39.93251225,
            "velocity": 0.1889763779527559,
            "duration": 0.5624297499999997
          },
          {
            "name": "D#4",
            "midi": 63,
            "time": 40.494942,
            "velocity": 0.2204724409448819,
            "duration": 0.5624297499999997
          },
          {
            "name": "G#4",
            "midi": 68,
            "time": 41.05737175,
            "velocity": 0.1968503937007874,
            "duration": 0.5624297499999997
          },
          {
            "name": "D#4",
            "midi": 63,
            "time": 41.6198015,
            "velocity": 0.1968503937007874,
            "duration": 0.5624297499999997
          },
          {
            "name": "G#4",
            "midi": 68,
            "time": 42.18223125,
            "velocity": 0.1968503937007874,
            "duration": 0.5624297499999997
          },
          {
            "name": "D#4",
            "midi": 63,
            "time": 42.744661,
            "velocity": 0.2204724409448819,
            "duration": 0.5624297499999997
          },
          {
            "name": "A#4",
            "midi": 70,
            "time": 43.30709075,
            "velocity": 0.1968503937007874,
            "duration": 0.5624297499999997
          },
          {
            "name": "D#4",
            "midi": 63,
            "time": 43.8695205,
            "velocity": 0.1968503937007874,
            "duration": 0.5624297499999997
          },
          {
            "name": "A#4",
            "midi": 70,
            "time": 44.43195025,
            "velocity": 0.1968503937007874,
            "duration": 0.5624297499999997
          },
          {
            "name": "D#4",
            "midi": 63,
            "time": 44.99438,
            "velocity": 0.2440944881889764,
            "duration": 0.5624297499999997
          },
          {
            "name": "G#4",
            "midi": 68,
            "time": 45.55680975,
            "velocity": 0.2440944881889764,
            "duration": 0.5624297499999997
          },
          {
            "name": "D#4",
            "midi": 63,
            "time": 46.1192395,
            "velocity": 0.25196850393700787,
            "duration": 0.5624297499999997
          },
          {
            "name": "A#4",
            "midi": 70,
            "time": 46.68166925,
            "velocity": 0.25984251968503935,
            "duration": 0.5624297499999997
          },
          {
            "name": "G#4",
            "midi": 68,
            "time": 47.244099,
            "velocity": 0.25984251968503935,
            "duration": 0.5624297499999997
          },
          {
            "name": "C5",
            "midi": 72,
            "time": 47.80652875,
            "velocity": 0.2677165354330709,
            "duration": 0.5624297499999997
          },
          {
            "name": "G#4",
            "midi": 68,
            "time": 48.3689585,
            "velocity": 0.2755905511811024,
            "duration": 0.5624297499999997
          },
          {
            "name": "D5",
            "midi": 74,
            "time": 48.93138825,
            "velocity": 0.2755905511811024,
            "duration": 0.5624297499999997
          },
          {
            "name": "G4",
            "midi": 67,
            "time": 49.493818,
            "velocity": 0.25984251968503935,
            "duration": 0.5624297499999997
          },
          {
            "name": "A#4",
            "midi": 70,
            "time": 50.05624775,
            "velocity": 0.1968503937007874,
            "duration": 0.5624297499999997
          },
          {
            "name": "G4",
            "midi": 67,
            "time": 50.6186775,
            "velocity": 0.1968503937007874,
            "duration": 0.5624297499999997
          },
          {
            "name": "A#4",
            "midi": 70,
            "time": 51.18110725,
            "velocity": 0.1968503937007874,
            "duration": 0.5624297499999997
          },
          {
            "name": "G4",
            "midi": 67,
            "time": 51.743536999999996,
            "velocity": 0.2283464566929134,
            "duration": 0.5624297499999997
          },
          {
            "name": "A#4",
            "midi": 70,
            "time": 52.305966749999996,
            "velocity": 0.23622047244094488,
            "duration": 0.5624297499999997
          },
          {
            "name": "G4",
            "midi": 67,
            "time": 52.868396499999996,
            "velocity": 0.25984251968503935,
            "duration": 0.5624297499999997
          },
          {
            "name": "A#4",
            "midi": 70,
            "time": 53.430826249999996,
            "velocity": 0.2677165354330709,
            "duration": 0.5624297499999997
          },
          {
            "name": "G4",
            "midi": 67,
            "time": 53.993255999999995,
            "velocity": 0.23622047244094488,
            "duration": 0.5624297499999997
          },
          {
            "name": "A#4",
            "midi": 70,
            "time": 54.555685749999995,
            "velocity": 0.1889763779527559,
            "duration": 0.5624297499999997
          },
          {
            "name": "G4",
            "midi": 67,
            "time": 55.118115499999995,
            "velocity": 0.2047244094488189,
            "duration": 0.5624297499999997
          },
          {
            "name": "A#4",
            "midi": 70,
            "time": 55.680545249999994,
            "velocity": 0.18110236220472442,
            "duration": 0.5530559208333301
          },
          {
            "name": "G4",
            "midi": 67,
            "time": 56.242974999999994,
            "velocity": 0.2204724409448819,
            "duration": 0.5624297499999997
          },
          {
            "name": "D#4",
            "midi": 63,
            "time": 56.805404749999994,
            "velocity": 0.1889763779527559,
            "duration": 0.5624297499999997
          },
          {
            "name": "G4",
            "midi": 67,
            "time": 57.367834499999994,
            "velocity": 0.1889763779527559,
            "duration": 0.5624297499999997
          },
          {
            "name": "D#4",
            "midi": 63,
            "time": 57.93026424999999,
            "velocity": 0.1889763779527559,
            "duration": 0.5624297499999997
          },
          {
            "name": "G#4",
            "midi": 68,
            "time": 58.49269399999999,
            "velocity": 0.23622047244094488,
            "duration": 0.5624297499999997
          },
          {
            "name": "D#4",
            "midi": 63,
            "time": 59.05512374999999,
            "velocity": 0.2125984251968504,
            "duration": 0.5624297499999997
          },
          {
            "name": "G#4",
            "midi": 68,
            "time": 59.61755349999999,
            "velocity": 0.2125984251968504,
            "duration": 0.5624297499999997
          },
          {
            "name": "D#4",
            "midi": 63,
            "time": 60.17998324999999,
            "velocity": 0.1968503937007874,
            "duration": 0.421822312499998
          },
          {
            "name": "D#4",
            "midi": 63,
            "time": 60.74241299999999,
            "velocity": 0.2204724409448819,
            "duration": 0.5624297499999997
          },
          {
            "name": "C4",
            "midi": 60,
            "time": 61.30484274999999,
            "velocity": 0.1889763779527559,
            "duration": 0.5624297499999997
          },
          {
            "name": "D#4",
            "midi": 63,
            "time": 61.86727249999999,
            "velocity": 0.2047244094488189,
            "duration": 0.5624297499999997
          },
          {
            "name": "C4",
            "midi": 60,
            "time": 62.42970224999999,
            "velocity": 0.1889763779527559,
            "duration": 0.5624297499999997
          },
          {
            "name": "F4",
            "midi": 65,
            "time": 62.99213199999999,
            "velocity": 0.2283464566929134,
            "duration": 0.5624297499999997
          },
          {
            "name": "C#4",
            "midi": 61,
            "time": 63.55456174999999,
            "velocity": 0.1968503937007874,
            "duration": 0.5624297500000068
          },
          {
            "name": "F4",
            "midi": 65,
            "time": 64.1169915,
            "velocity": 0.2125984251968504,
            "duration": 0.5624297500000068
          },
          {
            "name": "C#4",
            "midi": 61,
            "time": 64.67942125,
            "velocity": 0.1889763779527559,
            "duration": 0.421822312499998
          },
          {
            "name": "C#4",
            "midi": 61,
            "time": 65.241851,
            "velocity": 0.23622047244094488,
            "duration": 0.421822312499998
          },
          {
            "name": "C#4",
            "midi": 61,
            "time": 65.80428074999999,
            "velocity": 0.2047244094488189,
            "duration": 0.421822312499998
          },
          {
            "name": "C#4",
            "midi": 61,
            "time": 66.36671049999998,
            "velocity": 0.2204724409448819,
            "duration": 0.421822312499998
          },
          {
            "name": "C#4",
            "midi": 61,
            "time": 66.92914024999997,
            "velocity": 0.2047244094488189,
            "duration": 0.421822312499998
          },
          {
            "name": "C#4",
            "midi": 61,
            "time": 67.49156999999997,
            "velocity": 0.23622047244094488,
            "duration": 0.5624297500000068
          },
          {
            "name": "D#4",
            "midi": 63,
            "time": 68.05399974999997,
            "velocity": 0.2047244094488189,
            "duration": 0.5624297500000068
          },
          {
            "name": "C#4",
            "midi": 61,
            "time": 68.61642949999998,
            "velocity": 0.2204724409448819,
            "duration": 0.5624297500000068
          },
          {
            "name": "D#4",
            "midi": 63,
            "time": 69.17885924999999,
            "velocity": 0.1889763779527559,
            "duration": 0.5624297500000068
          },
          {
            "name": "C4",
            "midi": 60,
            "time": 69.741289,
            "velocity": 0.28346456692913385,
            "duration": 1.1248594999999995
          },
          {
            "name": "B3",
            "midi": 59,
            "time": 162.54219775,
            "velocity": 0.1889763779527559,
            "duration": 0.2812148749999892
          },
          {
            "name": "D#4",
            "midi": 63,
            "time": 162.54219775,
            "velocity": 0.2283464566929134,
            "duration": 0.2812148749999892
          },
          {
            "name": "B3",
            "midi": 59,
            "time": 162.91715091666666,
            "velocity": 0.1889763779527559,
            "duration": 0.2812148749999892
          },
          {
            "name": "D#4",
            "midi": 63,
            "time": 162.91715091666666,
            "velocity": 0.2283464566929134,
            "duration": 0.2812148749999892
          },
          {
            "name": "B3",
            "midi": 59,
            "time": 163.2921040833333,
            "velocity": 0.1889763779527559,
            "duration": 0.2812148749999892
          },
          {
            "name": "D#4",
            "midi": 63,
            "time": 163.2921040833333,
            "velocity": 0.2283464566929134,
            "duration": 0.2812148749999892
          },
          {
            "name": "B3",
            "midi": 59,
            "time": 163.66705724999994,
            "velocity": 0.1889763779527559,
            "duration": 0.2812148749999892
          },
          {
            "name": "D#4",
            "midi": 63,
            "time": 163.66705724999994,
            "velocity": 0.2283464566929134,
            "duration": 0.2812148749999892
          },
          {
            "name": "B3",
            "midi": 59,
            "time": 164.04201041666659,
            "velocity": 0.1968503937007874,
            "duration": 0.2812148749999892
          },
          {
            "name": "D#4",
            "midi": 63,
            "time": 164.04201041666659,
            "velocity": 0.23622047244094488,
            "duration": 0.2812148749999892
          },
          {
            "name": "B3",
            "midi": 59,
            "time": 164.41696358333323,
            "velocity": 0.1968503937007874,
            "duration": 0.2812148749999892
          },
          {
            "name": "D#4",
            "midi": 63,
            "time": 164.41696358333323,
            "velocity": 0.23622047244094488,
            "duration": 0.2812148749999892
          },
          {
            "name": "B3",
            "midi": 59,
            "time": 164.79191674999987,
            "velocity": 0.1968503937007874,
            "duration": 0.2812148749999892
          },
          {
            "name": "D#4",
            "midi": 63,
            "time": 164.79191674999987,
            "velocity": 0.23622047244094488,
            "duration": 0.2812148749999892
          },
          {
            "name": "B3",
            "midi": 59,
            "time": 165.1668699166665,
            "velocity": 0.1968503937007874,
            "duration": 0.2812148749999892
          },
          {
            "name": "D#4",
            "midi": 63,
            "time": 165.1668699166665,
            "velocity": 0.23622047244094488,
            "duration": 0.2812148749999892
          },
          {
            "name": "B3",
            "midi": 59,
            "time": 165.54182308333316,
            "velocity": 0.1968503937007874,
            "duration": 0.2812148749999892
          },
          {
            "name": "D#4",
            "midi": 63,
            "time": 165.54182308333316,
            "velocity": 0.23622047244094488,
            "duration": 0.2812148749999892
          },
          {
            "name": "B3",
            "midi": 59,
            "time": 165.9167762499998,
            "velocity": 0.1968503937007874,
            "duration": 0.2812148749999892
          },
          {
            "name": "D#4",
            "midi": 63,
            "time": 165.9167762499998,
            "velocity": 0.23622047244094488,
            "duration": 0.2812148749999892
          },
          {
            "name": "B3",
            "midi": 59,
            "time": 166.29172941666644,
            "velocity": 0.1968503937007874,
            "duration": 0.2812148749999892
          },
          {
            "name": "D#4",
            "midi": 63,
            "time": 166.29172941666644,
            "velocity": 0.23622047244094488,
            "duration": 0.2812148749999892
          },
          {
            "name": "B3",
            "midi": 59,
            "time": 166.66668258333308,
            "velocity": 0.1968503937007874,
            "duration": 0.2812148749999892
          },
          {
            "name": "D#4",
            "midi": 63,
            "time": 166.66668258333308,
            "velocity": 0.23622047244094488,
            "duration": 0.2812148749999892
          },
          {
            "name": "C#4",
            "midi": 61,
            "time": 167.04163574999973,
            "velocity": 0.1968503937007874,
            "duration": 0.2812148749999892
          },
          {
            "name": "D#4",
            "midi": 63,
            "time": 167.04163574999973,
            "velocity": 0.23622047244094488,
            "duration": 0.2812148749999892
          },
          {
            "name": "C#4",
            "midi": 61,
            "time": 167.41658891666637,
            "velocity": 0.1968503937007874,
            "duration": 0.2812148749999892
          },
          {
            "name": "D#4",
            "midi": 63,
            "time": 167.41658891666637,
            "velocity": 0.23622047244094488,
            "duration": 0.2812148749999892
          },
          {
            "name": "C#4",
            "midi": 61,
            "time": 167.791542083333,
            "velocity": 0.1968503937007874,
            "duration": 0.2812148749999892
          },
          {
            "name": "D#4",
            "midi": 63,
            "time": 167.791542083333,
            "velocity": 0.23622047244094488,
            "duration": 0.2812148749999892
          },
          {
            "name": "C#4",
            "midi": 61,
            "time": 168.16649524999966,
            "velocity": 0.1968503937007874,
            "duration": 0.2812148749999892
          },
          {
            "name": "D#4",
            "midi": 63,
            "time": 168.16649524999966,
            "velocity": 0.23622047244094488,
            "duration": 0.2812148749999892
          },
          {
            "name": "C#4",
            "midi": 61,
            "time": 168.5414484166663,
            "velocity": 0.1968503937007874,
            "duration": 0.2812148749999892
          },
          {
            "name": "D#4",
            "midi": 63,
            "time": 168.5414484166663,
            "velocity": 0.23622047244094488,
            "duration": 0.2812148749999892
          },
          {
            "name": "C#4",
            "midi": 61,
            "time": 168.91640158333294,
            "velocity": 0.1968503937007874,
            "duration": 0.2812148749999892
          },
          {
            "name": "D#4",
            "midi": 63,
            "time": 168.91640158333294,
            "velocity": 0.23622047244094488,
            "duration": 0.2812148749999892
          },
          {
            "name": "C#4",
            "midi": 61,
            "time": 169.29135474999958,
            "velocity": 0.1968503937007874,
            "duration": 0.2812148749999892
          },
          {
            "name": "D#4",
            "midi": 63,
            "time": 169.29135474999958,
            "velocity": 0.23622047244094488,
            "duration": 0.2812148749999892
          },
          {
            "name": "C#4",
            "midi": 61,
            "time": 169.66630791666623,
            "velocity": 0.1968503937007874,
            "duration": 0.2812148749999892
          },
          {
            "name": "D#4",
            "midi": 63,
            "time": 169.66630791666623,
            "velocity": 0.23622047244094488,
            "duration": 0.2812148749999892
          },
          {
            "name": "C#4",
            "midi": 61,
            "time": 170.04126108333287,
            "velocity": 0.1968503937007874,
            "duration": 0.2812148749999892
          },
          {
            "name": "D#4",
            "midi": 63,
            "time": 170.04126108333287,
            "velocity": 0.23622047244094488,
            "duration": 0.2812148749999892
          },
          {
            "name": "C#4",
            "midi": 61,
            "time": 170.4162142499995,
            "velocity": 0.1968503937007874,
            "duration": 0.2812148749999892
          },
          {
            "name": "D#4",
            "midi": 63,
            "time": 170.4162142499995,
            "velocity": 0.23622047244094488,
            "duration": 0.2812148749999892
          },
          {
            "name": "C#4",
            "midi": 61,
            "time": 170.79116741666616,
            "velocity": 0.1968503937007874,
            "duration": 0.2812148749999892
          },
          {
            "name": "D#4",
            "midi": 63,
            "time": 170.79116741666616,
            "velocity": 0.23622047244094488,
            "duration": 0.2812148749999892
          },
          {
            "name": "C#4",
            "midi": 61,
            "time": 171.1661205833328,
            "velocity": 0.1968503937007874,
            "duration": 0.2812148749999892
          },
          {
            "name": "D#4",
            "midi": 63,
            "time": 171.1661205833328,
            "velocity": 0.23622047244094488,
            "duration": 0.2812148749999892
          },
          {
            "name": "B3",
            "midi": 59,
            "time": 171.54107374999944,
            "velocity": 0.1889763779527559,
            "duration": 0.2812148749999892
          },
          {
            "name": "D#4",
            "midi": 63,
            "time": 171.54107374999944,
            "velocity": 0.2283464566929134,
            "duration": 0.2812148749999892
          },
          {
            "name": "B3",
            "midi": 59,
            "time": 171.91602691666608,
            "velocity": 0.1889763779527559,
            "duration": 0.2812148749999892
          },
          {
            "name": "D#4",
            "midi": 63,
            "time": 171.91602691666608,
            "velocity": 0.2283464566929134,
            "duration": 0.2812148749999892
          },
          {
            "name": "B3",
            "midi": 59,
            "time": 172.29098008333273,
            "velocity": 0.1889763779527559,
            "duration": 0.2812148749999892
          },
          {
            "name": "D#4",
            "midi": 63,
            "time": 172.29098008333273,
            "velocity": 0.2283464566929134,
            "duration": 0.2812148749999892
          },
          {
            "name": "B3",
            "midi": 59,
            "time": 172.66593324999937,
            "velocity": 0.1889763779527559,
            "duration": 0.2812148749999892
          },
          {
            "name": "D#4",
            "midi": 63,
            "time": 172.66593324999937,
            "velocity": 0.2283464566929134,
            "duration": 0.2812148749999892
          },
          {
            "name": "B3",
            "midi": 59,
            "time": 173.040886416666,
            "velocity": 0.1968503937007874,
            "duration": 0.2812148749999892
          },
          {
            "name": "D#4",
            "midi": 63,
            "time": 173.040886416666,
            "velocity": 0.23622047244094488,
            "duration": 0.2812148749999892
          },
          {
            "name": "B3",
            "midi": 59,
            "time": 173.41583958333266,
            "velocity": 0.1968503937007874,
            "duration": 0.2812148749999892
          },
          {
            "name": "D#4",
            "midi": 63,
            "time": 173.41583958333266,
            "velocity": 0.23622047244094488,
            "duration": 0.2812148749999892
          },
          {
            "name": "B3",
            "midi": 59,
            "time": 173.7907927499993,
            "velocity": 0.1968503937007874,
            "duration": 0.2812148749999892
          },
          {
            "name": "D#4",
            "midi": 63,
            "time": 173.7907927499993,
            "velocity": 0.23622047244094488,
            "duration": 0.2812148749999892
          },
          {
            "name": "B3",
            "midi": 59,
            "time": 174.16574591666594,
            "velocity": 0.1968503937007874,
            "duration": 0.2812148749999892
          },
          {
            "name": "D#4",
            "midi": 63,
            "time": 174.16574591666594,
            "velocity": 0.23622047244094488,
            "duration": 0.2812148749999892
          },
          {
            "name": "B3",
            "midi": 59,
            "time": 174.54069908333258,
            "velocity": 0.1968503937007874,
            "duration": 0.2812148749999892
          },
          {
            "name": "D#4",
            "midi": 63,
            "time": 174.54069908333258,
            "velocity": 0.23622047244094488,
            "duration": 0.2812148749999892
          },
          {
            "name": "B3",
            "midi": 59,
            "time": 174.91565224999923,
            "velocity": 0.1968503937007874,
            "duration": 0.2812148749999892
          },
          {
            "name": "D#4",
            "midi": 63,
            "time": 174.91565224999923,
            "velocity": 0.23622047244094488,
            "duration": 0.2812148749999892
          },
          {
            "name": "B3",
            "midi": 59,
            "time": 175.29060541666587,
            "velocity": 0.1968503937007874,
            "duration": 0.2812148749999892
          },
          {
            "name": "D#4",
            "midi": 63,
            "time": 175.29060541666587,
            "velocity": 0.23622047244094488,
            "duration": 0.2812148749999892
          },
          {
            "name": "B3",
            "midi": 59,
            "time": 175.6655585833325,
            "velocity": 0.1968503937007874,
            "duration": 0.2812148749999892
          },
          {
            "name": "D#4",
            "midi": 63,
            "time": 175.6655585833325,
            "velocity": 0.23622047244094488,
            "duration": 0.2812148749999892
          },
          {
            "name": "A#3",
            "midi": 58,
            "time": 176.04051174999915,
            "velocity": 0.1968503937007874,
            "duration": 0.2812148749999892
          },
          {
            "name": "D#4",
            "midi": 63,
            "time": 176.04051174999915,
            "velocity": 0.23622047244094488,
            "duration": 0.2812148749999892
          },
          {
            "name": "A#3",
            "midi": 58,
            "time": 176.4154649166658,
            "velocity": 0.1968503937007874,
            "duration": 0.2812148749999892
          },
          {
            "name": "D#4",
            "midi": 63,
            "time": 176.4154649166658,
            "velocity": 0.23622047244094488,
            "duration": 0.2812148749999892
          },
          {
            "name": "A#3",
            "midi": 58,
            "time": 176.79041808333244,
            "velocity": 0.1968503937007874,
            "duration": 0.2812148749999892
          },
          {
            "name": "D#4",
            "midi": 63,
            "time": 176.79041808333244,
            "velocity": 0.23622047244094488,
            "duration": 0.2812148749999892
          },
          {
            "name": "A#3",
            "midi": 58,
            "time": 177.16537124999908,
            "velocity": 0.1968503937007874,
            "duration": 0.2812148749999892
          },
          {
            "name": "D#4",
            "midi": 63,
            "time": 177.16537124999908,
            "velocity": 0.23622047244094488,
            "duration": 0.2812148749999892
          },
          {
            "name": "A#3",
            "midi": 58,
            "time": 177.54032441666573,
            "velocity": 0.1968503937007874,
            "duration": 0.2812148749999892
          },
          {
            "name": "D#4",
            "midi": 63,
            "time": 177.54032441666573,
            "velocity": 0.23622047244094488,
            "duration": 0.2812148749999892
          },
          {
            "name": "A#3",
            "midi": 58,
            "time": 177.91527758333237,
            "velocity": 0.1968503937007874,
            "duration": 0.2812148749999892
          },
          {
            "name": "D#4",
            "midi": 63,
            "time": 177.91527758333237,
            "velocity": 0.23622047244094488,
            "duration": 0.2812148749999892
          },
          {
            "name": "G3",
            "midi": 55,
            "time": 178.290230749999,
            "velocity": 0.1968503937007874,
            "duration": 0.2812148749999892
          },
          {
            "name": "A#3",
            "midi": 58,
            "time": 178.290230749999,
            "velocity": 0.1968503937007874,
            "duration": 0.2812148749999892
          },
          {
            "name": "D#4",
            "midi": 63,
            "time": 178.290230749999,
            "velocity": 0.23622047244094488,
            "duration": 0.2812148749999892
          },
          {
            "name": "G3",
            "midi": 55,
            "time": 178.66518391666565,
            "velocity": 0.1968503937007874,
            "duration": 0.2812148749999892
          },
          {
            "name": "A#3",
            "midi": 58,
            "time": 178.66518391666565,
            "velocity": 0.1968503937007874,
            "duration": 0.2812148749999892
          },
          {
            "name": "D#4",
            "midi": 63,
            "time": 178.66518391666565,
            "velocity": 0.23622047244094488,
            "duration": 0.2812148749999892
          },
          {
            "name": "G3",
            "midi": 55,
            "time": 179.0401370833323,
            "velocity": 0.1968503937007874,
            "duration": 0.2812148749999892
          },
          {
            "name": "A#3",
            "midi": 58,
            "time": 179.0401370833323,
            "velocity": 0.1968503937007874,
            "duration": 0.2812148749999892
          },
          {
            "name": "D#4",
            "midi": 63,
            "time": 179.0401370833323,
            "velocity": 0.23622047244094488,
            "duration": 0.2812148749999892
          },
          {
            "name": "G3",
            "midi": 55,
            "time": 179.41509024999894,
            "velocity": 0.1968503937007874,
            "duration": 0.2812148749999892
          },
          {
            "name": "A#3",
            "midi": 58,
            "time": 179.41509024999894,
            "velocity": 0.1968503937007874,
            "duration": 0.2812148749999892
          },
          {
            "name": "D#4",
            "midi": 63,
            "time": 179.41509024999894,
            "velocity": 0.23622047244094488,
            "duration": 0.2812148749999892
          },
          {
            "name": "G3",
            "midi": 55,
            "time": 179.79004341666558,
            "velocity": 0.1968503937007874,
            "duration": 0.2812148749999892
          },
          {
            "name": "A#3",
            "midi": 58,
            "time": 179.79004341666558,
            "velocity": 0.1968503937007874,
            "duration": 0.2812148749999892
          },
          {
            "name": "D#4",
            "midi": 63,
            "time": 179.79004341666558,
            "velocity": 0.23622047244094488,
            "duration": 0.2812148749999892
          },
          {
            "name": "G3",
            "midi": 55,
            "time": 180.16499658333223,
            "velocity": 0.1968503937007874,
            "duration": 0.2812148749999892
          },
          {
            "name": "A#3",
            "midi": 58,
            "time": 180.16499658333223,
            "velocity": 0.1968503937007874,
            "duration": 0.2812148749999892
          },
          {
            "name": "D#4",
            "midi": 63,
            "time": 180.16499658333223,
            "velocity": 0.23622047244094488,
            "duration": 0.2812148749999892
          },
          {
            "name": "B3",
            "midi": 59,
            "time": 180.53994974999887,
            "velocity": 0.2047244094488189,
            "duration": 0.2812148749999892
          },
          {
            "name": "D#4",
            "midi": 63,
            "time": 180.53994974999887,
            "velocity": 0.2440944881889764,
            "duration": 0.2812148749999892
          },
          {
            "name": "B3",
            "midi": 59,
            "time": 180.9149029166655,
            "velocity": 0.2047244094488189,
            "duration": 0.2812148749999892
          },
          {
            "name": "D#4",
            "midi": 63,
            "time": 180.9149029166655,
            "velocity": 0.25196850393700787,
            "duration": 0.2812148749999892
          },
          {
            "name": "B3",
            "midi": 59,
            "time": 181.28985608333215,
            "velocity": 0.2125984251968504,
            "duration": 0.2812148749999892
          },
          {
            "name": "D#4",
            "midi": 63,
            "time": 181.28985608333215,
            "velocity": 0.25196850393700787,
            "duration": 0.2812148749999892
          },
          {
            "name": "B3",
            "midi": 59,
            "time": 181.6648092499988,
            "velocity": 0.2204724409448819,
            "duration": 0.2812148749999892
          },
          {
            "name": "D#4",
            "midi": 63,
            "time": 181.6648092499988,
            "velocity": 0.2677165354330709,
            "duration": 0.2812148749999892
          },
          {
            "name": "B3",
            "midi": 59,
            "time": 182.03976241666544,
            "velocity": 0.23622047244094488,
            "duration": 0.2812148749999892
          },
          {
            "name": "D#4",
            "midi": 63,
            "time": 182.03976241666544,
            "velocity": 0.28346456692913385,
            "duration": 0.2812148749999892
          },
          {
            "name": "B3",
            "midi": 59,
            "time": 182.41471558333208,
            "velocity": 0.2440944881889764,
            "duration": 0.2812148749999892
          },
          {
            "name": "D#4",
            "midi": 63,
            "time": 182.41471558333208,
            "velocity": 0.29133858267716534,
            "duration": 0.2812148749999892
          },
          {
            "name": "B3",
            "midi": 59,
            "time": 182.78966874999873,
            "velocity": 0.25984251968503935,
            "duration": 0.2812148749999892
          },
          {
            "name": "D#4",
            "midi": 63,
            "time": 182.78966874999873,
            "velocity": 0.30708661417322836,
            "duration": 0.2812148749999892
          },
          {
            "name": "B3",
            "midi": 59,
            "time": 183.16462191666537,
            "velocity": 0.25984251968503935,
            "duration": 0.2812148749999892
          },
          {
            "name": "D#4",
            "midi": 63,
            "time": 183.16462191666537,
            "velocity": 0.30708661417322836,
            "duration": 0.2812148749999892
          },
          {
            "name": "B3",
            "midi": 59,
            "time": 183.539575083332,
            "velocity": 0.25984251968503935,
            "duration": 0.2812148749999892
          },
          {
            "name": "D#4",
            "midi": 63,
            "time": 183.539575083332,
            "velocity": 0.31496062992125984,
            "duration": 0.2812148749999892
          },
          {
            "name": "B3",
            "midi": 59,
            "time": 183.91452824999865,
            "velocity": 0.2755905511811024,
            "duration": 0.2812148749999892
          },
          {
            "name": "D#4",
            "midi": 63,
            "time": 183.91452824999865,
            "velocity": 0.33070866141732286,
            "duration": 0.2812148749999892
          },
          {
            "name": "B3",
            "midi": 59,
            "time": 184.2894814166653,
            "velocity": 0.2755905511811024,
            "duration": 0.2812148749999892
          },
          {
            "name": "D#4",
            "midi": 63,
            "time": 184.2894814166653,
            "velocity": 0.33070866141732286,
            "duration": 0.2812148749999892
          },
          {
            "name": "B3",
            "midi": 59,
            "time": 184.66443458333194,
            "velocity": 0.29133858267716534,
            "duration": 0.2812148749999892
          },
          {
            "name": "D#4",
            "midi": 63,
            "time": 184.66443458333194,
            "velocity": 0.3464566929133858,
            "duration": 0.2812148749999892
          },
          {
            "name": "G#3",
            "midi": 56,
            "time": 194.0382637499986,
            "velocity": 0.4566929133858268,
            "duration": 0.2812148749999892
          },
          {
            "name": "B3",
            "midi": 59,
            "time": 194.0382637499986,
            "velocity": 0.4566929133858268,
            "duration": 0.2812148749999892
          },
          {
            "name": "G#3",
            "midi": 56,
            "time": 194.41321691666525,
            "velocity": 0.2755905511811024,
            "duration": 0.2812148749999892
          },
          {
            "name": "B3",
            "midi": 59,
            "time": 194.41321691666525,
            "velocity": 0.2755905511811024,
            "duration": 0.2812148749999892
          },
          {
            "name": "G#3",
            "midi": 56,
            "time": 194.7881700833319,
            "velocity": 0.2755905511811024,
            "duration": 0.2812148749999892
          },
          {
            "name": "B3",
            "midi": 59,
            "time": 194.7881700833319,
            "velocity": 0.2755905511811024,
            "duration": 0.2812148749999892
          },
          {
            "name": "G#3",
            "midi": 56,
            "time": 195.16312324999853,
            "velocity": 0.2755905511811024,
            "duration": 0.2812148749999892
          },
          {
            "name": "B3",
            "midi": 59,
            "time": 195.16312324999853,
            "velocity": 0.2755905511811024,
            "duration": 0.2812148749999892
          },
          {
            "name": "G#3",
            "midi": 56,
            "time": 195.53807641666518,
            "velocity": 0.2755905511811024,
            "duration": 0.2812148749999892
          },
          {
            "name": "B3",
            "midi": 59,
            "time": 195.53807641666518,
            "velocity": 0.2755905511811024,
            "duration": 0.2812148749999892
          },
          {
            "name": "G#3",
            "midi": 56,
            "time": 195.91302958333182,
            "velocity": 0.2755905511811024,
            "duration": 0.2812148749999892
          },
          {
            "name": "B3",
            "midi": 59,
            "time": 195.91302958333182,
            "velocity": 0.2755905511811024,
            "duration": 0.2812148749999892
          },
          {
            "name": "G#3",
            "midi": 56,
            "time": 196.28798274999846,
            "velocity": 0.25984251968503935,
            "duration": 0.2812148749999892
          },
          {
            "name": "B3",
            "midi": 59,
            "time": 196.28798274999846,
            "velocity": 0.25984251968503935,
            "duration": 0.2812148749999892
          },
          {
            "name": "G#3",
            "midi": 56,
            "time": 196.6629359166651,
            "velocity": 0.25984251968503935,
            "duration": 0.2812148749999892
          },
          {
            "name": "B3",
            "midi": 59,
            "time": 196.6629359166651,
            "velocity": 0.25984251968503935,
            "duration": 0.2812148749999892
          },
          {
            "name": "G#3",
            "midi": 56,
            "time": 197.03788908333175,
            "velocity": 0.25196850393700787,
            "duration": 0.2812148749999892
          },
          {
            "name": "B3",
            "midi": 59,
            "time": 197.03788908333175,
            "velocity": 0.25196850393700787,
            "duration": 0.2812148749999892
          },
          {
            "name": "G#3",
            "midi": 56,
            "time": 197.4128422499984,
            "velocity": 0.2440944881889764,
            "duration": 0.2812148749999892
          },
          {
            "name": "B3",
            "midi": 59,
            "time": 197.4128422499984,
            "velocity": 0.2440944881889764,
            "duration": 0.2812148749999892
          },
          {
            "name": "G#3",
            "midi": 56,
            "time": 197.78779541666503,
            "velocity": 0.23622047244094488,
            "duration": 0.2812148749999892
          },
          {
            "name": "B3",
            "midi": 59,
            "time": 197.78779541666503,
            "velocity": 0.23622047244094488,
            "duration": 0.2812148749999892
          },
          {
            "name": "G#3",
            "midi": 56,
            "time": 198.16274858333168,
            "velocity": 0.2283464566929134,
            "duration": 0.2812148749999892
          },
          {
            "name": "B3",
            "midi": 59,
            "time": 198.16274858333168,
            "velocity": 0.2283464566929134,
            "duration": 0.2812148749999892
          },
          {
            "name": "G#3",
            "midi": 56,
            "time": 198.53770174999832,
            "velocity": 0.1889763779527559,
            "duration": 0.2812148749999892
          },
          {
            "name": "B3",
            "midi": 59,
            "time": 198.53770174999832,
            "velocity": 0.2283464566929134,
            "duration": 0.2812148749999892
          },
          {
            "name": "G#3",
            "midi": 56,
            "time": 198.91265491666496,
            "velocity": 0.1889763779527559,
            "duration": 0.2812148749999892
          },
          {
            "name": "B3",
            "midi": 59,
            "time": 198.91265491666496,
            "velocity": 0.2283464566929134,
            "duration": 0.2812148749999892
          },
          {
            "name": "G#3",
            "midi": 56,
            "time": 199.2876080833316,
            "velocity": 0.1889763779527559,
            "duration": 0.2812148749999892
          },
          {
            "name": "B3",
            "midi": 59,
            "time": 199.2876080833316,
            "velocity": 0.2283464566929134,
            "duration": 0.2812148749999892
          },
          {
            "name": "G#3",
            "midi": 56,
            "time": 199.66256124999825,
            "velocity": 0.1889763779527559,
            "duration": 0.2812148749999892
          },
          {
            "name": "B3",
            "midi": 59,
            "time": 199.66256124999825,
            "velocity": 0.2283464566929134,
            "duration": 0.2812148749999892
          },
          {
            "name": "G#3",
            "midi": 56,
            "time": 200.0375144166649,
            "velocity": 0.1968503937007874,
            "duration": 0.2812148749999892
          },
          {
            "name": "B3",
            "midi": 59,
            "time": 200.0375144166649,
            "velocity": 0.23622047244094488,
            "duration": 0.2812148749999892
          },
          {
            "name": "G#3",
            "midi": 56,
            "time": 200.41246758333153,
            "velocity": 0.1968503937007874,
            "duration": 0.2812148749999892
          },
          {
            "name": "B3",
            "midi": 59,
            "time": 200.41246758333153,
            "velocity": 0.23622047244094488,
            "duration": 0.2812148749999892
          },
          {
            "name": "G#3",
            "midi": 56,
            "time": 200.78742074999818,
            "velocity": 0.1968503937007874,
            "duration": 0.2812148749999892
          },
          {
            "name": "B3",
            "midi": 59,
            "time": 200.78742074999818,
            "velocity": 0.23622047244094488,
            "duration": 0.2812148749999892
          },
          {
            "name": "G#3",
            "midi": 56,
            "time": 201.16237391666482,
            "velocity": 0.1968503937007874,
            "duration": 0.2812148749999892
          },
          {
            "name": "B3",
            "midi": 59,
            "time": 201.16237391666482,
            "velocity": 0.23622047244094488,
            "duration": 0.2812148749999892
          },
          {
            "name": "G#3",
            "midi": 56,
            "time": 201.53732708333146,
            "velocity": 0.1968503937007874,
            "duration": 0.2812148749999892
          },
          {
            "name": "B3",
            "midi": 59,
            "time": 201.53732708333146,
            "velocity": 0.23622047244094488,
            "duration": 0.2812148749999892
          },
          {
            "name": "G#3",
            "midi": 56,
            "time": 201.9122802499981,
            "velocity": 0.1968503937007874,
            "duration": 0.2812148749999892
          },
          {
            "name": "B3",
            "midi": 59,
            "time": 201.9122802499981,
            "velocity": 0.23622047244094488,
            "duration": 0.2812148749999892
          },
          {
            "name": "G#3",
            "midi": 56,
            "time": 202.28723341666475,
            "velocity": 0.1968503937007874,
            "duration": 0.2812148749999892
          },
          {
            "name": "B3",
            "midi": 59,
            "time": 202.28723341666475,
            "velocity": 0.23622047244094488,
            "duration": 0.2812148749999892
          },
          {
            "name": "G#3",
            "midi": 56,
            "time": 202.6621865833314,
            "velocity": 0.1968503937007874,
            "duration": 0.2812148749999892
          },
          {
            "name": "B3",
            "midi": 59,
            "time": 202.6621865833314,
            "velocity": 0.23622047244094488,
            "duration": 0.2812148749999892
          },
          {
            "name": "A3",
            "midi": 57,
            "time": 203.03713974999803,
            "velocity": 0.1968503937007874,
            "duration": 0.2812148749999892
          },
          {
            "name": "B3",
            "midi": 59,
            "time": 203.03713974999803,
            "velocity": 0.23622047244094488,
            "duration": 0.2812148749999892
          },
          {
            "name": "A3",
            "midi": 57,
            "time": 203.41209291666468,
            "velocity": 0.1968503937007874,
            "duration": 0.2812148749999892
          },
          {
            "name": "B3",
            "midi": 59,
            "time": 203.41209291666468,
            "velocity": 0.23622047244094488,
            "duration": 0.2812148749999892
          },
          {
            "name": "A3",
            "midi": 57,
            "time": 203.78704608333132,
            "velocity": 0.1968503937007874,
            "duration": 0.2812148749999892
          },
          {
            "name": "B3",
            "midi": 59,
            "time": 203.78704608333132,
            "velocity": 0.23622047244094488,
            "duration": 0.2812148749999892
          },
          {
            "name": "A3",
            "midi": 57,
            "time": 204.16199924999796,
            "velocity": 0.1968503937007874,
            "duration": 0.2812148749999892
          },
          {
            "name": "B3",
            "midi": 59,
            "time": 204.16199924999796,
            "velocity": 0.23622047244094488,
            "duration": 0.2812148749999892
          },
          {
            "name": "A3",
            "midi": 57,
            "time": 204.5369524166646,
            "velocity": 0.1968503937007874,
            "duration": 0.2812148749999892
          },
          {
            "name": "B3",
            "midi": 59,
            "time": 204.5369524166646,
            "velocity": 0.23622047244094488,
            "duration": 0.2812148749999892
          },
          {
            "name": "A3",
            "midi": 57,
            "time": 204.91190558333125,
            "velocity": 0.1968503937007874,
            "duration": 0.2812148749999892
          },
          {
            "name": "B3",
            "midi": 59,
            "time": 204.91190558333125,
            "velocity": 0.23622047244094488,
            "duration": 0.2812148749999892
          },
          {
            "name": "A3",
            "midi": 57,
            "time": 205.2868587499979,
            "velocity": 0.1968503937007874,
            "duration": 0.2812148749999892
          },
          {
            "name": "B3",
            "midi": 59,
            "time": 205.2868587499979,
            "velocity": 0.23622047244094488,
            "duration": 0.2812148749999892
          },
          {
            "name": "A3",
            "midi": 57,
            "time": 205.66181191666453,
            "velocity": 0.1968503937007874,
            "duration": 0.2812148749999892
          },
          {
            "name": "B3",
            "midi": 59,
            "time": 205.66181191666453,
            "velocity": 0.23622047244094488,
            "duration": 0.2812148749999892
          },
          {
            "name": "A3",
            "midi": 57,
            "time": 206.03676508333118,
            "velocity": 0.1968503937007874,
            "duration": 0.2812148749999892
          },
          {
            "name": "B3",
            "midi": 59,
            "time": 206.03676508333118,
            "velocity": 0.23622047244094488,
            "duration": 0.2812148749999892
          },
          {
            "name": "A3",
            "midi": 57,
            "time": 206.41171824999782,
            "velocity": 0.1968503937007874,
            "duration": 0.2812148749999892
          },
          {
            "name": "B3",
            "midi": 59,
            "time": 206.41171824999782,
            "velocity": 0.23622047244094488,
            "duration": 0.2812148749999892
          },
          {
            "name": "A3",
            "midi": 57,
            "time": 206.78667141666446,
            "velocity": 0.1968503937007874,
            "duration": 0.2812148749999892
          },
          {
            "name": "B3",
            "midi": 59,
            "time": 206.78667141666446,
            "velocity": 0.23622047244094488,
            "duration": 0.2812148749999892
          },
          {
            "name": "A3",
            "midi": 57,
            "time": 207.1616245833311,
            "velocity": 0.1968503937007874,
            "duration": 0.2812148749999892
          },
          {
            "name": "B3",
            "midi": 59,
            "time": 207.1616245833311,
            "velocity": 0.23622047244094488,
            "duration": 0.2812148749999892
          },
          {
            "name": "G#3",
            "midi": 56,
            "time": 207.53657774999775,
            "velocity": 0.1889763779527559,
            "duration": 0.2812148749999892
          },
          {
            "name": "B3",
            "midi": 59,
            "time": 207.53657774999775,
            "velocity": 0.2283464566929134,
            "duration": 0.2812148749999892
          },
          {
            "name": "G#3",
            "midi": 56,
            "time": 207.9115309166644,
            "velocity": 0.1889763779527559,
            "duration": 0.2812148749999892
          },
          {
            "name": "B3",
            "midi": 59,
            "time": 207.9115309166644,
            "velocity": 0.2283464566929134,
            "duration": 0.2812148749999892
          },
          {
            "name": "G#3",
            "midi": 56,
            "time": 208.28648408333103,
            "velocity": 0.1889763779527559,
            "duration": 0.2812148749999892
          },
          {
            "name": "B3",
            "midi": 59,
            "time": 208.28648408333103,
            "velocity": 0.2283464566929134,
            "duration": 0.2812148749999892
          },
          {
            "name": "G#3",
            "midi": 56,
            "time": 208.66143724999768,
            "velocity": 0.1889763779527559,
            "duration": 0.2812148749999892
          },
          {
            "name": "B3",
            "midi": 59,
            "time": 208.66143724999768,
            "velocity": 0.2283464566929134,
            "duration": 0.2812148749999892
          },
          {
            "name": "G#3",
            "midi": 56,
            "time": 209.03639041666432,
            "velocity": 0.1968503937007874,
            "duration": 0.2812148749999892
          },
          {
            "name": "B3",
            "midi": 59,
            "time": 209.03639041666432,
            "velocity": 0.23622047244094488,
            "duration": 0.2812148749999892
          },
          {
            "name": "G#3",
            "midi": 56,
            "time": 209.41134358333096,
            "velocity": 0.1968503937007874,
            "duration": 0.2812148749999892
          },
          {
            "name": "B3",
            "midi": 59,
            "time": 209.41134358333096,
            "velocity": 0.23622047244094488,
            "duration": 0.2812148749999892
          },
          {
            "name": "G#3",
            "midi": 56,
            "time": 209.7862967499976,
            "velocity": 0.1968503937007874,
            "duration": 0.2812148749999892
          },
          {
            "name": "B3",
            "midi": 59,
            "time": 209.7862967499976,
            "velocity": 0.23622047244094488,
            "duration": 0.2812148749999892
          },
          {
            "name": "G#3",
            "midi": 56,
            "time": 210.16124991666425,
            "velocity": 0.1968503937007874,
            "duration": 0.2812148749999892
          },
          {
            "name": "B3",
            "midi": 59,
            "time": 210.16124991666425,
            "velocity": 0.23622047244094488,
            "duration": 0.2812148749999892
          },
          {
            "name": "G#3",
            "midi": 56,
            "time": 210.5362030833309,
            "velocity": 0.1968503937007874,
            "duration": 0.2812148749999892
          },
          {
            "name": "B3",
            "midi": 59,
            "time": 210.5362030833309,
            "velocity": 0.23622047244094488,
            "duration": 0.2812148749999892
          },
          {
            "name": "G#3",
            "midi": 56,
            "time": 210.91115624999753,
            "velocity": 0.1968503937007874,
            "duration": 0.2812148749999892
          },
          {
            "name": "B3",
            "midi": 59,
            "time": 210.91115624999753,
            "velocity": 0.23622047244094488,
            "duration": 0.2812148749999892
          },
          {
            "name": "G#3",
            "midi": 56,
            "time": 211.28610941666417,
            "velocity": 0.1968503937007874,
            "duration": 0.2812148749999892
          },
          {
            "name": "B3",
            "midi": 59,
            "time": 211.28610941666417,
            "velocity": 0.23622047244094488,
            "duration": 0.2812148749999892
          },
          {
            "name": "G#3",
            "midi": 56,
            "time": 211.66106258333082,
            "velocity": 0.1968503937007874,
            "duration": 0.2812148749999892
          },
          {
            "name": "B3",
            "midi": 59,
            "time": 211.66106258333082,
            "velocity": 0.23622047244094488,
            "duration": 0.2812148749999892
          },
          {
            "name": "D3",
            "midi": 50,
            "time": 212.03601574999746,
            "velocity": 0.1889763779527559,
            "duration": 0.2812148749999892
          },
          {
            "name": "G#3",
            "midi": 56,
            "time": 212.03601574999746,
            "velocity": 0.1889763779527559,
            "duration": 0.2812148749999892
          },
          {
            "name": "B3",
            "midi": 59,
            "time": 212.03601574999746,
            "velocity": 0.2283464566929134,
            "duration": 0.2812148749999892
          },
          {
            "name": "D3",
            "midi": 50,
            "time": 212.4109689166641,
            "velocity": 0.1889763779527559,
            "duration": 0.2812148749999892
          },
          {
            "name": "G#3",
            "midi": 56,
            "time": 212.4109689166641,
            "velocity": 0.1889763779527559,
            "duration": 0.2812148749999892
          },
          {
            "name": "B3",
            "midi": 59,
            "time": 212.4109689166641,
            "velocity": 0.2283464566929134,
            "duration": 0.2812148749999892
          },
          {
            "name": "D3",
            "midi": 50,
            "time": 212.78592208333075,
            "velocity": 0.1889763779527559,
            "duration": 0.2812148749999892
          },
          {
            "name": "G#3",
            "midi": 56,
            "time": 212.78592208333075,
            "velocity": 0.1889763779527559,
            "duration": 0.2812148749999892
          },
          {
            "name": "B3",
            "midi": 59,
            "time": 212.78592208333075,
            "velocity": 0.2283464566929134,
            "duration": 0.2812148749999892
          },
          {
            "name": "D3",
            "midi": 50,
            "time": 213.1608752499974,
            "velocity": 0.1889763779527559,
            "duration": 0.2812148749999892
          },
          {
            "name": "G#3",
            "midi": 56,
            "time": 213.1608752499974,
            "velocity": 0.1889763779527559,
            "duration": 0.2812148749999892
          },
          {
            "name": "B3",
            "midi": 59,
            "time": 213.1608752499974,
            "velocity": 0.2283464566929134,
            "duration": 0.2812148749999892
          },
          {
            "name": "D3",
            "midi": 50,
            "time": 213.53582841666403,
            "velocity": 0.1889763779527559,
            "duration": 0.2812148749999892
          },
          {
            "name": "G#3",
            "midi": 56,
            "time": 213.53582841666403,
            "velocity": 0.1968503937007874,
            "duration": 0.2812148749999892
          },
          {
            "name": "B3",
            "midi": 59,
            "time": 213.53582841666403,
            "velocity": 0.23622047244094488,
            "duration": 0.2812148749999892
          },
          {
            "name": "D3",
            "midi": 50,
            "time": 213.91078158333067,
            "velocity": 0.1889763779527559,
            "duration": 0.2812148749999892
          },
          {
            "name": "G#3",
            "midi": 56,
            "time": 213.91078158333067,
            "velocity": 0.1968503937007874,
            "duration": 0.2812148749999892
          },
          {
            "name": "B3",
            "midi": 59,
            "time": 213.91078158333067,
            "velocity": 0.23622047244094488,
            "duration": 0.2812148749999892
          },
          {
            "name": "D3",
            "midi": 50,
            "time": 214.28573474999732,
            "velocity": 0.1889763779527559,
            "duration": 0.2812148749999892
          },
          {
            "name": "G#3",
            "midi": 56,
            "time": 214.28573474999732,
            "velocity": 0.1968503937007874,
            "duration": 0.2812148749999892
          },
          {
            "name": "B3",
            "midi": 59,
            "time": 214.28573474999732,
            "velocity": 0.23622047244094488,
            "duration": 0.2812148749999892
          },
          {
            "name": "D3",
            "midi": 50,
            "time": 214.66068791666396,
            "velocity": 0.1889763779527559,
            "duration": 0.2812148749999892
          },
          {
            "name": "G#3",
            "midi": 56,
            "time": 214.66068791666396,
            "velocity": 0.1968503937007874,
            "duration": 0.2812148749999892
          },
          {
            "name": "B3",
            "midi": 59,
            "time": 214.66068791666396,
            "velocity": 0.23622047244094488,
            "duration": 0.2812148749999892
          },
          {
            "name": "D3",
            "midi": 50,
            "time": 215.0356410833306,
            "velocity": 0.1889763779527559,
            "duration": 0.2812148749999892
          },
          {
            "name": "G#3",
            "midi": 56,
            "time": 215.0356410833306,
            "velocity": 0.1968503937007874,
            "duration": 0.2812148749999892
          },
          {
            "name": "B3",
            "midi": 59,
            "time": 215.0356410833306,
            "velocity": 0.23622047244094488,
            "duration": 0.2812148749999892
          },
          {
            "name": "D3",
            "midi": 50,
            "time": 215.41059424999725,
            "velocity": 0.1889763779527559,
            "duration": 0.2812148749999892
          },
          {
            "name": "G#3",
            "midi": 56,
            "time": 215.41059424999725,
            "velocity": 0.1968503937007874,
            "duration": 0.2812148749999892
          },
          {
            "name": "B3",
            "midi": 59,
            "time": 215.41059424999725,
            "velocity": 0.23622047244094488,
            "duration": 0.2812148749999892
          },
          {
            "name": "D3",
            "midi": 50,
            "time": 215.7855474166639,
            "velocity": 0.1889763779527559,
            "duration": 0.2812148749999892
          },
          {
            "name": "G#3",
            "midi": 56,
            "time": 215.7855474166639,
            "velocity": 0.1968503937007874,
            "duration": 0.2812148749999892
          },
          {
            "name": "B3",
            "midi": 59,
            "time": 215.7855474166639,
            "velocity": 0.23622047244094488,
            "duration": 0.2812148749999892
          },
          {
            "name": "D3",
            "midi": 50,
            "time": 216.16050058333053,
            "velocity": 0.1889763779527559,
            "duration": 0.2812148749999892
          },
          {
            "name": "G#3",
            "midi": 56,
            "time": 216.16050058333053,
            "velocity": 0.1968503937007874,
            "duration": 0.2812148749999892
          },
          {
            "name": "B3",
            "midi": 59,
            "time": 216.16050058333053,
            "velocity": 0.23622047244094488,
            "duration": 0.2812148749999892
          },
          {
            "name": "D3",
            "midi": 50,
            "time": 216.53545374999717,
            "velocity": 0.1968503937007874,
            "duration": 0.2812148749999892
          },
          {
            "name": "G#3",
            "midi": 56,
            "time": 216.53545374999717,
            "velocity": 0.1968503937007874,
            "duration": 0.2812148749999892
          },
          {
            "name": "B3",
            "midi": 59,
            "time": 216.53545374999717,
            "velocity": 0.23622047244094488,
            "duration": 0.2812148749999892
          },
          {
            "name": "D3",
            "midi": 50,
            "time": 216.91040691666382,
            "velocity": 0.1968503937007874,
            "duration": 0.2812148749999892
          },
          {
            "name": "G#3",
            "midi": 56,
            "time": 216.91040691666382,
            "velocity": 0.1968503937007874,
            "duration": 0.2812148749999892
          },
          {
            "name": "B3",
            "midi": 59,
            "time": 216.91040691666382,
            "velocity": 0.23622047244094488,
            "duration": 0.2812148749999892
          },
          {
            "name": "D3",
            "midi": 50,
            "time": 217.28536008333046,
            "velocity": 0.1968503937007874,
            "duration": 0.2812148749999892
          },
          {
            "name": "G#3",
            "midi": 56,
            "time": 217.28536008333046,
            "velocity": 0.1968503937007874,
            "duration": 0.2812148749999892
          },
          {
            "name": "B3",
            "midi": 59,
            "time": 217.28536008333046,
            "velocity": 0.23622047244094488,
            "duration": 0.2812148749999892
          },
          {
            "name": "D3",
            "midi": 50,
            "time": 217.6603132499971,
            "velocity": 0.1968503937007874,
            "duration": 0.2812148749999892
          },
          {
            "name": "G#3",
            "midi": 56,
            "time": 217.6603132499971,
            "velocity": 0.1968503937007874,
            "duration": 0.2812148749999892
          },
          {
            "name": "B3",
            "midi": 59,
            "time": 217.6603132499971,
            "velocity": 0.23622047244094488,
            "duration": 0.2812148749999892
          },
          {
            "name": "D3",
            "midi": 50,
            "time": 218.03526641666375,
            "velocity": 0.1968503937007874,
            "duration": 0.2812148749999892
          },
          {
            "name": "G#3",
            "midi": 56,
            "time": 218.03526641666375,
            "velocity": 0.2047244094488189,
            "duration": 0.2812148749999892
          },
          {
            "name": "B3",
            "midi": 59,
            "time": 218.03526641666375,
            "velocity": 0.2440944881889764,
            "duration": 0.2812148749999892
          },
          {
            "name": "D3",
            "midi": 50,
            "time": 218.4102195833304,
            "velocity": 0.1968503937007874,
            "duration": 0.2812148749999892
          },
          {
            "name": "G#3",
            "midi": 56,
            "time": 218.4102195833304,
            "velocity": 0.2047244094488189,
            "duration": 0.2812148749999892
          },
          {
            "name": "B3",
            "midi": 59,
            "time": 218.4102195833304,
            "velocity": 0.2440944881889764,
            "duration": 0.2812148749999892
          },
          {
            "name": "D3",
            "midi": 50,
            "time": 218.78517274999703,
            "velocity": 0.1968503937007874,
            "duration": 0.2812148749999892
          },
          {
            "name": "G#3",
            "midi": 56,
            "time": 218.78517274999703,
            "velocity": 0.2047244094488189,
            "duration": 0.2812148749999892
          },
          {
            "name": "B3",
            "midi": 59,
            "time": 218.78517274999703,
            "velocity": 0.2440944881889764,
            "duration": 0.2812148749999892
          },
          {
            "name": "D3",
            "midi": 50,
            "time": 219.16012591666367,
            "velocity": 0.1968503937007874,
            "duration": 0.2812148749999892
          },
          {
            "name": "G#3",
            "midi": 56,
            "time": 219.16012591666367,
            "velocity": 0.2047244094488189,
            "duration": 0.2812148749999892
          },
          {
            "name": "B3",
            "midi": 59,
            "time": 219.16012591666367,
            "velocity": 0.2440944881889764,
            "duration": 0.2812148749999892
          },
          {
            "name": "D3",
            "midi": 50,
            "time": 219.53507908333032,
            "velocity": 0.1968503937007874,
            "duration": 0.2812148749999892
          },
          {
            "name": "G#3",
            "midi": 56,
            "time": 219.53507908333032,
            "velocity": 0.2047244094488189,
            "duration": 0.2812148749999892
          },
          {
            "name": "B3",
            "midi": 59,
            "time": 219.53507908333032,
            "velocity": 0.2440944881889764,
            "duration": 0.2812148749999892
          },
          {
            "name": "D3",
            "midi": 50,
            "time": 219.91003224999696,
            "velocity": 0.1968503937007874,
            "duration": 0.2812148749999892
          },
          {
            "name": "G#3",
            "midi": 56,
            "time": 219.91003224999696,
            "velocity": 0.2047244094488189,
            "duration": 0.2812148749999892
          },
          {
            "name": "B3",
            "midi": 59,
            "time": 219.91003224999696,
            "velocity": 0.2440944881889764,
            "duration": 0.2812148749999892
          },
          {
            "name": "D3",
            "midi": 50,
            "time": 220.2849854166636,
            "velocity": 0.1968503937007874,
            "duration": 0.2812148749999892
          },
          {
            "name": "G#3",
            "midi": 56,
            "time": 220.2849854166636,
            "velocity": 0.2047244094488189,
            "duration": 0.2812148749999892
          },
          {
            "name": "B3",
            "midi": 59,
            "time": 220.2849854166636,
            "velocity": 0.2440944881889764,
            "duration": 0.2812148749999892
          },
          {
            "name": "D3",
            "midi": 50,
            "time": 220.65993858333024,
            "velocity": 0.1968503937007874,
            "duration": 0.2812148749999892
          },
          {
            "name": "G#3",
            "midi": 56,
            "time": 220.65993858333024,
            "velocity": 0.2047244094488189,
            "duration": 0.2812148749999892
          },
          {
            "name": "B3",
            "midi": 59,
            "time": 220.65993858333024,
            "velocity": 0.2440944881889764,
            "duration": 0.2812148749999892
          },
          {
            "name": "C#3",
            "midi": 49,
            "time": 221.0348917499969,
            "velocity": 0.2047244094488189,
            "duration": 0.2812148749999892
          },
          {
            "name": "G#3",
            "midi": 56,
            "time": 221.0348917499969,
            "velocity": 0.2047244094488189,
            "duration": 0.2812148749999892
          },
          {
            "name": "A#3",
            "midi": 58,
            "time": 221.0348917499969,
            "velocity": 0.2440944881889764,
            "duration": 0.2812148749999892
          },
          {
            "name": "C#3",
            "midi": 49,
            "time": 221.40984491666353,
            "velocity": 0.2047244094488189,
            "duration": 0.2812148749999892
          },
          {
            "name": "G#3",
            "midi": 56,
            "time": 221.40984491666353,
            "velocity": 0.2047244094488189,
            "duration": 0.2812148749999892
          },
          {
            "name": "A#3",
            "midi": 58,
            "time": 221.40984491666353,
            "velocity": 0.2440944881889764,
            "duration": 0.2812148749999892
          },
          {
            "name": "C#3",
            "midi": 49,
            "time": 221.78479808333017,
            "velocity": 0.2047244094488189,
            "duration": 0.2812148749999892
          },
          {
            "name": "G#3",
            "midi": 56,
            "time": 221.78479808333017,
            "velocity": 0.2047244094488189,
            "duration": 0.2812148749999892
          },
          {
            "name": "A#3",
            "midi": 58,
            "time": 221.78479808333017,
            "velocity": 0.25196850393700787,
            "duration": 0.2812148749999892
          },
          {
            "name": "C#3",
            "midi": 49,
            "time": 222.15975124999682,
            "velocity": 0.2047244094488189,
            "duration": 0.2812148749999892
          },
          {
            "name": "G#3",
            "midi": 56,
            "time": 222.15975124999682,
            "velocity": 0.2047244094488189,
            "duration": 0.2812148749999892
          },
          {
            "name": "A#3",
            "midi": 58,
            "time": 222.15975124999682,
            "velocity": 0.25196850393700787,
            "duration": 0.2812148749999892
          },
          {
            "name": "C#3",
            "midi": 49,
            "time": 222.53470441666346,
            "velocity": 0.2125984251968504,
            "duration": 0.2812148749999892
          },
          {
            "name": "G#3",
            "midi": 56,
            "time": 222.53470441666346,
            "velocity": 0.2204724409448819,
            "duration": 0.2812148749999892
          },
          {
            "name": "A#3",
            "midi": 58,
            "time": 222.53470441666346,
            "velocity": 0.25984251968503935,
            "duration": 0.2812148749999892
          },
          {
            "name": "C#3",
            "midi": 49,
            "time": 222.9096575833301,
            "velocity": 0.2125984251968504,
            "duration": 0.2812148749999892
          },
          {
            "name": "G#3",
            "midi": 56,
            "time": 222.9096575833301,
            "velocity": 0.2204724409448819,
            "duration": 0.2812148749999892
          },
          {
            "name": "A#3",
            "midi": 58,
            "time": 222.9096575833301,
            "velocity": 0.2677165354330709,
            "duration": 0.2812148749999892
          },
          {
            "name": "C#3",
            "midi": 49,
            "time": 223.28461074999674,
            "velocity": 0.2125984251968504,
            "duration": 0.2812148749999892
          },
          {
            "name": "G3",
            "midi": 55,
            "time": 223.28461074999674,
            "velocity": 0.2204724409448819,
            "duration": 0.2812148749999892
          },
          {
            "name": "A#3",
            "midi": 58,
            "time": 223.28461074999674,
            "velocity": 0.2677165354330709,
            "duration": 0.2812148749999892
          },
          {
            "name": "C#3",
            "midi": 49,
            "time": 223.6595639166634,
            "velocity": 0.2125984251968504,
            "duration": 0.2812148749999892
          },
          {
            "name": "G3",
            "midi": 55,
            "time": 223.6595639166634,
            "velocity": 0.2204724409448819,
            "duration": 0.2812148749999892
          },
          {
            "name": "A#3",
            "midi": 58,
            "time": 223.6595639166634,
            "velocity": 0.2677165354330709,
            "duration": 0.2812148749999892
          },
          {
            "name": "C#3",
            "midi": 49,
            "time": 224.03451708333003,
            "velocity": 0.2125984251968504,
            "duration": 0.2812148749999892
          },
          {
            "name": "G3",
            "midi": 55,
            "time": 224.03451708333003,
            "velocity": 0.2283464566929134,
            "duration": 0.2812148749999892
          },
          {
            "name": "A#3",
            "midi": 58,
            "time": 224.03451708333003,
            "velocity": 0.2677165354330709,
            "duration": 0.2812148749999892
          },
          {
            "name": "D#3",
            "midi": 51,
            "time": 224.40947024999667,
            "velocity": 0.2204724409448819,
            "duration": 0.2812148749999892
          },
          {
            "name": "C#3",
            "midi": 49,
            "time": 224.40947024999667,
            "velocity": 0.18110236220472442,
            "duration": 0.2812148749999892
          },
          {
            "name": "G3",
            "midi": 55,
            "time": 224.40947024999667,
            "velocity": 0.2283464566929134,
            "duration": 0.2812148749999892
          },
          {
            "name": "A#3",
            "midi": 58,
            "time": 224.40947024999667,
            "velocity": 0.2755905511811024,
            "duration": 0.2812148749999892
          },
          {
            "name": "D#3",
            "midi": 51,
            "time": 224.78442341666332,
            "velocity": 0.2204724409448819,
            "duration": 0.2812148749999892
          },
          {
            "name": "C#3",
            "midi": 49,
            "time": 224.78442341666332,
            "velocity": 0.18110236220472442,
            "duration": 0.2812148749999892
          },
          {
            "name": "G3",
            "midi": 55,
            "time": 224.78442341666332,
            "velocity": 0.2283464566929134,
            "duration": 0.2812148749999892
          },
          {
            "name": "A#3",
            "midi": 58,
            "time": 224.78442341666332,
            "velocity": 0.2755905511811024,
            "duration": 0.2812148749999892
          },
          {
            "name": "D#3",
            "midi": 51,
            "time": 225.15937658332996,
            "velocity": 0.2204724409448819,
            "duration": 0.2812148749999892
          },
          {
            "name": "C#3",
            "midi": 49,
            "time": 225.15937658332996,
            "velocity": 0.18110236220472442,
            "duration": 0.2812148749999892
          },
          {
            "name": "G3",
            "midi": 55,
            "time": 225.15937658332996,
            "velocity": 0.2283464566929134,
            "duration": 0.2812148749999892
          },
          {
            "name": "A#3",
            "midi": 58,
            "time": 225.15937658332996,
            "velocity": 0.2755905511811024,
            "duration": 0.2812148749999892
          },
          {
            "name": "C4",
            "midi": 60,
            "time": 261.5298337499966,
            "velocity": 0.2204724409448819,
            "duration": 0.3749531666666712
          },
          {
            "name": "D#4",
            "midi": 63,
            "time": 261.9047869166633,
            "velocity": 0.2047244094488189,
            "duration": 0.2812148749999892
          },
          {
            "name": "D#4",
            "midi": 63,
            "time": 262.27974008332995,
            "velocity": 0.2047244094488189,
            "duration": 0.2812148749999892
          },
          {
            "name": "C4",
            "midi": 60,
            "time": 262.6546932499966,
            "velocity": 0.2047244094488189,
            "duration": 0.3749531666666712
          },
          {
            "name": "D#4",
            "midi": 63,
            "time": 263.0296464166633,
            "velocity": 0.2047244094488189,
            "duration": 0.2812148749999892
          },
          {
            "name": "D#4",
            "midi": 63,
            "time": 263.40459958332997,
            "velocity": 0.2047244094488189,
            "duration": 0.2812148749999892
          },
          {
            "name": "A#3",
            "midi": 58,
            "time": 263.77955274999664,
            "velocity": 0.2204724409448819,
            "duration": 0.3749531666666712
          },
          {
            "name": "D#4",
            "midi": 63,
            "time": 264.1545059166633,
            "velocity": 0.2047244094488189,
            "duration": 0.2812148749999892
          },
          {
            "name": "D#4",
            "midi": 63,
            "time": 264.52945908333,
            "velocity": 0.2047244094488189,
            "duration": 0.2812148749999892
          },
          {
            "name": "A#3",
            "midi": 58,
            "time": 264.90441224999665,
            "velocity": 0.2047244094488189,
            "duration": 0.3749531666666712
          },
          {
            "name": "D#4",
            "midi": 63,
            "time": 265.2793654166633,
            "velocity": 0.2047244094488189,
            "duration": 0.2812148749999892
          },
          {
            "name": "D#4",
            "midi": 63,
            "time": 265.65431858333,
            "velocity": 0.2047244094488189,
            "duration": 0.2812148749999892
          },
          {
            "name": "D#4",
            "midi": 63,
            "time": 266.02927174999667,
            "velocity": 0.2204724409448819,
            "duration": 0.3749531666666712
          },
          {
            "name": "G#4",
            "midi": 68,
            "time": 266.40422491666334,
            "velocity": 0.2047244094488189,
            "duration": 0.2812148749999892
          },
          {
            "name": "G#4",
            "midi": 68,
            "time": 266.77917808333,
            "velocity": 0.2047244094488189,
            "duration": 0.2812148749999892
          },
          {
            "name": "D#4",
            "midi": 63,
            "time": 267.1541312499967,
            "velocity": 0.1968503937007874,
            "duration": 0.3749531666666712
          },
          {
            "name": "G#4",
            "midi": 68,
            "time": 267.52908441666335,
            "velocity": 0.1968503937007874,
            "duration": 0.2812148749999892
          },
          {
            "name": "G#4",
            "midi": 68,
            "time": 267.90403758333,
            "velocity": 0.1968503937007874,
            "duration": 0.2812148749999892
          },
          {
            "name": "D#4",
            "midi": 63,
            "time": 268.2789907499967,
            "velocity": 0.2204724409448819,
            "duration": 0.3749531666666712
          },
          {
            "name": "A#4",
            "midi": 70,
            "time": 268.65394391666337,
            "velocity": 0.2047244094488189,
            "duration": 0.2812148749999892
          },
          {
            "name": "A#4",
            "midi": 70,
            "time": 269.02889708333004,
            "velocity": 0.2047244094488189,
            "duration": 0.2812148749999892
          },
          {
            "name": "D#4",
            "midi": 63,
            "time": 269.4038502499967,
            "velocity": 0.1968503937007874,
            "duration": 0.3749531666666712
          },
          {
            "name": "A#4",
            "midi": 70,
            "time": 269.7788034166634,
            "velocity": 0.1968503937007874,
            "duration": 0.2812148749999892
          },
          {
            "name": "A#4",
            "midi": 70,
            "time": 270.15375658333005,
            "velocity": 0.1968503937007874,
            "duration": 0.2812148749999892
          },
          {
            "name": "D#4",
            "midi": 63,
            "time": 270.5287097499967,
            "velocity": 0.2283464566929134,
            "duration": 0.3749531666666712
          },
          {
            "name": "G#4",
            "midi": 68,
            "time": 270.9036629166634,
            "velocity": 0.2125984251968504,
            "duration": 0.2812148749999892
          },
          {
            "name": "G#4",
            "midi": 68,
            "time": 271.27861608333006,
            "velocity": 0.2047244094488189,
            "duration": 0.2812148749999892
          },
          {
            "name": "D#4",
            "midi": 63,
            "time": 271.65356924999674,
            "velocity": 0.2047244094488189,
            "duration": 0.3749531666666712
          },
          {
            "name": "A#4",
            "midi": 70,
            "time": 272.0285224166634,
            "velocity": 0.2047244094488189,
            "duration": 0.2812148749999892
          },
          {
            "name": "A#4",
            "midi": 70,
            "time": 272.4034755833301,
            "velocity": 0.2047244094488189,
            "duration": 0.2812148749999892
          },
          {
            "name": "G#4",
            "midi": 68,
            "time": 272.77842874999675,
            "velocity": 0.23622047244094488,
            "duration": 0.3749531666666712
          },
          {
            "name": "C5",
            "midi": 72,
            "time": 273.1533819166634,
            "velocity": 0.2204724409448819,
            "duration": 0.2812148749999892
          },
          {
            "name": "C5",
            "midi": 72,
            "time": 273.5283350833301,
            "velocity": 0.2204724409448819,
            "duration": 0.2812148749999892
          },
          {
            "name": "G#4",
            "midi": 68,
            "time": 273.90328824999676,
            "velocity": 0.2125984251968504,
            "duration": 0.3749531666666712
          },
          {
            "name": "D5",
            "midi": 74,
            "time": 274.27824141666343,
            "velocity": 0.2125984251968504,
            "duration": 0.2812148749999892
          },
          {
            "name": "D5",
            "midi": 74,
            "time": 274.6531945833301,
            "velocity": 0.2125984251968504,
            "duration": 0.2812148749999892
          },
          {
            "name": "G4",
            "midi": 67,
            "time": 275.0281477499968,
            "velocity": 0.23622047244094488,
            "duration": 0.3749531666666712
          },
          {
            "name": "A#4",
            "midi": 70,
            "time": 275.40310091666345,
            "velocity": 0.2204724409448819,
            "duration": 0.2812148749999892
          },
          {
            "name": "A#4",
            "midi": 70,
            "time": 275.7780540833301,
            "velocity": 0.2204724409448819,
            "duration": 0.2812148749999892
          },
          {
            "name": "G4",
            "midi": 67,
            "time": 276.1530072499968,
            "velocity": 0.2125984251968504,
            "duration": 0.3749531666666712
          },
          {
            "name": "A#4",
            "midi": 70,
            "time": 276.52796041666346,
            "velocity": 0.18110236220472442,
            "duration": 0.2812148749999892
          },
          {
            "name": "A#4",
            "midi": 70,
            "time": 276.90291358333013,
            "velocity": 0.18110236220472442,
            "duration": 0.2812148749999892
          },
          {
            "name": "G4",
            "midi": 67,
            "time": 277.2778667499968,
            "velocity": 0.25196850393700787,
            "duration": 0.3749531666666712
          },
          {
            "name": "A#4",
            "midi": 70,
            "time": 277.6528199166635,
            "velocity": 0.2204724409448819,
            "duration": 0.2812148749999892
          },
          {
            "name": "A#4",
            "midi": 70,
            "time": 278.02777308333015,
            "velocity": 0.2204724409448819,
            "duration": 0.2812148749999892
          },
          {
            "name": "G4",
            "midi": 67,
            "time": 278.4027262499968,
            "velocity": 0.25984251968503935,
            "duration": 0.3749531666666712
          },
          {
            "name": "A#4",
            "midi": 70,
            "time": 278.7776794166635,
            "velocity": 0.2283464566929134,
            "duration": 0.2812148749999892
          },
          {
            "name": "A#4",
            "midi": 70,
            "time": 279.15263258333016,
            "velocity": 0.2204724409448819,
            "duration": 0.2812148749999892
          },
          {
            "name": "G4",
            "midi": 67,
            "time": 279.52758574999683,
            "velocity": 0.2755905511811024,
            "duration": 0.3749531666666712
          },
          {
            "name": "A#4",
            "midi": 70,
            "time": 279.9025389166635,
            "velocity": 0.2204724409448819,
            "duration": 0.2812148749999892
          },
          {
            "name": "A#4",
            "midi": 70,
            "time": 280.2774920833302,
            "velocity": 0.2204724409448819,
            "duration": 0.2812148749999892
          },
          {
            "name": "G4",
            "midi": 67,
            "time": 280.65244524999684,
            "velocity": 0.25196850393700787,
            "duration": 0.3749531666666712
          },
          {
            "name": "A#4",
            "midi": 70,
            "time": 281.0273984166635,
            "velocity": 0.2047244094488189,
            "duration": 0.2812148749999892
          },
          {
            "name": "A#4",
            "midi": 70,
            "time": 281.4023515833302,
            "velocity": 0.2047244094488189,
            "duration": 0.27652796041667216
          },
          {
            "name": "G4",
            "midi": 67,
            "time": 281.77730474999686,
            "velocity": 0.2677165354330709,
            "duration": 0.3749531666666712
          },
          {
            "name": "D#4",
            "midi": 63,
            "time": 282.15225791666353,
            "velocity": 0.2125984251968504,
            "duration": 0.2812148749999892
          },
          {
            "name": "D#4",
            "midi": 63,
            "time": 282.5272110833302,
            "velocity": 0.2125984251968504,
            "duration": 0.2812148749999892
          },
          {
            "name": "G4",
            "midi": 67,
            "time": 282.9021642499969,
            "velocity": 0.25984251968503935,
            "duration": 0.3749531666666712
          },
          {
            "name": "D#4",
            "midi": 63,
            "time": 283.27711741666354,
            "velocity": 0.2125984251968504,
            "duration": 0.2812148749999892
          },
          {
            "name": "D#4",
            "midi": 63,
            "time": 283.6520705833302,
            "velocity": 0.1968503937007874,
            "duration": 0.2812148749999892
          },
          {
            "name": "G#4",
            "midi": 68,
            "time": 284.0270237499969,
            "velocity": 0.23622047244094488,
            "duration": 0.3749531666666712
          },
          {
            "name": "D#4",
            "midi": 63,
            "time": 284.40197691666356,
            "velocity": 0.2204724409448819,
            "duration": 0.2812148749999892
          },
          {
            "name": "D#4",
            "midi": 63,
            "time": 284.7769300833302,
            "velocity": 0.2204724409448819,
            "duration": 0.2812148749999892
          },
          {
            "name": "G#4",
            "midi": 68,
            "time": 285.1518832499969,
            "velocity": 0.2125984251968504,
            "duration": 0.3749531666666712
          },
          {
            "name": "D#4",
            "midi": 63,
            "time": 285.52683641666357,
            "velocity": 0.18110236220472442,
            "duration": 0.2812148749999892
          },
          {
            "name": "D#4",
            "midi": 63,
            "time": 285.90178958333024,
            "velocity": 0.18110236220472442,
            "duration": 0.2812148749999892
          },
          {
            "name": "D#4",
            "midi": 63,
            "time": 286.2767427499969,
            "velocity": 0.2204724409448819,
            "duration": 0.3749531666666712
          },
          {
            "name": "C4",
            "midi": 60,
            "time": 286.6516959166636,
            "velocity": 0.2047244094488189,
            "duration": 0.2812148749999892
          },
          {
            "name": "C4",
            "midi": 60,
            "time": 287.02664908333026,
            "velocity": 0.2047244094488189,
            "duration": 0.2812148749999892
          },
          {
            "name": "D#4",
            "midi": 63,
            "time": 287.4016022499969,
            "velocity": 0.2204724409448819,
            "duration": 0.3749531666666712
          },
          {
            "name": "C4",
            "midi": 60,
            "time": 287.7765554166636,
            "velocity": 0.1968503937007874,
            "duration": 0.2812148749999892
          },
          {
            "name": "C4",
            "midi": 60,
            "time": 288.15150858333027,
            "velocity": 0.1968503937007874,
            "duration": 0.2812148749999892
          },
          {
            "name": "F4",
            "midi": 65,
            "time": 288.52646174999694,
            "velocity": 0.2283464566929134,
            "duration": 0.3749531666666712
          },
          {
            "name": "C#4",
            "midi": 61,
            "time": 288.9014149166636,
            "velocity": 0.2204724409448819,
            "duration": 0.2812148749999892
          },
          {
            "name": "C#4",
            "midi": 61,
            "time": 289.2763680833303,
            "velocity": 0.2125984251968504,
            "duration": 0.2812148749999892
          },
          {
            "name": "F4",
            "midi": 65,
            "time": 289.65132124999695,
            "velocity": 0.2125984251968504,
            "duration": 0.3749531666666712
          },
          {
            "name": "C#4",
            "midi": 61,
            "time": 290.0262744166636,
            "velocity": 0.2125984251968504,
            "duration": 0.2812148749999892
          },
          {
            "name": "C#4",
            "midi": 61,
            "time": 290.4012275833303,
            "velocity": 0.2125984251968504,
            "duration": 0.2812148749999892
          },
          {
            "name": "G4",
            "midi": 67,
            "time": 290.77618074999697,
            "velocity": 0.23622047244094488,
            "duration": 0.3749531666666712
          },
          {
            "name": "C#4",
            "midi": 61,
            "time": 291.15113391666364,
            "velocity": 0.2204724409448819,
            "duration": 0.2812148749999892
          },
          {
            "name": "C#4",
            "midi": 61,
            "time": 291.5260870833303,
            "velocity": 0.2204724409448819,
            "duration": 0.2812148749999892
          },
          {
            "name": "C#4",
            "midi": 61,
            "time": 291.901040249997,
            "velocity": 0.2204724409448819,
            "duration": 0.2812148749999892
          },
          {
            "name": "C#4",
            "midi": 61,
            "time": 292.27599341666365,
            "velocity": 0.2204724409448819,
            "duration": 0.2812148749999892
          },
          {
            "name": "C#4",
            "midi": 61,
            "time": 292.6509465833303,
            "velocity": 0.2204724409448819,
            "duration": 0.2812148749999892
          }
        ],
        "controlChanges": {
          "7": [
            {
              "number": 7,
              "time": 0,
              "value": 0.7874015748031497
            }
          ],
          "10": [
            {
              "number": 10,
              "time": 0,
              "value": 0.5039370078740157
            }
          ]
        },
        "id": 2,
        "name": "Accompaniment right",
        "instrumentNumber": 1,
        "instrument": "bright acoustic piano",
        "instrumentFamily": "piano",
        "channelNumber": 0,
        "isPercussion": false
      },
      {
        "startTime": 0,
        "duration": 329.02140374999965,
        "length": 212,
        "notes": [
          {
            "name": "G#2",
            "midi": 44,
            "time": 0,
            "velocity": 0.31496062992125984,
            "duration": 2.2497190000000002
          },
          {
            "name": "C#3",
            "midi": 49,
            "time": 2.2497190000000002,
            "velocity": 0.2755905511811024,
            "duration": 2.2497190000000002
          },
          {
            "name": "C3",
            "midi": 48,
            "time": 4.4994380000000005,
            "velocity": 0.31496062992125984,
            "duration": 2.249719
          },
          {
            "name": "G2",
            "midi": 43,
            "time": 6.749157,
            "velocity": 0.29133858267716534,
            "duration": 2.2497190000000007
          },
          {
            "name": "G#2",
            "midi": 44,
            "time": 8.998876000000001,
            "velocity": 0.25984251968503935,
            "duration": 1.1248594999999995
          },
          {
            "name": "G2",
            "midi": 43,
            "time": 10.1237355,
            "velocity": 0.2755905511811024,
            "duration": 1.1248594999999995
          },
          {
            "name": "F2",
            "midi": 41,
            "time": 11.248595,
            "velocity": 0.2992125984251969,
            "duration": 1.1248594999999995
          },
          {
            "name": "F3",
            "midi": 53,
            "time": 12.3734545,
            "velocity": 0.31496062992125984,
            "duration": 1.1248594999999995
          },
          {
            "name": "D#3",
            "midi": 51,
            "time": 13.498313999999999,
            "velocity": 0.28346456692913385,
            "duration": 2.2497190000000007
          },
          {
            "name": "D#2",
            "midi": 39,
            "time": 15.748033,
            "velocity": 0.2755905511811024,
            "duration": 2.249718999999999
          },
          {
            "name": "C#2",
            "midi": 37,
            "time": 17.997752,
            "velocity": 0.31496062992125984,
            "duration": 2.249718999999999
          },
          {
            "name": "C#3",
            "midi": 49,
            "time": 20.247470999999997,
            "velocity": 0.28346456692913385,
            "duration": 2.249718999999999
          },
          {
            "name": "C3",
            "midi": 48,
            "time": 22.497189999999996,
            "velocity": 0.31496062992125984,
            "duration": 2.249718999999999
          },
          {
            "name": "F2",
            "midi": 41,
            "time": 24.746908999999995,
            "velocity": 0.28346456692913385,
            "duration": 2.249718999999999
          },
          {
            "name": "A#1",
            "midi": 34,
            "time": 26.996627999999994,
            "velocity": 0.31496062992125984,
            "duration": 2.249718999999999
          },
          {
            "name": "D#2",
            "midi": 39,
            "time": 29.246346999999993,
            "velocity": 0.2677165354330709,
            "duration": 2.249718999999999
          },
          {
            "name": "G#1",
            "midi": 32,
            "time": 31.496065999999992,
            "velocity": 0.29133858267716534,
            "duration": 1.1248594999999995
          },
          {
            "name": "G#2",
            "midi": 44,
            "time": 32.62092549999999,
            "velocity": 0.2283464566929134,
            "duration": 1.1248594999999995
          },
          {
            "name": "C3",
            "midi": 48,
            "time": 33.74578499999999,
            "velocity": 0.28346456692913385,
            "duration": 0.2812148750000034
          },
          {
            "name": "G#1",
            "midi": 32,
            "time": 33.74578499999999,
            "velocity": 0.28346456692913385,
            "duration": 1.1248595000000137
          },
          {
            "name": "D#3",
            "midi": 51,
            "time": 34.12073816666666,
            "velocity": 0.2677165354330709,
            "duration": 0.2812148750000034
          },
          {
            "name": "G#3",
            "midi": 56,
            "time": 34.49569133333333,
            "velocity": 0.2677165354330709,
            "duration": 0.2812148750000034
          },
          {
            "name": "G#2",
            "midi": 44,
            "time": 35.995504000000004,
            "velocity": 0.31496062992125984,
            "duration": 2.249718999999999
          },
          {
            "name": "C#3",
            "midi": 49,
            "time": 38.245223,
            "velocity": 0.2755905511811024,
            "duration": 2.249718999999999
          },
          {
            "name": "C3",
            "midi": 48,
            "time": 40.494942,
            "velocity": 0.31496062992125984,
            "duration": 2.249718999999999
          },
          {
            "name": "G2",
            "midi": 43,
            "time": 42.744661,
            "velocity": 0.29133858267716534,
            "duration": 2.249718999999999
          },
          {
            "name": "G#2",
            "midi": 44,
            "time": 44.99438,
            "velocity": 0.3228346456692913,
            "duration": 1.1248594999999995
          },
          {
            "name": "G2",
            "midi": 43,
            "time": 46.1192395,
            "velocity": 0.3464566929133858,
            "duration": 1.1248594999999995
          },
          {
            "name": "F2",
            "midi": 41,
            "time": 47.244099,
            "velocity": 0.36220472440944884,
            "duration": 1.1248594999999995
          },
          {
            "name": "F2",
            "midi": 41,
            "time": 48.3689585,
            "velocity": 0.3858267716535433,
            "duration": 1.1248594999999995
          },
          {
            "name": "F2",
            "midi": 41,
            "time": 60.742413,
            "velocity": 0.28346456692913385,
            "duration": 2.249718999999999
          },
          {
            "name": "A#2",
            "midi": 46,
            "time": 62.992132,
            "velocity": 0.31496062992125984,
            "duration": 2.249718999999999
          },
          {
            "name": "D#2",
            "midi": 39,
            "time": 65.241851,
            "velocity": 0.2677165354330709,
            "duration": 2.249718999999999
          },
          {
            "name": "G#2",
            "midi": 44,
            "time": 67.49157,
            "velocity": 0.29133858267716534,
            "duration": 3.3745784999999984
          },
          {
            "name": "G#3",
            "midi": 56,
            "time": 69.741289,
            "velocity": 0.28346456692913385,
            "duration": 1.1248594999999995
          },
          {
            "name": "D#3",
            "midi": 51,
            "time": 99.55006575,
            "velocity": 0.1968503937007874,
            "duration": 1.1248594999999995
          },
          {
            "name": "G3",
            "midi": 55,
            "time": 99.55006575,
            "velocity": 0.25984251968503935,
            "duration": 1.1248594999999995
          },
          {
            "name": "D#3",
            "midi": 51,
            "time": 104.04950375,
            "velocity": 0.3858267716535433,
            "duration": 0.5624297500000068
          },
          {
            "name": "A#1",
            "midi": 34,
            "time": 104.04950375,
            "velocity": 0.25984251968503935,
            "duration": 4.499438000000012
          },
          {
            "name": "D3",
            "midi": 50,
            "time": 104.6119335,
            "velocity": 0.3464566929133858,
            "duration": 0.421822312499998
          },
          {
            "name": "D3",
            "midi": 50,
            "time": 105.17436325,
            "velocity": 0.3858267716535433,
            "duration": 0.5624297500000068
          },
          {
            "name": "C3",
            "midi": 48,
            "time": 105.736793,
            "velocity": 0.3543307086614173,
            "duration": 0.421822312499998
          },
          {
            "name": "C3",
            "midi": 48,
            "time": 106.29922275,
            "velocity": 0.41732283464566927,
            "duration": 0.5624297500000068
          },
          {
            "name": "B2",
            "midi": 47,
            "time": 106.8616525,
            "velocity": 0.3700787401574803,
            "duration": 0.421822312499998
          },
          {
            "name": "B2",
            "midi": 47,
            "time": 107.42408225,
            "velocity": 0.41732283464566927,
            "duration": 0.5624297500000068
          },
          {
            "name": "A#2",
            "midi": 46,
            "time": 107.986512,
            "velocity": 0.3858267716535433,
            "duration": 0.5624297500000068
          },
          {
            "name": "D#2",
            "midi": 39,
            "time": 108.54894175000001,
            "velocity": 0.28346456692913385,
            "duration": 1.1248594999999995
          },
          {
            "name": "A#2",
            "midi": 46,
            "time": 110.23623100000002,
            "velocity": 0.3464566929133858,
            "duration": 0.5624297500000068
          },
          {
            "name": "G2",
            "midi": 43,
            "time": 110.79866075000002,
            "velocity": 0.3858267716535433,
            "duration": 0.5624297500000068
          },
          {
            "name": "A#2",
            "midi": 46,
            "time": 111.36109050000003,
            "velocity": 0.3543307086614173,
            "duration": 0.5624297500000068
          },
          {
            "name": "G2",
            "midi": 43,
            "time": 111.92352025000004,
            "velocity": 0.3228346456692913,
            "duration": 0.5624297500000068
          },
          {
            "name": "D#2",
            "midi": 39,
            "time": 112.48595000000005,
            "velocity": 0.2992125984251969,
            "duration": 0.5624297500000068
          },
          {
            "name": "F3",
            "midi": 53,
            "time": 113.04837975000005,
            "velocity": 0.2992125984251969,
            "duration": 2.249718999999999
          },
          {
            "name": "A#1",
            "midi": 34,
            "time": 113.04837975000005,
            "velocity": 0.25984251968503935,
            "duration": 2.249718999999999
          },
          {
            "name": "G#3",
            "midi": 56,
            "time": 113.04837975000005,
            "velocity": 0.3543307086614173,
            "duration": 2.249718999999999
          },
          {
            "name": "A#2",
            "midi": 46,
            "time": 115.29809875000005,
            "velocity": 0.25984251968503935,
            "duration": 2.249718999999999
          },
          {
            "name": "F3",
            "midi": 53,
            "time": 115.29809875000005,
            "velocity": 0.33070866141732286,
            "duration": 2.249718999999999
          },
          {
            "name": "G#3",
            "midi": 56,
            "time": 115.29809875000005,
            "velocity": 0.3937007874015748,
            "duration": 2.249718999999999
          },
          {
            "name": "D#2",
            "midi": 39,
            "time": 117.54781775000005,
            "velocity": 0.4015748031496063,
            "duration": 8.99887600000001
          },
          {
            "name": "F3",
            "midi": 53,
            "time": 117.54781775000005,
            "velocity": 0.4015748031496063,
            "duration": 0.5624297500000068
          },
          {
            "name": "E3",
            "midi": 52,
            "time": 118.11024750000006,
            "velocity": 0.3779527559055118,
            "duration": 0.421822312499998
          },
          {
            "name": "E3",
            "midi": 52,
            "time": 118.67267725000005,
            "velocity": 0.41732283464566927,
            "duration": 0.5624297500000068
          },
          {
            "name": "D#3",
            "midi": 51,
            "time": 119.23510700000006,
            "velocity": 0.3779527559055118,
            "duration": 0.421822312499998
          },
          {
            "name": "D#3",
            "midi": 51,
            "time": 119.79753675000005,
            "velocity": 0.41732283464566927,
            "duration": 0.5624297500000068
          },
          {
            "name": "D3",
            "midi": 50,
            "time": 120.35996650000006,
            "velocity": 0.3858267716535433,
            "duration": 0.421822312499998
          },
          {
            "name": "D3",
            "midi": 50,
            "time": 120.92239625000005,
            "velocity": 0.4330708661417323,
            "duration": 0.5624297500000068
          },
          {
            "name": "D#3",
            "midi": 51,
            "time": 121.48482600000006,
            "velocity": 0.3937007874015748,
            "duration": 0.421822312499998
          },
          {
            "name": "D#3",
            "midi": 51,
            "time": 122.04725575000005,
            "velocity": 0.4330708661417323,
            "duration": 0.5624297500000068
          },
          {
            "name": "E3",
            "midi": 52,
            "time": 122.60968550000005,
            "velocity": 0.31496062992125984,
            "duration": 0.421822312499998
          },
          {
            "name": "E3",
            "midi": 52,
            "time": 123.17211525000005,
            "velocity": 0.3464566929133858,
            "duration": 0.5624297500000068
          },
          {
            "name": "D#3",
            "midi": 51,
            "time": 123.73454500000005,
            "velocity": 0.29133858267716534,
            "duration": 0.421822312499998
          },
          {
            "name": "D#3",
            "midi": 51,
            "time": 124.29697475000005,
            "velocity": 0.3464566929133858,
            "duration": 0.5624297500000068
          },
          {
            "name": "D3",
            "midi": 50,
            "time": 124.85940450000005,
            "velocity": 0.2440944881889764,
            "duration": 0.421822312499998
          },
          {
            "name": "D3",
            "midi": 50,
            "time": 125.42183425000005,
            "velocity": 0.29133858267716534,
            "duration": 0.5624297500000068
          },
          {
            "name": "C#3",
            "midi": 49,
            "time": 125.98426400000005,
            "velocity": 0.2283464566929134,
            "duration": 0.5624297500000068
          },
          {
            "name": "G#1",
            "midi": 32,
            "time": 126.54669375000006,
            "velocity": 0.25984251968503935,
            "duration": 2.249718999999999
          },
          {
            "name": "G#2",
            "midi": 44,
            "time": 126.54669375000006,
            "velocity": 0.29133858267716534,
            "duration": 2.249718999999999
          },
          {
            "name": "C#3",
            "midi": 49,
            "time": 128.79641275000006,
            "velocity": 0.2755905511811024,
            "duration": 2.249718999999999
          },
          {
            "name": "C3",
            "midi": 48,
            "time": 131.04613175000006,
            "velocity": 0.31496062992125984,
            "duration": 2.249718999999999
          },
          {
            "name": "G2",
            "midi": 43,
            "time": 133.29585075000006,
            "velocity": 0.29133858267716534,
            "duration": 2.249718999999999
          },
          {
            "name": "G#2",
            "midi": 44,
            "time": 135.54556975000006,
            "velocity": 0.25984251968503935,
            "duration": 1.1248595000000137
          },
          {
            "name": "G2",
            "midi": 43,
            "time": 136.67042925000007,
            "velocity": 0.28346456692913385,
            "duration": 1.1248595000000137
          },
          {
            "name": "F2",
            "midi": 41,
            "time": 137.79528875000008,
            "velocity": 0.31496062992125984,
            "duration": 1.1248595000000137
          },
          {
            "name": "F3",
            "midi": 53,
            "time": 138.9201482500001,
            "velocity": 0.3464566929133858,
            "duration": 1.1248595000000137
          },
          {
            "name": "D#3",
            "midi": 51,
            "time": 140.0450077500001,
            "velocity": 0.28346456692913385,
            "duration": 2.249718999999999
          },
          {
            "name": "D#2",
            "midi": 39,
            "time": 142.2947267500001,
            "velocity": 0.2755905511811024,
            "duration": 2.249718999999999
          },
          {
            "name": "C#2",
            "midi": 37,
            "time": 144.5444457500001,
            "velocity": 0.31496062992125984,
            "duration": 2.249718999999999
          },
          {
            "name": "C#3",
            "midi": 49,
            "time": 146.7941647500001,
            "velocity": 0.28346456692913385,
            "duration": 2.249718999999999
          },
          {
            "name": "C3",
            "midi": 48,
            "time": 149.0438837500001,
            "velocity": 0.31496062992125984,
            "duration": 2.249718999999999
          },
          {
            "name": "F2",
            "midi": 41,
            "time": 151.2936027500001,
            "velocity": 0.28346456692913385,
            "duration": 2.249718999999999
          },
          {
            "name": "A#1",
            "midi": 34,
            "time": 153.5433217500001,
            "velocity": 0.31496062992125984,
            "duration": 2.249718999999999
          },
          {
            "name": "D#2",
            "midi": 39,
            "time": 155.7930407500001,
            "velocity": 0.2677165354330709,
            "duration": 2.249718999999999
          },
          {
            "name": "G#1",
            "midi": 32,
            "time": 158.0427597500001,
            "velocity": 0.29133858267716534,
            "duration": 1.1248595000000137
          },
          {
            "name": "G#2",
            "midi": 44,
            "time": 159.16761925000012,
            "velocity": 0.2283464566929134,
            "duration": 1.1248595000000137
          },
          {
            "name": "G#1",
            "midi": 32,
            "time": 160.29247875000013,
            "velocity": 0.28346456692913385,
            "duration": 1.1248595000000137
          },
          {
            "name": "G#2",
            "midi": 44,
            "time": 162.54219775000016,
            "velocity": 0.25984251968503935,
            "duration": 2.249718999999999
          },
          {
            "name": "G#3",
            "midi": 56,
            "time": 162.54219775000016,
            "velocity": 0.25984251968503935,
            "duration": 2.249718999999999
          },
          {
            "name": "A#3",
            "midi": 58,
            "time": 167.04163575000015,
            "velocity": 0.28346456692913385,
            "duration": 1.4998126666666565
          },
          {
            "name": "A#3",
            "midi": 58,
            "time": 168.5414484166668,
            "velocity": 0.28346456692913385,
            "duration": 0.3749531666666712
          },
          {
            "name": "A3",
            "midi": 57,
            "time": 168.91640158333348,
            "velocity": 0.28346456692913385,
            "duration": 0.3749531666666712
          },
          {
            "name": "A#3",
            "midi": 58,
            "time": 169.29135475000015,
            "velocity": 0.28346456692913385,
            "duration": 0.2812148749999892
          },
          {
            "name": "A#3",
            "midi": 58,
            "time": 169.6663079166668,
            "velocity": 0.28346456692913385,
            "duration": 0.2812148749999892
          },
          {
            "name": "G#3",
            "midi": 56,
            "time": 170.04126108333344,
            "velocity": 0.25984251968503935,
            "duration": 0.2812148749999892
          },
          {
            "name": "G3",
            "midi": 55,
            "time": 170.41621425000008,
            "velocity": 0.28346456692913385,
            "duration": 0.2812148749999892
          },
          {
            "name": "F3",
            "midi": 53,
            "time": 170.79116741666672,
            "velocity": 0.25196850393700787,
            "duration": 0.2812148749999892
          },
          {
            "name": "D#3",
            "midi": 51,
            "time": 171.16612058333337,
            "velocity": 0.25196850393700787,
            "duration": 0.2812148749999892
          },
          {
            "name": "G#2",
            "midi": 44,
            "time": 171.54107375,
            "velocity": 0.25984251968503935,
            "duration": 2.249718999999999
          },
          {
            "name": "G#3",
            "midi": 56,
            "time": 171.54107375,
            "velocity": 0.25984251968503935,
            "duration": 2.249718999999999
          },
          {
            "name": "D#3",
            "midi": 51,
            "time": 176.04051175,
            "velocity": 0.28346456692913385,
            "duration": 1.4998126666666565
          },
          {
            "name": "D#3",
            "midi": 51,
            "time": 177.54032441666666,
            "velocity": 0.28346456692913385,
            "duration": 0.3749531666666712
          },
          {
            "name": "D3",
            "midi": 50,
            "time": 177.91527758333334,
            "velocity": 0.28346456692913385,
            "duration": 0.3749531666666712
          },
          {
            "name": "D#3",
            "midi": 51,
            "time": 178.29023075,
            "velocity": 0.28346456692913385,
            "duration": 0.2812148749999892
          },
          {
            "name": "E3",
            "midi": 52,
            "time": 178.66518391666665,
            "velocity": 0.28346456692913385,
            "duration": 0.2812148749999892
          },
          {
            "name": "D#3",
            "midi": 51,
            "time": 179.0401370833333,
            "velocity": 0.25984251968503935,
            "duration": 0.2812148749999892
          },
          {
            "name": "C#3",
            "midi": 49,
            "time": 179.41509024999993,
            "velocity": 0.28346456692913385,
            "duration": 0.2812148749999892
          },
          {
            "name": "B2",
            "midi": 47,
            "time": 179.79004341666658,
            "velocity": 0.25196850393700787,
            "duration": 0.2812148749999892
          },
          {
            "name": "A#2",
            "midi": 46,
            "time": 180.16499658333322,
            "velocity": 0.25196850393700787,
            "duration": 0.2812148749999892
          },
          {
            "name": "G#2",
            "midi": 44,
            "time": 180.53994974999986,
            "velocity": 0.28346456692913385,
            "duration": 2.249718999999999
          },
          {
            "name": "G#3",
            "midi": 56,
            "time": 180.53994974999986,
            "velocity": 0.28346456692913385,
            "duration": 2.249718999999999
          },
          {
            "name": "E2",
            "midi": 40,
            "time": 198.53770174999985,
            "velocity": 0.25984251968503935,
            "duration": 2.249718999999999
          },
          {
            "name": "E3",
            "midi": 52,
            "time": 198.53770174999985,
            "velocity": 0.25984251968503935,
            "duration": 2.249718999999999
          },
          {
            "name": "F#3",
            "midi": 54,
            "time": 203.03713974999985,
            "velocity": 0.28346456692913385,
            "duration": 1.4998126666666565
          },
          {
            "name": "F#3",
            "midi": 54,
            "time": 204.5369524166665,
            "velocity": 0.28346456692913385,
            "duration": 0.3749531666666712
          },
          {
            "name": "F3",
            "midi": 53,
            "time": 204.91190558333318,
            "velocity": 0.28346456692913385,
            "duration": 0.3749531666666712
          },
          {
            "name": "F#3",
            "midi": 54,
            "time": 205.28685874999985,
            "velocity": 0.28346456692913385,
            "duration": 0.2812148749999892
          },
          {
            "name": "F#3",
            "midi": 54,
            "time": 205.6618119166665,
            "velocity": 0.28346456692913385,
            "duration": 0.2812148749999892
          },
          {
            "name": "E3",
            "midi": 52,
            "time": 206.03676508333314,
            "velocity": 0.25984251968503935,
            "duration": 0.2812148749999892
          },
          {
            "name": "D#3",
            "midi": 51,
            "time": 206.41171824999978,
            "velocity": 0.28346456692913385,
            "duration": 0.2812148749999892
          },
          {
            "name": "C#3",
            "midi": 49,
            "time": 206.78667141666642,
            "velocity": 0.25196850393700787,
            "duration": 0.2812148749999892
          },
          {
            "name": "B2",
            "midi": 47,
            "time": 207.16162458333307,
            "velocity": 0.25196850393700787,
            "duration": 0.2812148749999892
          },
          {
            "name": "E3",
            "midi": 52,
            "time": 207.5365777499997,
            "velocity": 0.25984251968503935,
            "duration": 2.249718999999999
          },
          {
            "name": "F1",
            "midi": 29,
            "time": 212.41096891666638,
            "velocity": 0.3228346456692913,
            "duration": 0.1874765833333356
          },
          {
            "name": "G#1",
            "midi": 32,
            "time": 212.78592208333305,
            "velocity": 0.3464566929133858,
            "duration": 0.1874765833333356
          },
          {
            "name": "B1",
            "midi": 35,
            "time": 213.16087524999972,
            "velocity": 0.36220472440944884,
            "duration": 0.1874765833333356
          },
          {
            "name": "D2",
            "midi": 38,
            "time": 213.5358284166664,
            "velocity": 0.3700787401574803,
            "duration": 0.1874765833333356
          },
          {
            "name": "F2",
            "midi": 41,
            "time": 213.91078158333306,
            "velocity": 0.3858267716535433,
            "duration": 0.1874765833333356
          },
          {
            "name": "G#2",
            "midi": 44,
            "time": 214.28573474999973,
            "velocity": 0.4015748031496063,
            "duration": 1.1248595000000137
          },
          {
            "name": "F1",
            "midi": 29,
            "time": 216.9104069166664,
            "velocity": 0.33070866141732286,
            "duration": 0.1874765833333356
          },
          {
            "name": "G#1",
            "midi": 32,
            "time": 217.28536008333307,
            "velocity": 0.36220472440944884,
            "duration": 0.1874765833333356
          },
          {
            "name": "B1",
            "midi": 35,
            "time": 217.66031324999975,
            "velocity": 0.3779527559055118,
            "duration": 0.1874765833333356
          },
          {
            "name": "D2",
            "midi": 38,
            "time": 218.03526641666642,
            "velocity": 0.3858267716535433,
            "duration": 0.1874765833333356
          },
          {
            "name": "F2",
            "midi": 41,
            "time": 218.4102195833331,
            "velocity": 0.4015748031496063,
            "duration": 0.1874765833333356
          },
          {
            "name": "G#2",
            "midi": 44,
            "time": 218.78517274999976,
            "velocity": 0.41732283464566927,
            "duration": 1.1248595000000137
          },
          {
            "name": "E2",
            "midi": 40,
            "time": 221.40984491666643,
            "velocity": 0.3543307086614173,
            "duration": 0.1874765833333356
          },
          {
            "name": "G#2",
            "midi": 44,
            "time": 221.7847980833331,
            "velocity": 0.3779527559055118,
            "duration": 0.1874765833333356
          },
          {
            "name": "A#2",
            "midi": 46,
            "time": 222.15975124999977,
            "velocity": 0.4015748031496063,
            "duration": 0.5624297500000068
          },
          {
            "name": "D#2",
            "midi": 39,
            "time": 223.65956391666646,
            "velocity": 0.44881889763779526,
            "duration": 0.1874765833333356
          },
          {
            "name": "G2",
            "midi": 43,
            "time": 224.03451708333313,
            "velocity": 0.47244094488188976,
            "duration": 0.1874765833333356
          },
          {
            "name": "A#2",
            "midi": 46,
            "time": 224.4094702499998,
            "velocity": 0.5039370078740157,
            "duration": 0.5624297500000068
          },
          {
            "name": "G#1",
            "midi": 32,
            "time": 225.5343297499998,
            "velocity": 0.2677165354330709,
            "duration": 2.249718999999999
          },
          {
            "name": "G#2",
            "midi": 44,
            "time": 225.5343297499998,
            "velocity": 0.31496062992125984,
            "duration": 2.249718999999999
          },
          {
            "name": "C#3",
            "midi": 49,
            "time": 227.7840487499998,
            "velocity": 0.2755905511811024,
            "duration": 2.249718999999999
          },
          {
            "name": "C3",
            "midi": 48,
            "time": 230.0337677499998,
            "velocity": 0.31496062992125984,
            "duration": 2.249718999999999
          },
          {
            "name": "G2",
            "midi": 43,
            "time": 232.2834867499998,
            "velocity": 0.29133858267716534,
            "duration": 2.249718999999999
          },
          {
            "name": "G#2",
            "midi": 44,
            "time": 234.5332057499998,
            "velocity": 0.25984251968503935,
            "duration": 1.1248595000000137
          },
          {
            "name": "G2",
            "midi": 43,
            "time": 235.65806524999982,
            "velocity": 0.2755905511811024,
            "duration": 1.1248595000000137
          },
          {
            "name": "F2",
            "midi": 41,
            "time": 236.78292474999984,
            "velocity": 0.2992125984251969,
            "duration": 1.1248595000000137
          },
          {
            "name": "F3",
            "midi": 53,
            "time": 237.90778424999985,
            "velocity": 0.31496062992125984,
            "duration": 1.1248595000000137
          },
          {
            "name": "D#3",
            "midi": 51,
            "time": 239.03264374999986,
            "velocity": 0.28346456692913385,
            "duration": 2.249718999999999
          },
          {
            "name": "D#2",
            "midi": 39,
            "time": 241.28236274999986,
            "velocity": 0.2755905511811024,
            "duration": 2.249718999999999
          },
          {
            "name": "C#2",
            "midi": 37,
            "time": 243.53208174999986,
            "velocity": 0.31496062992125984,
            "duration": 2.249718999999999
          },
          {
            "name": "C#3",
            "midi": 49,
            "time": 245.78180074999986,
            "velocity": 0.28346456692913385,
            "duration": 2.249718999999999
          },
          {
            "name": "C3",
            "midi": 48,
            "time": 248.03151974999986,
            "velocity": 0.31496062992125984,
            "duration": 2.249718999999999
          },
          {
            "name": "F2",
            "midi": 41,
            "time": 250.28123874999986,
            "velocity": 0.28346456692913385,
            "duration": 2.249718999999999
          },
          {
            "name": "A#1",
            "midi": 34,
            "time": 252.53095774999986,
            "velocity": 0.31496062992125984,
            "duration": 2.249718999999999
          },
          {
            "name": "D#2",
            "midi": 39,
            "time": 254.78067674999986,
            "velocity": 0.2677165354330709,
            "duration": 2.249718999999999
          },
          {
            "name": "G#1",
            "midi": 32,
            "time": 257.03039574999985,
            "velocity": 0.29133858267716534,
            "duration": 1.1248595000000137
          },
          {
            "name": "G#2",
            "midi": 44,
            "time": 258.15525524999987,
            "velocity": 0.2283464566929134,
            "duration": 1.1248595000000137
          },
          {
            "name": "C3",
            "midi": 48,
            "time": 259.2801147499999,
            "velocity": 0.28346456692913385,
            "duration": 0.2812148749999892
          },
          {
            "name": "G#1",
            "midi": 32,
            "time": 259.2801147499999,
            "velocity": 0.28346456692913385,
            "duration": 1.1248595000000137
          },
          {
            "name": "D#3",
            "midi": 51,
            "time": 259.65506791666655,
            "velocity": 0.2677165354330709,
            "duration": 0.2812148749999892
          },
          {
            "name": "G#3",
            "midi": 56,
            "time": 260.0300210833332,
            "velocity": 0.2677165354330709,
            "duration": 0.2812148749999892
          },
          {
            "name": "G#2",
            "midi": 44,
            "time": 261.5298337499999,
            "velocity": 0.31496062992125984,
            "duration": 2.2497190000000273
          },
          {
            "name": "C#3",
            "midi": 49,
            "time": 263.77955274999994,
            "velocity": 0.2755905511811024,
            "duration": 2.2497190000000273
          },
          {
            "name": "C3",
            "midi": 48,
            "time": 266.02927174999996,
            "velocity": 0.31496062992125984,
            "duration": 2.2497190000000273
          },
          {
            "name": "G2",
            "midi": 43,
            "time": 268.27899075,
            "velocity": 0.29133858267716534,
            "duration": 2.2497190000000273
          },
          {
            "name": "G#2",
            "midi": 44,
            "time": 270.52870975,
            "velocity": 0.25984251968503935,
            "duration": 1.1248595000000137
          },
          {
            "name": "G2",
            "midi": 43,
            "time": 271.65356925000003,
            "velocity": 0.2755905511811024,
            "duration": 1.1248595000000137
          },
          {
            "name": "F2",
            "midi": 41,
            "time": 272.77842875000005,
            "velocity": 0.2992125984251969,
            "duration": 1.1248595000000137
          },
          {
            "name": "F2",
            "midi": 41,
            "time": 273.90328825000006,
            "velocity": 0.31496062992125984,
            "duration": 1.1248595000000137
          },
          {
            "name": "D#2",
            "midi": 39,
            "time": 275.0281477500001,
            "velocity": 0.3937007874015748,
            "duration": 0.1874765833333072
          },
          {
            "name": "G2",
            "midi": 43,
            "time": 275.4031009166667,
            "velocity": 0.3464566929133858,
            "duration": 0.1874765833333072
          },
          {
            "name": "A#2",
            "midi": 46,
            "time": 275.7780540833333,
            "velocity": 0.3543307086614173,
            "duration": 0.1874765833333072
          },
          {
            "name": "D#3",
            "midi": 51,
            "time": 276.1530072499999,
            "velocity": 0.3700787401574803,
            "duration": 0.1874765833333072
          },
          {
            "name": "G3",
            "midi": 55,
            "time": 276.52796041666653,
            "velocity": 0.3858267716535433,
            "duration": 0.1874765833333072
          },
          {
            "name": "A#3",
            "midi": 58,
            "time": 276.90291358333315,
            "velocity": 0.3937007874015748,
            "duration": 0.1874765833333072
          },
          {
            "name": "D#4",
            "midi": 63,
            "time": 277.27786674999976,
            "velocity": 0.4094488188976378,
            "duration": 2.2497190000000273
          },
          {
            "name": "C#2",
            "midi": 37,
            "time": 279.5275857499998,
            "velocity": 0.3937007874015748,
            "duration": 0.1874765833333072
          },
          {
            "name": "G2",
            "midi": 43,
            "time": 279.9025389166664,
            "velocity": 0.33858267716535434,
            "duration": 0.1874765833333072
          },
          {
            "name": "A#2",
            "midi": 46,
            "time": 280.277492083333,
            "velocity": 0.3464566929133858,
            "duration": 0.1874765833333072
          },
          {
            "name": "C#3",
            "midi": 49,
            "time": 280.65244524999963,
            "velocity": 0.36220472440944884,
            "duration": 0.1874765833333072
          },
          {
            "name": "G3",
            "midi": 55,
            "time": 281.02739841666624,
            "velocity": 0.3700787401574803,
            "duration": 0.1874765833333072
          },
          {
            "name": "A#3",
            "midi": 58,
            "time": 281.40235158333286,
            "velocity": 0.3858267716535433,
            "duration": 0.1874765833333072
          },
          {
            "name": "C#4",
            "midi": 61,
            "time": 281.7773047499995,
            "velocity": 0.3937007874015748,
            "duration": 2.2497190000000273
          },
          {
            "name": "C4",
            "midi": 60,
            "time": 284.0270237499995,
            "velocity": 0.31496062992125984,
            "duration": 2.2497190000000273
          },
          {
            "name": "F3",
            "midi": 53,
            "time": 286.2767427499995,
            "velocity": 0.28346456692913385,
            "duration": 2.2497190000000273
          },
          {
            "name": "A#2",
            "midi": 46,
            "time": 288.52646174999956,
            "velocity": 0.31496062992125984,
            "duration": 2.2497190000000273
          },
          {
            "name": "D#4",
            "midi": 63,
            "time": 313.2733707499996,
            "velocity": 0.3464566929133858,
            "duration": 2.2497190000000273
          },
          {
            "name": "G4",
            "midi": 67,
            "time": 313.2733707499996,
            "velocity": 0.3700787401574803,
            "duration": 2.2497190000000273
          },
          {
            "name": "G#3",
            "midi": 56,
            "time": 315.5230897499996,
            "velocity": 0.3464566929133858,
            "duration": 1.1248595000000137
          },
          {
            "name": "G#4",
            "midi": 68,
            "time": 315.5230897499996,
            "velocity": 0.3464566929133858,
            "duration": 1.1248595000000137
          },
          {
            "name": "D#3",
            "midi": 51,
            "time": 317.7728087499996,
            "velocity": 0.33858267716535434,
            "duration": 2.2497190000000273
          },
          {
            "name": "C#4",
            "midi": 61,
            "time": 317.7728087499996,
            "velocity": 0.3543307086614173,
            "duration": 2.2497190000000273
          },
          {
            "name": "G#3",
            "midi": 56,
            "time": 320.02252774999965,
            "velocity": 0.25984251968503935,
            "duration": 1.1248595000000137
          },
          {
            "name": "C4",
            "midi": 60,
            "time": 320.02252774999965,
            "velocity": 0.30708661417322836,
            "duration": 1.1248595000000137
          },
          {
            "name": "G3",
            "midi": 55,
            "time": 322.2722467499997,
            "velocity": 0.3464566929133858,
            "duration": 2.2497190000000273
          },
          {
            "name": "D#2",
            "midi": 39,
            "time": 322.2722467499997,
            "velocity": 0.29133858267716534,
            "duration": 2.2497190000000273
          },
          {
            "name": "C#3",
            "midi": 49,
            "time": 322.2722467499997,
            "velocity": 0.29133858267716534,
            "duration": 2.2497190000000273
          },
          {
            "name": "G#2",
            "midi": 44,
            "time": 324.5219657499997,
            "velocity": 0.1968503937007874,
            "duration": 0.5624297499999784
          },
          {
            "name": "C3",
            "midi": 48,
            "time": 324.5219657499997,
            "velocity": 0.23622047244094488,
            "duration": 0.5624297499999784
          },
          {
            "name": "G#1",
            "midi": 32,
            "time": 325.64682524999967,
            "velocity": 0.23622047244094488,
            "duration": 0.5624297499999784
          },
          {
            "name": "G#1",
            "midi": 32,
            "time": 326.7716847499996,
            "velocity": 0.23622047244094488,
            "duration": 2.2497190000000273
          }
        ],
        "controlChanges": {
          "7": [
            {
              "number": 7,
              "time": 0,
              "value": 0.7874015748031497
            }
          ],
          "10": [
            {
              "number": 10,
              "time": 0,
              "value": 0.5039370078740157
            }
          ]
        },
        "id": 3,
        "name": "Piano left",
        "instrumentNumber": 1,
        "instrument": "bright acoustic piano",
        "instrumentFamily": "piano",
        "channelNumber": 0,
        "isPercussion": false
      },
      {
        "startTime": 0,
        "duration": 312.14851124999944,
        "length": 622,
        "notes": [
          {
            "name": "G#3",
            "midi": 56,
            "time": 0,
            "velocity": 0.2204724409448819,
            "duration": 0.5624297500000001
          },
          {
            "name": "D#3",
            "midi": 51,
            "time": 0.5624297500000001,
            "velocity": 0.1889763779527559,
            "duration": 0.5624297500000001
          },
          {
            "name": "G#3",
            "midi": 56,
            "time": 1.1248595000000001,
            "velocity": 0.2047244094488189,
            "duration": 0.56242975
          },
          {
            "name": "D#3",
            "midi": 51,
            "time": 1.68728925,
            "velocity": 0.18110236220472442,
            "duration": 0.5624297500000002
          },
          {
            "name": "G3",
            "midi": 55,
            "time": 2.2497190000000002,
            "velocity": 0.2204724409448819,
            "duration": 0.5624297500000002
          },
          {
            "name": "D#3",
            "midi": 51,
            "time": 2.8121487500000004,
            "velocity": 0.1889763779527559,
            "duration": 0.5624297500000002
          },
          {
            "name": "G3",
            "midi": 55,
            "time": 3.3745785000000006,
            "velocity": 0.2047244094488189,
            "duration": 0.5624297500000002
          },
          {
            "name": "D#3",
            "midi": 51,
            "time": 3.9370082500000008,
            "velocity": 0.1889763779527559,
            "duration": 0.5624297499999997
          },
          {
            "name": "G#3",
            "midi": 56,
            "time": 4.4994380000000005,
            "velocity": 0.2204724409448819,
            "duration": 0.5624297499999997
          },
          {
            "name": "D#3",
            "midi": 51,
            "time": 5.06186775,
            "velocity": 0.1968503937007874,
            "duration": 0.5624297499999997
          },
          {
            "name": "G#3",
            "midi": 56,
            "time": 5.6242975,
            "velocity": 0.1968503937007874,
            "duration": 0.5624297499999997
          },
          {
            "name": "D#3",
            "midi": 51,
            "time": 6.18672725,
            "velocity": 0.1968503937007874,
            "duration": 0.5624297499999997
          },
          {
            "name": "A#3",
            "midi": 58,
            "time": 6.749156999999999,
            "velocity": 0.2204724409448819,
            "duration": 0.5624297499999997
          },
          {
            "name": "D#3",
            "midi": 51,
            "time": 7.311586749999999,
            "velocity": 0.1968503937007874,
            "duration": 0.5624297499999997
          },
          {
            "name": "A#3",
            "midi": 58,
            "time": 7.874016499999999,
            "velocity": 0.1968503937007874,
            "duration": 0.5624297500000006
          },
          {
            "name": "D#3",
            "midi": 51,
            "time": 8.43644625,
            "velocity": 0.1968503937007874,
            "duration": 0.5624297499999997
          },
          {
            "name": "G#3",
            "midi": 56,
            "time": 8.998876,
            "velocity": 0.2283464566929134,
            "duration": 0.5624297499999997
          },
          {
            "name": "D#3",
            "midi": 51,
            "time": 9.561305749999999,
            "velocity": 0.1968503937007874,
            "duration": 0.5624297499999997
          },
          {
            "name": "A#3",
            "midi": 58,
            "time": 10.123735499999999,
            "velocity": 0.2047244094488189,
            "duration": 0.5624297499999997
          },
          {
            "name": "D#3",
            "midi": 51,
            "time": 10.686165249999998,
            "velocity": 0.18110236220472442,
            "duration": 0.5624297499999997
          },
          {
            "name": "C4",
            "midi": 60,
            "time": 11.248594999999998,
            "velocity": 0.23622047244094488,
            "duration": 0.5624297499999997
          },
          {
            "name": "G#3",
            "midi": 56,
            "time": 11.811024749999998,
            "velocity": 0.1968503937007874,
            "duration": 0.5624297499999997
          },
          {
            "name": "D4",
            "midi": 62,
            "time": 12.373454499999998,
            "velocity": 0.2125984251968504,
            "duration": 0.5624297499999997
          },
          {
            "name": "G#3",
            "midi": 56,
            "time": 12.935884249999997,
            "velocity": 0.1732283464566929,
            "duration": 0.5624297499999997
          },
          {
            "name": "G3",
            "midi": 55,
            "time": 13.498313999999997,
            "velocity": 0.2204724409448819,
            "duration": 0.5624297499999997
          },
          {
            "name": "A#3",
            "midi": 58,
            "time": 14.060743749999997,
            "velocity": 0.18110236220472442,
            "duration": 0.5624297499999997
          },
          {
            "name": "G3",
            "midi": 55,
            "time": 14.623173499999996,
            "velocity": 0.18110236220472442,
            "duration": 0.5624297499999997
          },
          {
            "name": "A#3",
            "midi": 58,
            "time": 15.185603249999996,
            "velocity": 0.18110236220472442,
            "duration": 0.5624297499999997
          },
          {
            "name": "G3",
            "midi": 55,
            "time": 15.748032999999996,
            "velocity": 0.2204724409448819,
            "duration": 0.5624297499999997
          },
          {
            "name": "A#3",
            "midi": 58,
            "time": 16.310462749999996,
            "velocity": 0.18110236220472442,
            "duration": 0.5624297499999997
          },
          {
            "name": "G3",
            "midi": 55,
            "time": 16.872892499999995,
            "velocity": 0.1968503937007874,
            "duration": 0.5624297499999997
          },
          {
            "name": "A#3",
            "midi": 58,
            "time": 17.435322249999995,
            "velocity": 0.1889763779527559,
            "duration": 0.5624297499999997
          },
          {
            "name": "G3",
            "midi": 55,
            "time": 17.997751999999995,
            "velocity": 0.2204724409448819,
            "duration": 0.5624297499999997
          },
          {
            "name": "A#3",
            "midi": 58,
            "time": 18.560181749999995,
            "velocity": 0.1889763779527559,
            "duration": 0.5624297499999997
          },
          {
            "name": "G3",
            "midi": 55,
            "time": 19.122611499999994,
            "velocity": 0.2047244094488189,
            "duration": 0.5624297499999997
          },
          {
            "name": "A#3",
            "midi": 58,
            "time": 19.685041249999994,
            "velocity": 0.18110236220472442,
            "duration": 0.5530559208333337
          },
          {
            "name": "G3",
            "midi": 55,
            "time": 20.247470999999994,
            "velocity": 0.2204724409448819,
            "duration": 0.5624297499999997
          },
          {
            "name": "D#3",
            "midi": 51,
            "time": 20.809900749999994,
            "velocity": 0.1889763779527559,
            "duration": 0.5624297499999997
          },
          {
            "name": "G3",
            "midi": 55,
            "time": 21.372330499999993,
            "velocity": 0.1889763779527559,
            "duration": 0.5624297499999997
          },
          {
            "name": "D#3",
            "midi": 51,
            "time": 21.934760249999993,
            "velocity": 0.1889763779527559,
            "duration": 0.5624297499999997
          },
          {
            "name": "G#3",
            "midi": 56,
            "time": 22.497189999999993,
            "velocity": 0.2204724409448819,
            "duration": 0.5624297499999997
          },
          {
            "name": "D#3",
            "midi": 51,
            "time": 23.059619749999992,
            "velocity": 0.2125984251968504,
            "duration": 0.5624297499999997
          },
          {
            "name": "G#3",
            "midi": 56,
            "time": 23.622049499999992,
            "velocity": 0.2125984251968504,
            "duration": 0.5624297499999997
          },
          {
            "name": "D#3",
            "midi": 51,
            "time": 24.184479249999992,
            "velocity": 0.1968503937007874,
            "duration": 0.5624297499999997
          },
          {
            "name": "D#3",
            "midi": 51,
            "time": 24.74690899999999,
            "velocity": 0.2204724409448819,
            "duration": 0.5624297499999997
          },
          {
            "name": "C3",
            "midi": 48,
            "time": 25.30933874999999,
            "velocity": 0.1889763779527559,
            "duration": 0.5624297499999997
          },
          {
            "name": "D#3",
            "midi": 51,
            "time": 25.87176849999999,
            "velocity": 0.2047244094488189,
            "duration": 0.5624297499999997
          },
          {
            "name": "C3",
            "midi": 48,
            "time": 26.43419824999999,
            "velocity": 0.1889763779527559,
            "duration": 0.5624297499999997
          },
          {
            "name": "F3",
            "midi": 53,
            "time": 26.99662799999999,
            "velocity": 0.2283464566929134,
            "duration": 0.5624297499999997
          },
          {
            "name": "C#3",
            "midi": 49,
            "time": 27.55905774999999,
            "velocity": 0.1968503937007874,
            "duration": 0.5624297499999997
          },
          {
            "name": "F3",
            "midi": 53,
            "time": 28.12148749999999,
            "velocity": 0.2125984251968504,
            "duration": 0.5624297499999997
          },
          {
            "name": "C#3",
            "midi": 49,
            "time": 28.68391724999999,
            "velocity": 0.1889763779527559,
            "duration": 0.5061867749999998
          },
          {
            "name": "C#3",
            "midi": 49,
            "time": 29.24634699999999,
            "velocity": 0.23622047244094488,
            "duration": 0.5061867749999998
          },
          {
            "name": "C#3",
            "midi": 49,
            "time": 29.80877674999999,
            "velocity": 0.2047244094488189,
            "duration": 0.5061867749999998
          },
          {
            "name": "C#3",
            "midi": 49,
            "time": 30.37120649999999,
            "velocity": 0.2204724409448819,
            "duration": 0.5061867749999998
          },
          {
            "name": "C#3",
            "midi": 49,
            "time": 30.93363624999999,
            "velocity": 0.2047244094488189,
            "duration": 0.5061867749999998
          },
          {
            "name": "C#3",
            "midi": 49,
            "time": 31.49606599999999,
            "velocity": 0.2440944881889764,
            "duration": 0.5624297500000033
          },
          {
            "name": "D#3",
            "midi": 51,
            "time": 32.05849574999999,
            "velocity": 0.2047244094488189,
            "duration": 0.5624297499999997
          },
          {
            "name": "C#3",
            "midi": 49,
            "time": 32.62092549999999,
            "velocity": 0.2204724409448819,
            "duration": 0.5624297499999997
          },
          {
            "name": "D#3",
            "midi": 51,
            "time": 33.18335524999999,
            "velocity": 0.1889763779527559,
            "duration": 0.5624297499999997
          },
          {
            "name": "G#3",
            "midi": 56,
            "time": 35.99550399999999,
            "velocity": 0.1968503937007874,
            "duration": 0.5624297499999997
          },
          {
            "name": "D#3",
            "midi": 51,
            "time": 36.55793374999999,
            "velocity": 0.16535433070866143,
            "duration": 0.5624297499999997
          },
          {
            "name": "G#3",
            "midi": 56,
            "time": 37.12036349999999,
            "velocity": 0.18110236220472442,
            "duration": 0.5624297499999997
          },
          {
            "name": "D#3",
            "midi": 51,
            "time": 37.68279324999999,
            "velocity": 0.15748031496062992,
            "duration": 0.5624297499999997
          },
          {
            "name": "G3",
            "midi": 55,
            "time": 38.24522299999999,
            "velocity": 0.1968503937007874,
            "duration": 0.5624297499999997
          },
          {
            "name": "D#3",
            "midi": 51,
            "time": 38.80765274999999,
            "velocity": 0.16535433070866143,
            "duration": 0.5624297499999997
          },
          {
            "name": "G3",
            "midi": 55,
            "time": 39.37008249999999,
            "velocity": 0.18110236220472442,
            "duration": 0.5624297499999997
          },
          {
            "name": "D#3",
            "midi": 51,
            "time": 39.93251224999999,
            "velocity": 0.16535433070866143,
            "duration": 0.5624297499999997
          },
          {
            "name": "G#3",
            "midi": 56,
            "time": 40.49494199999999,
            "velocity": 0.1968503937007874,
            "duration": 0.5624297499999997
          },
          {
            "name": "D#3",
            "midi": 51,
            "time": 41.05737174999999,
            "velocity": 0.1732283464566929,
            "duration": 0.5624297499999997
          },
          {
            "name": "G#3",
            "midi": 56,
            "time": 41.61980149999999,
            "velocity": 0.1732283464566929,
            "duration": 0.5624297499999997
          },
          {
            "name": "D#3",
            "midi": 51,
            "time": 42.18223124999999,
            "velocity": 0.1732283464566929,
            "duration": 0.5624297499999997
          },
          {
            "name": "G3",
            "midi": 55,
            "time": 42.74466099999999,
            "velocity": 0.1968503937007874,
            "duration": 0.5624297499999997
          },
          {
            "name": "D#3",
            "midi": 51,
            "time": 43.307090749999986,
            "velocity": 0.1732283464566929,
            "duration": 0.5624297499999997
          },
          {
            "name": "G3",
            "midi": 55,
            "time": 43.869520499999986,
            "velocity": 0.1732283464566929,
            "duration": 0.5624297499999997
          },
          {
            "name": "D#3",
            "midi": 51,
            "time": 44.431950249999986,
            "velocity": 0.1732283464566929,
            "duration": 0.5624297499999997
          },
          {
            "name": "G#3",
            "midi": 56,
            "time": 44.994379999999985,
            "velocity": 0.23622047244094488,
            "duration": 0.5624297499999997
          },
          {
            "name": "D#3",
            "midi": 51,
            "time": 45.556809749999985,
            "velocity": 0.23622047244094488,
            "duration": 0.5624297499999997
          },
          {
            "name": "G3",
            "midi": 55,
            "time": 46.119239499999985,
            "velocity": 0.23622047244094488,
            "duration": 0.5624297499999997
          },
          {
            "name": "D#3",
            "midi": 51,
            "time": 46.681669249999985,
            "velocity": 0.2440944881889764,
            "duration": 0.5624297499999997
          },
          {
            "name": "F3",
            "midi": 53,
            "time": 47.244098999999984,
            "velocity": 0.2440944881889764,
            "duration": 0.5624297499999997
          },
          {
            "name": "G#2",
            "midi": 44,
            "time": 47.806528749999984,
            "velocity": 0.25196850393700787,
            "duration": 0.5624297499999997
          },
          {
            "name": "F3",
            "midi": 53,
            "time": 48.368958499999984,
            "velocity": 0.25196850393700787,
            "duration": 0.5624297499999997
          },
          {
            "name": "G#2",
            "midi": 44,
            "time": 48.93138824999998,
            "velocity": 0.25196850393700787,
            "duration": 0.5624297499999997
          },
          {
            "name": "D#2",
            "midi": 39,
            "time": 49.49381799999998,
            "velocity": 0.36220472440944884,
            "duration": 0.5624297499999997
          },
          {
            "name": "G2",
            "midi": 43,
            "time": 50.05624774999998,
            "velocity": 0.1968503937007874,
            "duration": 0.5624297499999997
          },
          {
            "name": "A#2",
            "midi": 46,
            "time": 50.61867749999998,
            "velocity": 0.1968503937007874,
            "duration": 0.5624297499999997
          },
          {
            "name": "D#3",
            "midi": 51,
            "time": 51.18110724999998,
            "velocity": 0.1968503937007874,
            "duration": 0.5624297499999997
          },
          {
            "name": "G3",
            "midi": 55,
            "time": 51.74353699999998,
            "velocity": 0.2204724409448819,
            "duration": 0.5624297499999997
          },
          {
            "name": "A#3",
            "midi": 58,
            "time": 52.30596674999998,
            "velocity": 0.23622047244094488,
            "duration": 0.5624297499999997
          },
          {
            "name": "G3",
            "midi": 55,
            "time": 52.86839649999998,
            "velocity": 0.25984251968503935,
            "duration": 0.5624297499999997
          },
          {
            "name": "A#3",
            "midi": 58,
            "time": 53.43082624999998,
            "velocity": 0.2755905511811024,
            "duration": 0.5624297499999997
          },
          {
            "name": "C#2",
            "midi": 37,
            "time": 53.99325599999998,
            "velocity": 0.31496062992125984,
            "duration": 0.5624297499999997
          },
          {
            "name": "G2",
            "midi": 43,
            "time": 54.55568574999998,
            "velocity": 0.1889763779527559,
            "duration": 0.5624297499999997
          },
          {
            "name": "A#2",
            "midi": 46,
            "time": 55.11811549999998,
            "velocity": 0.2047244094488189,
            "duration": 0.5624297499999997
          },
          {
            "name": "C#3",
            "midi": 49,
            "time": 55.68054524999998,
            "velocity": 0.18110236220472442,
            "duration": 0.5624297499999997
          },
          {
            "name": "G3",
            "midi": 55,
            "time": 56.24297499999998,
            "velocity": 0.1968503937007874,
            "duration": 0.5624297499999997
          },
          {
            "name": "A#3",
            "midi": 58,
            "time": 56.80540474999998,
            "velocity": 0.16535433070866143,
            "duration": 0.5624297499999997
          },
          {
            "name": "G3",
            "midi": 55,
            "time": 57.36783449999998,
            "velocity": 0.16535433070866143,
            "duration": 0.5624297499999997
          },
          {
            "name": "C#3",
            "midi": 49,
            "time": 57.93026424999998,
            "velocity": 0.16535433070866143,
            "duration": 0.5624297499999997
          },
          {
            "name": "C3",
            "midi": 48,
            "time": 58.49269399999998,
            "velocity": 0.31496062992125984,
            "duration": 1.1248594999999995
          },
          {
            "name": "D#3",
            "midi": 51,
            "time": 59.05512374999998,
            "velocity": 0.2125984251968504,
            "duration": 0.5624297499999997
          },
          {
            "name": "C3",
            "midi": 48,
            "time": 59.61755349999998,
            "velocity": 0.2125984251968504,
            "duration": 1.1248594999999995
          },
          {
            "name": "D#3",
            "midi": 51,
            "time": 60.17998324999998,
            "velocity": 0.1968503937007874,
            "duration": 0.5624297499999997
          },
          {
            "name": "C3",
            "midi": 48,
            "time": 60.74241299999998,
            "velocity": 0.1968503937007874,
            "duration": 0.5624297499999997
          },
          {
            "name": "F3",
            "midi": 53,
            "time": 61.30484274999998,
            "velocity": 0.16535433070866143,
            "duration": 0.5624297499999997
          },
          {
            "name": "C3",
            "midi": 48,
            "time": 61.86727249999998,
            "velocity": 0.18110236220472442,
            "duration": 0.5624297499999997
          },
          {
            "name": "F3",
            "midi": 53,
            "time": 62.42970224999998,
            "velocity": 0.16535433070866143,
            "duration": 0.5624297499999997
          },
          {
            "name": "C#3",
            "midi": 49,
            "time": 62.99213199999998,
            "velocity": 0.2047244094488189,
            "duration": 0.5624297499999997
          },
          {
            "name": "F3",
            "midi": 53,
            "time": 63.554561749999976,
            "velocity": 0.1732283464566929,
            "duration": 0.5624297500000068
          },
          {
            "name": "C#3",
            "midi": 49,
            "time": 64.11699149999998,
            "velocity": 0.1889763779527559,
            "duration": 0.5624297500000068
          },
          {
            "name": "F3",
            "midi": 53,
            "time": 64.67942124999999,
            "velocity": 0.16535433070866143,
            "duration": 0.5624297500000068
          },
          {
            "name": "A#2",
            "midi": 46,
            "time": 65.241851,
            "velocity": 0.2125984251968504,
            "duration": 0.5624297500000068
          },
          {
            "name": "D#3",
            "midi": 51,
            "time": 65.80428075,
            "velocity": 0.18110236220472442,
            "duration": 0.5624297500000068
          },
          {
            "name": "A#2",
            "midi": 46,
            "time": 66.36671050000001,
            "velocity": 0.1968503937007874,
            "duration": 0.5624297500000068
          },
          {
            "name": "D#3",
            "midi": 51,
            "time": 66.92914025000002,
            "velocity": 0.18110236220472442,
            "duration": 0.5624297500000068
          },
          {
            "name": "D#3",
            "midi": 51,
            "time": 68.05399975000003,
            "velocity": 0.18110236220472442,
            "duration": 0.5624297500000068
          },
          {
            "name": "G3",
            "midi": 55,
            "time": 68.61642950000004,
            "velocity": 0.1968503937007874,
            "duration": 0.5624297500000068
          },
          {
            "name": "D#3",
            "midi": 51,
            "time": 69.17885925000004,
            "velocity": 0.16535433070866143,
            "duration": 0.5624297500000068
          },
          {
            "name": "C4",
            "midi": 60,
            "time": 72.55343775000006,
            "velocity": 0.1968503937007874,
            "duration": 0.5061867750000033
          },
          {
            "name": "C4",
            "midi": 60,
            "time": 73.11586750000006,
            "velocity": 0.1968503937007874,
            "duration": 0.5061867750000033
          },
          {
            "name": "C4",
            "midi": 60,
            "time": 73.67829725000007,
            "velocity": 0.1968503937007874,
            "duration": 0.5061867750000033
          },
          {
            "name": "C4",
            "midi": 60,
            "time": 74.24072700000008,
            "velocity": 0.2283464566929134,
            "duration": 0.5061867750000033
          },
          {
            "name": "C4",
            "midi": 60,
            "time": 74.80315675000008,
            "velocity": 0.1968503937007874,
            "duration": 0.5061867750000033
          },
          {
            "name": "C4",
            "midi": 60,
            "time": 75.36558650000009,
            "velocity": 0.1968503937007874,
            "duration": 0.5061867750000033
          },
          {
            "name": "C4",
            "midi": 60,
            "time": 75.9280162500001,
            "velocity": 0.1968503937007874,
            "duration": 0.5061867750000033
          },
          {
            "name": "E3",
            "midi": 52,
            "time": 76.4904460000001,
            "velocity": 0.1889763779527559,
            "duration": 0.5061867750000033
          },
          {
            "name": "G3",
            "midi": 55,
            "time": 76.4904460000001,
            "velocity": 0.1889763779527559,
            "duration": 0.5061867750000033
          },
          {
            "name": "C4",
            "midi": 60,
            "time": 76.4904460000001,
            "velocity": 0.2283464566929134,
            "duration": 0.5061867750000033
          },
          {
            "name": "E3",
            "midi": 52,
            "time": 77.05287575000011,
            "velocity": 0.16535433070866143,
            "duration": 0.5061867750000033
          },
          {
            "name": "G3",
            "midi": 55,
            "time": 77.05287575000011,
            "velocity": 0.16535433070866143,
            "duration": 0.5061867750000033
          },
          {
            "name": "C4",
            "midi": 60,
            "time": 77.05287575000011,
            "velocity": 0.1968503937007874,
            "duration": 0.5061867750000033
          },
          {
            "name": "E3",
            "midi": 52,
            "time": 77.61530550000012,
            "velocity": 0.16535433070866143,
            "duration": 0.5061867750000033
          },
          {
            "name": "G3",
            "midi": 55,
            "time": 77.61530550000012,
            "velocity": 0.16535433070866143,
            "duration": 0.5061867750000033
          },
          {
            "name": "C4",
            "midi": 60,
            "time": 77.61530550000012,
            "velocity": 0.1968503937007874,
            "duration": 0.5061867750000033
          },
          {
            "name": "E3",
            "midi": 52,
            "time": 78.17773525000013,
            "velocity": 0.16535433070866143,
            "duration": 0.5061867750000033
          },
          {
            "name": "G3",
            "midi": 55,
            "time": 78.17773525000013,
            "velocity": 0.16535433070866143,
            "duration": 0.5061867750000033
          },
          {
            "name": "C4",
            "midi": 60,
            "time": 78.17773525000013,
            "velocity": 0.1968503937007874,
            "duration": 0.5061867750000033
          },
          {
            "name": "F3",
            "midi": 53,
            "time": 78.74016500000013,
            "velocity": 0.1889763779527559,
            "duration": 0.5061867750000033
          },
          {
            "name": "G#3",
            "midi": 56,
            "time": 78.74016500000013,
            "velocity": 0.1889763779527559,
            "duration": 0.5061867750000033
          },
          {
            "name": "C4",
            "midi": 60,
            "time": 78.74016500000013,
            "velocity": 0.2283464566929134,
            "duration": 0.5061867750000033
          },
          {
            "name": "F3",
            "midi": 53,
            "time": 79.30259475000014,
            "velocity": 0.16535433070866143,
            "duration": 0.5061867750000033
          },
          {
            "name": "G#3",
            "midi": 56,
            "time": 79.30259475000014,
            "velocity": 0.16535433070866143,
            "duration": 0.5061867750000033
          },
          {
            "name": "C4",
            "midi": 60,
            "time": 79.30259475000014,
            "velocity": 0.1968503937007874,
            "duration": 0.5061867750000033
          },
          {
            "name": "F3",
            "midi": 53,
            "time": 79.86502450000015,
            "velocity": 0.16535433070866143,
            "duration": 0.5061867750000033
          },
          {
            "name": "G#3",
            "midi": 56,
            "time": 79.86502450000015,
            "velocity": 0.16535433070866143,
            "duration": 0.5061867750000033
          },
          {
            "name": "C4",
            "midi": 60,
            "time": 79.86502450000015,
            "velocity": 0.1968503937007874,
            "duration": 0.5061867750000033
          },
          {
            "name": "F3",
            "midi": 53,
            "time": 80.42745425000015,
            "velocity": 0.16535433070866143,
            "duration": 0.5061867750000033
          },
          {
            "name": "G#3",
            "midi": 56,
            "time": 80.42745425000015,
            "velocity": 0.16535433070866143,
            "duration": 0.5061867750000033
          },
          {
            "name": "C4",
            "midi": 60,
            "time": 80.42745425000015,
            "velocity": 0.1968503937007874,
            "duration": 0.5061867750000033
          },
          {
            "name": "G3",
            "midi": 55,
            "time": 80.98988400000016,
            "velocity": 0.1889763779527559,
            "duration": 0.5061867750000033
          },
          {
            "name": "A#3",
            "midi": 58,
            "time": 80.98988400000016,
            "velocity": 0.1889763779527559,
            "duration": 0.5061867750000033
          },
          {
            "name": "E4",
            "midi": 64,
            "time": 80.98988400000016,
            "velocity": 0.2283464566929134,
            "duration": 0.5061867750000033
          },
          {
            "name": "G3",
            "midi": 55,
            "time": 81.55231375000017,
            "velocity": 0.16535433070866143,
            "duration": 0.5061867750000033
          },
          {
            "name": "A#3",
            "midi": 58,
            "time": 81.55231375000017,
            "velocity": 0.16535433070866143,
            "duration": 0.5061867750000033
          },
          {
            "name": "E4",
            "midi": 64,
            "time": 81.55231375000017,
            "velocity": 0.1968503937007874,
            "duration": 0.5061867750000033
          },
          {
            "name": "G3",
            "midi": 55,
            "time": 82.11474350000017,
            "velocity": 0.16535433070866143,
            "duration": 0.5061867750000033
          },
          {
            "name": "A#3",
            "midi": 58,
            "time": 82.11474350000017,
            "velocity": 0.16535433070866143,
            "duration": 0.5061867750000033
          },
          {
            "name": "E4",
            "midi": 64,
            "time": 82.11474350000017,
            "velocity": 0.1968503937007874,
            "duration": 0.5061867750000033
          },
          {
            "name": "G3",
            "midi": 55,
            "time": 82.67717325000018,
            "velocity": 0.16535433070866143,
            "duration": 0.5061867750000033
          },
          {
            "name": "A#3",
            "midi": 58,
            "time": 82.67717325000018,
            "velocity": 0.16535433070866143,
            "duration": 0.5061867750000033
          },
          {
            "name": "E4",
            "midi": 64,
            "time": 82.67717325000018,
            "velocity": 0.1968503937007874,
            "duration": 0.5061867750000033
          },
          {
            "name": "G#3",
            "midi": 56,
            "time": 83.23960300000019,
            "velocity": 0.2047244094488189,
            "duration": 0.5061867750000033
          },
          {
            "name": "C4",
            "midi": 60,
            "time": 83.23960300000019,
            "velocity": 0.2047244094488189,
            "duration": 0.5061867750000033
          },
          {
            "name": "F4",
            "midi": 65,
            "time": 83.23960300000019,
            "velocity": 0.2440944881889764,
            "duration": 0.5061867750000033
          },
          {
            "name": "G#3",
            "midi": 56,
            "time": 83.8020327500002,
            "velocity": 0.18110236220472442,
            "duration": 0.5061867750000033
          },
          {
            "name": "C4",
            "midi": 60,
            "time": 83.8020327500002,
            "velocity": 0.18110236220472442,
            "duration": 0.5061867750000033
          },
          {
            "name": "F4",
            "midi": 65,
            "time": 83.8020327500002,
            "velocity": 0.2204724409448819,
            "duration": 0.5061867750000033
          },
          {
            "name": "G#3",
            "midi": 56,
            "time": 84.3644625000002,
            "velocity": 0.1889763779527559,
            "duration": 0.5061867750000033
          },
          {
            "name": "C4",
            "midi": 60,
            "time": 84.3644625000002,
            "velocity": 0.1889763779527559,
            "duration": 0.5061867750000033
          },
          {
            "name": "F4",
            "midi": 65,
            "time": 84.3644625000002,
            "velocity": 0.2283464566929134,
            "duration": 0.5061867750000033
          },
          {
            "name": "G#3",
            "midi": 56,
            "time": 84.92689225000021,
            "velocity": 0.1889763779527559,
            "duration": 0.5061867750000033
          },
          {
            "name": "C4",
            "midi": 60,
            "time": 84.92689225000021,
            "velocity": 0.1889763779527559,
            "duration": 0.5061867750000033
          },
          {
            "name": "F4",
            "midi": 65,
            "time": 84.92689225000021,
            "velocity": 0.2283464566929134,
            "duration": 0.5061867750000033
          },
          {
            "name": "A#3",
            "midi": 58,
            "time": 85.48932200000021,
            "velocity": 0.1968503937007874,
            "duration": 0.5061867750000033
          },
          {
            "name": "F4",
            "midi": 65,
            "time": 85.48932200000021,
            "velocity": 0.1968503937007874,
            "duration": 0.5061867750000033
          },
          {
            "name": "G#4",
            "midi": 68,
            "time": 85.48932200000021,
            "velocity": 0.23622047244094488,
            "duration": 0.5061867750000033
          },
          {
            "name": "A#3",
            "midi": 58,
            "time": 86.05175175000022,
            "velocity": 0.2047244094488189,
            "duration": 0.5061867750000033
          },
          {
            "name": "F4",
            "midi": 65,
            "time": 86.05175175000022,
            "velocity": 0.2047244094488189,
            "duration": 0.5061867750000033
          },
          {
            "name": "G#4",
            "midi": 68,
            "time": 86.05175175000022,
            "velocity": 0.2440944881889764,
            "duration": 0.5061867750000033
          },
          {
            "name": "A#3",
            "midi": 58,
            "time": 86.61418150000023,
            "velocity": 0.2204724409448819,
            "duration": 0.5061867750000033
          },
          {
            "name": "F4",
            "midi": 65,
            "time": 86.61418150000023,
            "velocity": 0.2204724409448819,
            "duration": 0.5061867750000033
          },
          {
            "name": "G#4",
            "midi": 68,
            "time": 86.61418150000023,
            "velocity": 0.25984251968503935,
            "duration": 0.5061867750000033
          },
          {
            "name": "A#3",
            "midi": 58,
            "time": 87.17661125000024,
            "velocity": 0.23622047244094488,
            "duration": 0.5061867750000033
          },
          {
            "name": "F4",
            "midi": 65,
            "time": 87.17661125000024,
            "velocity": 0.23622047244094488,
            "duration": 0.5061867750000033
          },
          {
            "name": "G#4",
            "midi": 68,
            "time": 87.17661125000024,
            "velocity": 0.2755905511811024,
            "duration": 0.5061867750000033
          },
          {
            "name": "B3",
            "midi": 59,
            "time": 87.73904100000024,
            "velocity": 0.25196850393700787,
            "duration": 0.5061867750000033
          },
          {
            "name": "F4",
            "midi": 65,
            "time": 87.73904100000024,
            "velocity": 0.25196850393700787,
            "duration": 0.5061867750000033
          },
          {
            "name": "G#4",
            "midi": 68,
            "time": 87.73904100000024,
            "velocity": 0.2992125984251969,
            "duration": 0.5061867750000033
          },
          {
            "name": "B3",
            "midi": 59,
            "time": 88.30147075000025,
            "velocity": 0.2125984251968504,
            "duration": 0.5061867750000033
          },
          {
            "name": "F4",
            "midi": 65,
            "time": 88.30147075000025,
            "velocity": 0.2125984251968504,
            "duration": 0.5061867750000033
          },
          {
            "name": "G#4",
            "midi": 68,
            "time": 88.30147075000025,
            "velocity": 0.25984251968503935,
            "duration": 0.5061867750000033
          },
          {
            "name": "B3",
            "midi": 59,
            "time": 88.86390050000026,
            "velocity": 0.2125984251968504,
            "duration": 0.5061867750000033
          },
          {
            "name": "D4",
            "midi": 62,
            "time": 88.86390050000026,
            "velocity": 0.2125984251968504,
            "duration": 0.5061867750000033
          },
          {
            "name": "G#4",
            "midi": 68,
            "time": 88.86390050000026,
            "velocity": 0.25984251968503935,
            "duration": 0.5061867750000033
          },
          {
            "name": "B3",
            "midi": 59,
            "time": 89.42633025000026,
            "velocity": 0.1968503937007874,
            "duration": 0.5061867750000033
          },
          {
            "name": "D4",
            "midi": 62,
            "time": 89.42633025000026,
            "velocity": 0.1968503937007874,
            "duration": 0.5061867750000033
          },
          {
            "name": "G#4",
            "midi": 68,
            "time": 89.42633025000026,
            "velocity": 0.23622047244094488,
            "duration": 0.5061867750000033
          },
          {
            "name": "C4",
            "midi": 60,
            "time": 89.98876000000027,
            "velocity": 0.2125984251968504,
            "duration": 0.5061867750000033
          },
          {
            "name": "D#4",
            "midi": 63,
            "time": 89.98876000000027,
            "velocity": 0.2125984251968504,
            "duration": 0.5061867750000033
          },
          {
            "name": "G4",
            "midi": 67,
            "time": 89.98876000000027,
            "velocity": 0.25196850393700787,
            "duration": 0.5061867750000033
          },
          {
            "name": "C4",
            "midi": 60,
            "time": 90.55118975000028,
            "velocity": 0.1732283464566929,
            "duration": 0.5061867750000033
          },
          {
            "name": "D#4",
            "midi": 63,
            "time": 90.55118975000028,
            "velocity": 0.1732283464566929,
            "duration": 0.5061867750000033
          },
          {
            "name": "G4",
            "midi": 67,
            "time": 90.55118975000028,
            "velocity": 0.2125984251968504,
            "duration": 0.5061867750000033
          },
          {
            "name": "C4",
            "midi": 60,
            "time": 91.11361950000028,
            "velocity": 0.1732283464566929,
            "duration": 0.5061867750000033
          },
          {
            "name": "D#4",
            "midi": 63,
            "time": 91.11361950000028,
            "velocity": 0.1732283464566929,
            "duration": 0.5061867750000033
          },
          {
            "name": "G4",
            "midi": 67,
            "time": 91.11361950000028,
            "velocity": 0.2125984251968504,
            "duration": 0.5061867750000033
          },
          {
            "name": "C4",
            "midi": 60,
            "time": 91.67604925000029,
            "velocity": 0.1732283464566929,
            "duration": 0.5061867750000033
          },
          {
            "name": "D#4",
            "midi": 63,
            "time": 91.67604925000029,
            "velocity": 0.1732283464566929,
            "duration": 0.5061867750000033
          },
          {
            "name": "G4",
            "midi": 67,
            "time": 91.67604925000029,
            "velocity": 0.2125984251968504,
            "duration": 0.5061867750000033
          },
          {
            "name": "G#3",
            "midi": 56,
            "time": 92.2384790000003,
            "velocity": 0.2204724409448819,
            "duration": 0.5061867750000033
          },
          {
            "name": "D#4",
            "midi": 63,
            "time": 92.2384790000003,
            "velocity": 0.25984251968503935,
            "duration": 0.5061867750000033
          },
          {
            "name": "G#3",
            "midi": 56,
            "time": 92.8009087500003,
            "velocity": 0.1968503937007874,
            "duration": 0.5061867750000033
          },
          {
            "name": "D#4",
            "midi": 63,
            "time": 92.8009087500003,
            "velocity": 0.23622047244094488,
            "duration": 0.5061867750000033
          },
          {
            "name": "G#3",
            "midi": 56,
            "time": 93.36333850000031,
            "velocity": 0.1968503937007874,
            "duration": 0.5061867750000033
          },
          {
            "name": "D#4",
            "midi": 63,
            "time": 93.36333850000031,
            "velocity": 0.23622047244094488,
            "duration": 0.5061867750000033
          },
          {
            "name": "G#3",
            "midi": 56,
            "time": 93.92576825000032,
            "velocity": 0.1968503937007874,
            "duration": 0.5061867750000033
          },
          {
            "name": "D#4",
            "midi": 63,
            "time": 93.92576825000032,
            "velocity": 0.23622047244094488,
            "duration": 0.5061867750000033
          },
          {
            "name": "A#3",
            "midi": 58,
            "time": 95.61305750000032,
            "velocity": 0.1968503937007874,
            "duration": 0.5061867750000033
          },
          {
            "name": "D#4",
            "midi": 63,
            "time": 95.61305750000032,
            "velocity": 0.1968503937007874,
            "duration": 0.5061867750000033
          },
          {
            "name": "G4",
            "midi": 67,
            "time": 95.61305750000032,
            "velocity": 0.23622047244094488,
            "duration": 0.5061867750000033
          },
          {
            "name": "A#3",
            "midi": 58,
            "time": 96.17548725000033,
            "velocity": 0.1968503937007874,
            "duration": 0.5061867750000033
          },
          {
            "name": "D#4",
            "midi": 63,
            "time": 96.17548725000033,
            "velocity": 0.1968503937007874,
            "duration": 0.5061867750000033
          },
          {
            "name": "G4",
            "midi": 67,
            "time": 96.17548725000033,
            "velocity": 0.23622047244094488,
            "duration": 0.5061867750000033
          },
          {
            "name": "A#3",
            "midi": 58,
            "time": 96.73791700000034,
            "velocity": 0.1968503937007874,
            "duration": 0.5061867750000033
          },
          {
            "name": "D#4",
            "midi": 63,
            "time": 96.73791700000034,
            "velocity": 0.1968503937007874,
            "duration": 0.5061867750000033
          },
          {
            "name": "G4",
            "midi": 67,
            "time": 96.73791700000034,
            "velocity": 0.23622047244094488,
            "duration": 0.5061867750000033
          },
          {
            "name": "A#2",
            "midi": 46,
            "time": 97.86277650000034,
            "velocity": 0.1968503937007874,
            "duration": 0.5061867750000033
          },
          {
            "name": "D3",
            "midi": 50,
            "time": 97.86277650000034,
            "velocity": 0.1968503937007874,
            "duration": 0.5061867750000033
          },
          {
            "name": "G#3",
            "midi": 56,
            "time": 97.86277650000034,
            "velocity": 0.23622047244094488,
            "duration": 0.5061867750000033
          },
          {
            "name": "A#2",
            "midi": 46,
            "time": 98.42520625000034,
            "velocity": 0.1968503937007874,
            "duration": 0.5061867750000033
          },
          {
            "name": "D3",
            "midi": 50,
            "time": 98.42520625000034,
            "velocity": 0.1968503937007874,
            "duration": 0.5061867750000033
          },
          {
            "name": "G#3",
            "midi": 56,
            "time": 98.42520625000034,
            "velocity": 0.23622047244094488,
            "duration": 0.5061867750000033
          },
          {
            "name": "A#2",
            "midi": 46,
            "time": 98.98763600000035,
            "velocity": 0.1968503937007874,
            "duration": 0.5061867750000033
          },
          {
            "name": "D3",
            "midi": 50,
            "time": 98.98763600000035,
            "velocity": 0.1968503937007874,
            "duration": 0.5061867750000033
          },
          {
            "name": "G#3",
            "midi": 56,
            "time": 98.98763600000035,
            "velocity": 0.23622047244094488,
            "duration": 0.5061867750000033
          },
          {
            "name": "G#3",
            "midi": 56,
            "time": 126.54669375000036,
            "velocity": 0.2204724409448819,
            "duration": 0.5624297500000068
          },
          {
            "name": "D#3",
            "midi": 51,
            "time": 127.10912350000036,
            "velocity": 0.1889763779527559,
            "duration": 0.5624297500000068
          },
          {
            "name": "G#3",
            "midi": 56,
            "time": 127.67155325000037,
            "velocity": 0.2047244094488189,
            "duration": 0.5624297499999926
          },
          {
            "name": "D#3",
            "midi": 51,
            "time": 128.23398300000036,
            "velocity": 0.18110236220472442,
            "duration": 0.5624297500000068
          },
          {
            "name": "G3",
            "midi": 55,
            "time": 128.79641275000037,
            "velocity": 0.2204724409448819,
            "duration": 0.5624297500000068
          },
          {
            "name": "D#3",
            "midi": 51,
            "time": 129.35884250000038,
            "velocity": 0.1889763779527559,
            "duration": 0.5624297500000068
          },
          {
            "name": "G3",
            "midi": 55,
            "time": 129.92127225000038,
            "velocity": 0.2047244094488189,
            "duration": 0.5624297500000068
          },
          {
            "name": "D#3",
            "midi": 51,
            "time": 130.4837020000004,
            "velocity": 0.1889763779527559,
            "duration": 0.5624297500000068
          },
          {
            "name": "G#3",
            "midi": 56,
            "time": 131.0461317500004,
            "velocity": 0.2204724409448819,
            "duration": 0.5624297500000068
          },
          {
            "name": "D#3",
            "midi": 51,
            "time": 131.6085615000004,
            "velocity": 0.1968503937007874,
            "duration": 0.5624297500000068
          },
          {
            "name": "G#3",
            "midi": 56,
            "time": 132.1709912500004,
            "velocity": 0.1968503937007874,
            "duration": 0.5624297500000068
          },
          {
            "name": "D#3",
            "midi": 51,
            "time": 132.73342100000042,
            "velocity": 0.1968503937007874,
            "duration": 0.5624297500000068
          },
          {
            "name": "A#3",
            "midi": 58,
            "time": 133.29585075000043,
            "velocity": 0.2204724409448819,
            "duration": 0.5624297500000068
          },
          {
            "name": "D#3",
            "midi": 51,
            "time": 133.85828050000043,
            "velocity": 0.1968503937007874,
            "duration": 0.5624297500000068
          },
          {
            "name": "A#3",
            "midi": 58,
            "time": 134.42071025000044,
            "velocity": 0.1968503937007874,
            "duration": 0.5624297500000068
          },
          {
            "name": "D#3",
            "midi": 51,
            "time": 134.98314000000045,
            "velocity": 0.1968503937007874,
            "duration": 0.5624297500000068
          },
          {
            "name": "G#3",
            "midi": 56,
            "time": 135.54556975000045,
            "velocity": 0.2283464566929134,
            "duration": 0.5624297500000068
          },
          {
            "name": "D#3",
            "midi": 51,
            "time": 136.10799950000046,
            "velocity": 0.1968503937007874,
            "duration": 0.5624297500000068
          },
          {
            "name": "A#3",
            "midi": 58,
            "time": 136.67042925000047,
            "velocity": 0.2125984251968504,
            "duration": 0.5624297500000068
          },
          {
            "name": "D#3",
            "midi": 51,
            "time": 137.23285900000047,
            "velocity": 0.1889763779527559,
            "duration": 0.5624297500000068
          },
          {
            "name": "C4",
            "midi": 60,
            "time": 137.79528875000048,
            "velocity": 0.25984251968503935,
            "duration": 0.5624297500000068
          },
          {
            "name": "G#3",
            "midi": 56,
            "time": 138.3577185000005,
            "velocity": 0.2204724409448819,
            "duration": 0.5624297500000068
          },
          {
            "name": "D4",
            "midi": 62,
            "time": 138.9201482500005,
            "velocity": 0.2440944881889764,
            "duration": 0.5624297500000068
          },
          {
            "name": "G#3",
            "midi": 56,
            "time": 139.4825780000005,
            "velocity": 0.2047244094488189,
            "duration": 0.5624297500000068
          },
          {
            "name": "G3",
            "midi": 55,
            "time": 140.0450077500005,
            "velocity": 0.2204724409448819,
            "duration": 0.5624297500000068
          },
          {
            "name": "A#3",
            "midi": 58,
            "time": 140.60743750000051,
            "velocity": 0.18110236220472442,
            "duration": 0.5624297500000068
          },
          {
            "name": "G3",
            "midi": 55,
            "time": 141.16986725000052,
            "velocity": 0.18110236220472442,
            "duration": 0.5624297500000068
          },
          {
            "name": "A#3",
            "midi": 58,
            "time": 141.73229700000053,
            "velocity": 0.18110236220472442,
            "duration": 0.5624297500000068
          },
          {
            "name": "G3",
            "midi": 55,
            "time": 142.29472675000054,
            "velocity": 0.2204724409448819,
            "duration": 0.5624297500000068
          },
          {
            "name": "A#3",
            "midi": 58,
            "time": 142.85715650000054,
            "velocity": 0.18110236220472442,
            "duration": 0.5624297500000068
          },
          {
            "name": "G3",
            "midi": 55,
            "time": 143.41958625000055,
            "velocity": 0.1968503937007874,
            "duration": 0.5624297500000068
          },
          {
            "name": "A#3",
            "midi": 58,
            "time": 143.98201600000056,
            "velocity": 0.1889763779527559,
            "duration": 0.5624297500000068
          },
          {
            "name": "G3",
            "midi": 55,
            "time": 144.54444575000056,
            "velocity": 0.2204724409448819,
            "duration": 0.5624297500000068
          },
          {
            "name": "A#3",
            "midi": 58,
            "time": 145.10687550000057,
            "velocity": 0.1889763779527559,
            "duration": 0.5624297500000068
          },
          {
            "name": "G3",
            "midi": 55,
            "time": 145.66930525000058,
            "velocity": 0.2047244094488189,
            "duration": 0.5624297500000068
          },
          {
            "name": "A#3",
            "midi": 58,
            "time": 146.23173500000058,
            "velocity": 0.18110236220472442,
            "duration": 0.5530559208333443
          },
          {
            "name": "G3",
            "midi": 55,
            "time": 146.7941647500006,
            "velocity": 0.2204724409448819,
            "duration": 0.5624297500000068
          },
          {
            "name": "D#3",
            "midi": 51,
            "time": 147.3565945000006,
            "velocity": 0.1889763779527559,
            "duration": 0.5624297500000068
          },
          {
            "name": "G3",
            "midi": 55,
            "time": 147.9190242500006,
            "velocity": 0.1889763779527559,
            "duration": 0.5624297500000068
          },
          {
            "name": "D#3",
            "midi": 51,
            "time": 148.4814540000006,
            "velocity": 0.1889763779527559,
            "duration": 0.5624297500000068
          },
          {
            "name": "G#3",
            "midi": 56,
            "time": 149.04388375000062,
            "velocity": 0.2204724409448819,
            "duration": 0.5624297500000068
          },
          {
            "name": "D#3",
            "midi": 51,
            "time": 149.60631350000062,
            "velocity": 0.2125984251968504,
            "duration": 0.5624297500000068
          },
          {
            "name": "G#3",
            "midi": 56,
            "time": 150.16874325000063,
            "velocity": 0.2125984251968504,
            "duration": 0.5624297500000068
          },
          {
            "name": "D#3",
            "midi": 51,
            "time": 150.73117300000064,
            "velocity": 0.1968503937007874,
            "duration": 0.5624297500000068
          },
          {
            "name": "D#3",
            "midi": 51,
            "time": 151.29360275000064,
            "velocity": 0.2204724409448819,
            "duration": 0.5624297500000068
          },
          {
            "name": "C3",
            "midi": 48,
            "time": 151.85603250000065,
            "velocity": 0.1889763779527559,
            "duration": 0.5624297500000068
          },
          {
            "name": "D#3",
            "midi": 51,
            "time": 152.41846225000066,
            "velocity": 0.2047244094488189,
            "duration": 0.5624297500000068
          },
          {
            "name": "C3",
            "midi": 48,
            "time": 152.98089200000067,
            "velocity": 0.1889763779527559,
            "duration": 0.5624297500000068
          },
          {
            "name": "F3",
            "midi": 53,
            "time": 153.54332175000067,
            "velocity": 0.2283464566929134,
            "duration": 0.5624297500000068
          },
          {
            "name": "C#3",
            "midi": 49,
            "time": 154.10575150000068,
            "velocity": 0.1968503937007874,
            "duration": 0.5624297500000068
          },
          {
            "name": "F3",
            "midi": 53,
            "time": 154.66818125000069,
            "velocity": 0.2125984251968504,
            "duration": 0.5624297500000068
          },
          {
            "name": "C#3",
            "midi": 49,
            "time": 155.2306110000007,
            "velocity": 0.1889763779527559,
            "duration": 0.42182231250001223
          },
          {
            "name": "C#3",
            "midi": 49,
            "time": 155.7930407500007,
            "velocity": 0.23622047244094488,
            "duration": 0.42182231250001223
          },
          {
            "name": "C#3",
            "midi": 49,
            "time": 156.3554705000007,
            "velocity": 0.2047244094488189,
            "duration": 0.42182231250001223
          },
          {
            "name": "C#3",
            "midi": 49,
            "time": 156.9179002500007,
            "velocity": 0.2204724409448819,
            "duration": 0.42182231250001223
          },
          {
            "name": "C#3",
            "midi": 49,
            "time": 157.48033000000072,
            "velocity": 0.2047244094488189,
            "duration": 0.42182231250001223
          },
          {
            "name": "C#3",
            "midi": 49,
            "time": 158.04275975000073,
            "velocity": 0.2440944881889764,
            "duration": 0.5624297500000068
          },
          {
            "name": "D#3",
            "midi": 51,
            "time": 158.60518950000073,
            "velocity": 0.2047244094488189,
            "duration": 0.5624297500000068
          },
          {
            "name": "C#3",
            "midi": 49,
            "time": 159.16761925000074,
            "velocity": 0.2204724409448819,
            "duration": 0.5624297500000068
          },
          {
            "name": "D#3",
            "midi": 51,
            "time": 159.73004900000075,
            "velocity": 0.1889763779527559,
            "duration": 0.5624297500000068
          },
          {
            "name": "A2",
            "midi": 45,
            "time": 185.03938775000074,
            "velocity": 0.3543307086614173,
            "duration": 0.2812148749999892
          },
          {
            "name": "B2",
            "midi": 47,
            "time": 185.03938775000074,
            "velocity": 0.3937007874015748,
            "duration": 0.2812148749999892
          },
          {
            "name": "D#3",
            "midi": 51,
            "time": 185.03938775000074,
            "velocity": 0.4251968503937008,
            "duration": 0.2812148749999892
          },
          {
            "name": "F#3",
            "midi": 54,
            "time": 185.03938775000074,
            "velocity": 0.5039370078740157,
            "duration": 0.2812148749999892
          },
          {
            "name": "A2",
            "midi": 45,
            "time": 185.41434091666738,
            "velocity": 0.33070866141732286,
            "duration": 0.2812148749999892
          },
          {
            "name": "B2",
            "midi": 47,
            "time": 185.41434091666738,
            "velocity": 0.3937007874015748,
            "duration": 0.2812148749999892
          },
          {
            "name": "D#3",
            "midi": 51,
            "time": 185.41434091666738,
            "velocity": 0.3937007874015748,
            "duration": 0.2812148749999892
          },
          {
            "name": "F#3",
            "midi": 54,
            "time": 185.41434091666738,
            "velocity": 0.47244094488188976,
            "duration": 0.2812148749999892
          },
          {
            "name": "A2",
            "midi": 45,
            "time": 185.78929408333403,
            "velocity": 0.33070866141732286,
            "duration": 0.2812148749999892
          },
          {
            "name": "B2",
            "midi": 47,
            "time": 185.78929408333403,
            "velocity": 0.3937007874015748,
            "duration": 0.2812148749999892
          },
          {
            "name": "D#3",
            "midi": 51,
            "time": 185.78929408333403,
            "velocity": 0.3937007874015748,
            "duration": 0.2812148749999892
          },
          {
            "name": "F#3",
            "midi": 54,
            "time": 185.78929408333403,
            "velocity": 0.47244094488188976,
            "duration": 0.2812148749999892
          },
          {
            "name": "A2",
            "midi": 45,
            "time": 186.16424725000067,
            "velocity": 0.33070866141732286,
            "duration": 0.2812148749999892
          },
          {
            "name": "B2",
            "midi": 47,
            "time": 186.16424725000067,
            "velocity": 0.3937007874015748,
            "duration": 0.2812148749999892
          },
          {
            "name": "D#3",
            "midi": 51,
            "time": 186.16424725000067,
            "velocity": 0.3937007874015748,
            "duration": 0.2812148749999892
          },
          {
            "name": "F#3",
            "midi": 54,
            "time": 186.16424725000067,
            "velocity": 0.47244094488188976,
            "duration": 0.2812148749999892
          },
          {
            "name": "A2",
            "midi": 45,
            "time": 186.5392004166673,
            "velocity": 0.33070866141732286,
            "duration": 0.2812148749999892
          },
          {
            "name": "B2",
            "midi": 47,
            "time": 186.5392004166673,
            "velocity": 0.3937007874015748,
            "duration": 0.2812148749999892
          },
          {
            "name": "D#3",
            "midi": 51,
            "time": 186.5392004166673,
            "velocity": 0.3937007874015748,
            "duration": 0.2812148749999892
          },
          {
            "name": "F#3",
            "midi": 54,
            "time": 186.5392004166673,
            "velocity": 0.47244094488188976,
            "duration": 0.2812148749999892
          },
          {
            "name": "A2",
            "midi": 45,
            "time": 186.91415358333396,
            "velocity": 0.33070866141732286,
            "duration": 0.2812148749999892
          },
          {
            "name": "B2",
            "midi": 47,
            "time": 186.91415358333396,
            "velocity": 0.3937007874015748,
            "duration": 0.2812148749999892
          },
          {
            "name": "D#3",
            "midi": 51,
            "time": 186.91415358333396,
            "velocity": 0.3937007874015748,
            "duration": 0.2812148749999892
          },
          {
            "name": "F#3",
            "midi": 54,
            "time": 186.91415358333396,
            "velocity": 0.47244094488188976,
            "duration": 0.2812148749999892
          },
          {
            "name": "G#2",
            "midi": 44,
            "time": 187.2891067500006,
            "velocity": 0.36220472440944884,
            "duration": 0.2812148749999892
          },
          {
            "name": "B2",
            "midi": 47,
            "time": 187.2891067500006,
            "velocity": 0.4330708661417323,
            "duration": 0.2812148749999892
          },
          {
            "name": "E3",
            "midi": 52,
            "time": 187.2891067500006,
            "velocity": 0.4330708661417323,
            "duration": 0.2812148749999892
          },
          {
            "name": "G#3",
            "midi": 56,
            "time": 187.2891067500006,
            "velocity": 0.5196850393700787,
            "duration": 0.2812148749999892
          },
          {
            "name": "G#2",
            "midi": 44,
            "time": 187.66405991666724,
            "velocity": 0.33070866141732286,
            "duration": 0.2812148749999892
          },
          {
            "name": "B2",
            "midi": 47,
            "time": 187.66405991666724,
            "velocity": 0.3937007874015748,
            "duration": 0.2812148749999892
          },
          {
            "name": "E3",
            "midi": 52,
            "time": 187.66405991666724,
            "velocity": 0.3937007874015748,
            "duration": 0.2812148749999892
          },
          {
            "name": "G#3",
            "midi": 56,
            "time": 187.66405991666724,
            "velocity": 0.47244094488188976,
            "duration": 0.2812148749999892
          },
          {
            "name": "G#2",
            "midi": 44,
            "time": 188.03901308333388,
            "velocity": 0.33070866141732286,
            "duration": 0.2812148749999892
          },
          {
            "name": "B2",
            "midi": 47,
            "time": 188.03901308333388,
            "velocity": 0.3937007874015748,
            "duration": 0.2812148749999892
          },
          {
            "name": "E3",
            "midi": 52,
            "time": 188.03901308333388,
            "velocity": 0.3937007874015748,
            "duration": 0.2812148749999892
          },
          {
            "name": "G#3",
            "midi": 56,
            "time": 188.03901308333388,
            "velocity": 0.47244094488188976,
            "duration": 0.2812148749999892
          },
          {
            "name": "G#2",
            "midi": 44,
            "time": 188.41396625000053,
            "velocity": 0.33070866141732286,
            "duration": 0.2812148749999892
          },
          {
            "name": "B2",
            "midi": 47,
            "time": 188.41396625000053,
            "velocity": 0.3937007874015748,
            "duration": 0.2812148749999892
          },
          {
            "name": "E3",
            "midi": 52,
            "time": 188.41396625000053,
            "velocity": 0.3937007874015748,
            "duration": 0.2812148749999892
          },
          {
            "name": "G#3",
            "midi": 56,
            "time": 188.41396625000053,
            "velocity": 0.47244094488188976,
            "duration": 0.2812148749999892
          },
          {
            "name": "G#2",
            "midi": 44,
            "time": 188.78891941666717,
            "velocity": 0.33070866141732286,
            "duration": 0.2812148749999892
          },
          {
            "name": "B2",
            "midi": 47,
            "time": 188.78891941666717,
            "velocity": 0.3858267716535433,
            "duration": 0.2812148749999892
          },
          {
            "name": "E3",
            "midi": 52,
            "time": 188.78891941666717,
            "velocity": 0.3858267716535433,
            "duration": 0.2812148749999892
          },
          {
            "name": "G#3",
            "midi": 56,
            "time": 188.78891941666717,
            "velocity": 0.4566929133858268,
            "duration": 0.2812148749999892
          },
          {
            "name": "G#2",
            "midi": 44,
            "time": 189.1638725833338,
            "velocity": 0.33070866141732286,
            "duration": 0.2812148749999892
          },
          {
            "name": "B2",
            "midi": 47,
            "time": 189.1638725833338,
            "velocity": 0.3858267716535433,
            "duration": 0.2812148749999892
          },
          {
            "name": "E3",
            "midi": 52,
            "time": 189.1638725833338,
            "velocity": 0.3858267716535433,
            "duration": 0.2812148749999892
          },
          {
            "name": "G#3",
            "midi": 56,
            "time": 189.1638725833338,
            "velocity": 0.4566929133858268,
            "duration": 0.2812148749999892
          },
          {
            "name": "C#3",
            "midi": 49,
            "time": 189.53882575000046,
            "velocity": 0.36220472440944884,
            "duration": 0.2812148749999892
          },
          {
            "name": "E3",
            "midi": 52,
            "time": 189.53882575000046,
            "velocity": 0.4330708661417323,
            "duration": 0.2812148749999892
          },
          {
            "name": "F#3",
            "midi": 54,
            "time": 189.53882575000046,
            "velocity": 0.4330708661417323,
            "duration": 0.2812148749999892
          },
          {
            "name": "A#3",
            "midi": 58,
            "time": 189.53882575000046,
            "velocity": 0.5196850393700787,
            "duration": 0.2812148749999892
          },
          {
            "name": "C#3",
            "midi": 49,
            "time": 189.9137789166671,
            "velocity": 0.31496062992125984,
            "duration": 0.2812148749999892
          },
          {
            "name": "E3",
            "midi": 52,
            "time": 189.9137789166671,
            "velocity": 0.3779527559055118,
            "duration": 0.2812148749999892
          },
          {
            "name": "F#3",
            "midi": 54,
            "time": 189.9137789166671,
            "velocity": 0.3779527559055118,
            "duration": 0.2812148749999892
          },
          {
            "name": "A#3",
            "midi": 58,
            "time": 189.9137789166671,
            "velocity": 0.44881889763779526,
            "duration": 0.2812148749999892
          },
          {
            "name": "C#3",
            "midi": 49,
            "time": 190.28873208333374,
            "velocity": 0.31496062992125984,
            "duration": 0.2812148749999892
          },
          {
            "name": "E3",
            "midi": 52,
            "time": 190.28873208333374,
            "velocity": 0.3779527559055118,
            "duration": 0.2812148749999892
          },
          {
            "name": "F#3",
            "midi": 54,
            "time": 190.28873208333374,
            "velocity": 0.3779527559055118,
            "duration": 0.2812148749999892
          },
          {
            "name": "A#3",
            "midi": 58,
            "time": 190.28873208333374,
            "velocity": 0.44881889763779526,
            "duration": 0.2812148749999892
          },
          {
            "name": "C#3",
            "midi": 49,
            "time": 190.66368525000038,
            "velocity": 0.31496062992125984,
            "duration": 0.2812148749999892
          },
          {
            "name": "E3",
            "midi": 52,
            "time": 190.66368525000038,
            "velocity": 0.3779527559055118,
            "duration": 0.2812148749999892
          },
          {
            "name": "F#3",
            "midi": 54,
            "time": 190.66368525000038,
            "velocity": 0.3779527559055118,
            "duration": 0.2812148749999892
          },
          {
            "name": "A#3",
            "midi": 58,
            "time": 190.66368525000038,
            "velocity": 0.44881889763779526,
            "duration": 0.2812148749999892
          },
          {
            "name": "C#3",
            "midi": 49,
            "time": 191.03863841666703,
            "velocity": 0.31496062992125984,
            "duration": 0.2812148749999892
          },
          {
            "name": "E3",
            "midi": 52,
            "time": 191.03863841666703,
            "velocity": 0.3779527559055118,
            "duration": 0.2812148749999892
          },
          {
            "name": "F#3",
            "midi": 54,
            "time": 191.03863841666703,
            "velocity": 0.3779527559055118,
            "duration": 0.2812148749999892
          },
          {
            "name": "A#3",
            "midi": 58,
            "time": 191.03863841666703,
            "velocity": 0.44881889763779526,
            "duration": 0.2812148749999892
          },
          {
            "name": "C#3",
            "midi": 49,
            "time": 191.41359158333367,
            "velocity": 0.31496062992125984,
            "duration": 0.2812148749999892
          },
          {
            "name": "E3",
            "midi": 52,
            "time": 191.41359158333367,
            "velocity": 0.3779527559055118,
            "duration": 0.2812148749999892
          },
          {
            "name": "F#3",
            "midi": 54,
            "time": 191.41359158333367,
            "velocity": 0.3779527559055118,
            "duration": 0.2812148749999892
          },
          {
            "name": "A#3",
            "midi": 58,
            "time": 191.41359158333367,
            "velocity": 0.44881889763779526,
            "duration": 0.2812148749999892
          },
          {
            "name": "B2",
            "midi": 47,
            "time": 191.7885447500003,
            "velocity": 0.4015748031496063,
            "duration": 0.2812148749999892
          },
          {
            "name": "E3",
            "midi": 52,
            "time": 191.7885447500003,
            "velocity": 0.48031496062992124,
            "duration": 0.2812148749999892
          },
          {
            "name": "G#3",
            "midi": 56,
            "time": 191.7885447500003,
            "velocity": 0.48031496062992124,
            "duration": 0.2812148749999892
          },
          {
            "name": "B3",
            "midi": 59,
            "time": 191.7885447500003,
            "velocity": 0.5748031496062992,
            "duration": 0.2812148749999892
          },
          {
            "name": "B2",
            "midi": 47,
            "time": 192.16349791666696,
            "velocity": 0.36220472440944884,
            "duration": 0.2812148749999892
          },
          {
            "name": "E3",
            "midi": 52,
            "time": 192.16349791666696,
            "velocity": 0.4330708661417323,
            "duration": 0.2812148749999892
          },
          {
            "name": "G#3",
            "midi": 56,
            "time": 192.16349791666696,
            "velocity": 0.4330708661417323,
            "duration": 0.2812148749999892
          },
          {
            "name": "B3",
            "midi": 59,
            "time": 192.16349791666696,
            "velocity": 0.5196850393700787,
            "duration": 0.2812148749999892
          },
          {
            "name": "B2",
            "midi": 47,
            "time": 192.5384510833336,
            "velocity": 0.36220472440944884,
            "duration": 0.2812148749999892
          },
          {
            "name": "E3",
            "midi": 52,
            "time": 192.5384510833336,
            "velocity": 0.4330708661417323,
            "duration": 0.2812148749999892
          },
          {
            "name": "G#3",
            "midi": 56,
            "time": 192.5384510833336,
            "velocity": 0.4330708661417323,
            "duration": 0.2812148749999892
          },
          {
            "name": "B3",
            "midi": 59,
            "time": 192.5384510833336,
            "velocity": 0.5196850393700787,
            "duration": 0.2812148749999892
          },
          {
            "name": "B1",
            "midi": 35,
            "time": 192.91340425000024,
            "velocity": 0.4330708661417323,
            "duration": 0.2812148749999892
          },
          {
            "name": "B2",
            "midi": 47,
            "time": 192.91340425000024,
            "velocity": 0.5196850393700787,
            "duration": 0.2812148749999892
          },
          {
            "name": "B1",
            "midi": 35,
            "time": 193.28835741666688,
            "velocity": 0.4330708661417323,
            "duration": 0.2812148749999892
          },
          {
            "name": "B2",
            "midi": 47,
            "time": 193.28835741666688,
            "velocity": 0.5196850393700787,
            "duration": 0.2812148749999892
          },
          {
            "name": "B1",
            "midi": 35,
            "time": 193.66331058333353,
            "velocity": 0.4330708661417323,
            "duration": 0.2812148749999892
          },
          {
            "name": "B2",
            "midi": 47,
            "time": 193.66331058333353,
            "velocity": 0.5196850393700787,
            "duration": 0.2812148749999892
          },
          {
            "name": "E2",
            "midi": 40,
            "time": 194.03826375000017,
            "velocity": 0.4330708661417323,
            "duration": 1.1248595000000137
          },
          {
            "name": "E3",
            "midi": 52,
            "time": 194.03826375000017,
            "velocity": 0.4330708661417323,
            "duration": 1.1248595000000137
          },
          {
            "name": "C3",
            "midi": 48,
            "time": 225.53432975000018,
            "velocity": 0.2204724409448819,
            "duration": 0.3749531666666712
          },
          {
            "name": "D#3",
            "midi": 51,
            "time": 225.90928291666685,
            "velocity": 0.2047244094488189,
            "duration": 0.2812148749999892
          },
          {
            "name": "D#3",
            "midi": 51,
            "time": 226.2842360833335,
            "velocity": 0.2047244094488189,
            "duration": 0.2812148749999892
          },
          {
            "name": "G#3",
            "midi": 56,
            "time": 226.65918925000014,
            "velocity": 0.2204724409448819,
            "duration": 0.3749531666666712
          },
          {
            "name": "D#3",
            "midi": 51,
            "time": 227.0341424166668,
            "velocity": 0.2047244094488189,
            "duration": 0.2812148749999892
          },
          {
            "name": "D#3",
            "midi": 51,
            "time": 227.40909558333345,
            "velocity": 0.2047244094488189,
            "duration": 0.2812148749999892
          },
          {
            "name": "G3",
            "midi": 55,
            "time": 227.7840487500001,
            "velocity": 0.2204724409448819,
            "duration": 0.3749531666666712
          },
          {
            "name": "D#3",
            "midi": 51,
            "time": 228.15900191666677,
            "velocity": 0.2047244094488189,
            "duration": 0.2812148749999892
          },
          {
            "name": "D#3",
            "midi": 51,
            "time": 228.5339550833334,
            "velocity": 0.2047244094488189,
            "duration": 0.2812148749999892
          },
          {
            "name": "G3",
            "midi": 55,
            "time": 228.90890825000005,
            "velocity": 0.2204724409448819,
            "duration": 0.3749531666666712
          },
          {
            "name": "D#3",
            "midi": 51,
            "time": 229.28386141666672,
            "velocity": 0.2125984251968504,
            "duration": 0.2812148749999892
          },
          {
            "name": "D#3",
            "midi": 51,
            "time": 229.65881458333337,
            "velocity": 0.2125984251968504,
            "duration": 0.2812148749999892
          },
          {
            "name": "G#3",
            "midi": 56,
            "time": 230.03376775,
            "velocity": 0.2204724409448819,
            "duration": 0.3749531666666712
          },
          {
            "name": "D#3",
            "midi": 51,
            "time": 230.40872091666668,
            "velocity": 0.2047244094488189,
            "duration": 0.2812148749999892
          },
          {
            "name": "D#3",
            "midi": 51,
            "time": 230.78367408333332,
            "velocity": 0.2047244094488189,
            "duration": 0.2812148749999892
          },
          {
            "name": "G#3",
            "midi": 56,
            "time": 231.15862724999997,
            "velocity": 0.2204724409448819,
            "duration": 0.3749531666666712
          },
          {
            "name": "D#3",
            "midi": 51,
            "time": 231.53358041666664,
            "velocity": 0.2047244094488189,
            "duration": 0.2812148749999892
          },
          {
            "name": "D#3",
            "midi": 51,
            "time": 231.90853358333328,
            "velocity": 0.2047244094488189,
            "duration": 0.2812148749999892
          },
          {
            "name": "A#3",
            "midi": 58,
            "time": 232.28348674999992,
            "velocity": 0.2204724409448819,
            "duration": 0.3749531666666712
          },
          {
            "name": "D#3",
            "midi": 51,
            "time": 232.6584399166666,
            "velocity": 0.1968503937007874,
            "duration": 0.2812148749999892
          },
          {
            "name": "D#3",
            "midi": 51,
            "time": 233.03339308333324,
            "velocity": 0.1968503937007874,
            "duration": 0.2812148749999892
          },
          {
            "name": "A#3",
            "midi": 58,
            "time": 233.40834624999988,
            "velocity": 0.1968503937007874,
            "duration": 0.3749531666666712
          },
          {
            "name": "D#3",
            "midi": 51,
            "time": 233.78329941666655,
            "velocity": 0.1968503937007874,
            "duration": 0.2812148749999892
          },
          {
            "name": "D#3",
            "midi": 51,
            "time": 234.1582525833332,
            "velocity": 0.1968503937007874,
            "duration": 0.2812148749999892
          },
          {
            "name": "G#3",
            "midi": 56,
            "time": 234.53320574999984,
            "velocity": 0.2283464566929134,
            "duration": 0.3749531666666712
          },
          {
            "name": "D#3",
            "midi": 51,
            "time": 234.9081589166665,
            "velocity": 0.2125984251968504,
            "duration": 0.2812148749999892
          },
          {
            "name": "D#3",
            "midi": 51,
            "time": 235.28311208333315,
            "velocity": 0.2125984251968504,
            "duration": 0.2812148749999892
          },
          {
            "name": "A#3",
            "midi": 58,
            "time": 235.6580652499998,
            "velocity": 0.2047244094488189,
            "duration": 0.3749531666666712
          },
          {
            "name": "D#3",
            "midi": 51,
            "time": 236.03301841666647,
            "velocity": 0.2047244094488189,
            "duration": 0.2812148749999892
          },
          {
            "name": "D#3",
            "midi": 51,
            "time": 236.4079715833331,
            "velocity": 0.2047244094488189,
            "duration": 0.2812148749999892
          },
          {
            "name": "C4",
            "midi": 60,
            "time": 236.78292474999975,
            "velocity": 0.23622047244094488,
            "duration": 0.3749531666666712
          },
          {
            "name": "G#3",
            "midi": 56,
            "time": 237.15787791666642,
            "velocity": 0.2125984251968504,
            "duration": 0.2812148749999892
          },
          {
            "name": "G#3",
            "midi": 56,
            "time": 237.53283108333306,
            "velocity": 0.2125984251968504,
            "duration": 0.2812148749999892
          },
          {
            "name": "D4",
            "midi": 62,
            "time": 237.9077842499997,
            "velocity": 0.2125984251968504,
            "duration": 0.3749531666666712
          },
          {
            "name": "G#3",
            "midi": 56,
            "time": 238.28273741666638,
            "velocity": 0.2125984251968504,
            "duration": 0.2812148749999892
          },
          {
            "name": "G#3",
            "midi": 56,
            "time": 238.65769058333302,
            "velocity": 0.1968503937007874,
            "duration": 0.2812148749999892
          },
          {
            "name": "G3",
            "midi": 55,
            "time": 239.03264374999966,
            "velocity": 0.2204724409448819,
            "duration": 0.3749531666666712
          },
          {
            "name": "A#3",
            "midi": 58,
            "time": 239.40759691666634,
            "velocity": 0.2125984251968504,
            "duration": 0.2812148749999892
          },
          {
            "name": "A#3",
            "midi": 58,
            "time": 239.78255008333298,
            "velocity": 0.2125984251968504,
            "duration": 0.2812148749999892
          },
          {
            "name": "G3",
            "midi": 55,
            "time": 240.15750324999962,
            "velocity": 0.18110236220472442,
            "duration": 0.3749531666666712
          },
          {
            "name": "A#3",
            "midi": 58,
            "time": 240.5324564166663,
            "velocity": 0.18110236220472442,
            "duration": 0.2812148749999892
          },
          {
            "name": "A#3",
            "midi": 58,
            "time": 240.90740958333294,
            "velocity": 0.18110236220472442,
            "duration": 0.2812148749999892
          },
          {
            "name": "G3",
            "midi": 55,
            "time": 241.28236274999958,
            "velocity": 0.2204724409448819,
            "duration": 0.3749531666666712
          },
          {
            "name": "A#3",
            "midi": 58,
            "time": 241.65731591666625,
            "velocity": 0.2047244094488189,
            "duration": 0.2812148749999892
          },
          {
            "name": "A#3",
            "midi": 58,
            "time": 242.0322690833329,
            "velocity": 0.2047244094488189,
            "duration": 0.2812148749999892
          },
          {
            "name": "G3",
            "midi": 55,
            "time": 242.40722224999953,
            "velocity": 0.1968503937007874,
            "duration": 0.3749531666666712
          },
          {
            "name": "A#3",
            "midi": 58,
            "time": 242.7821754166662,
            "velocity": 0.1968503937007874,
            "duration": 0.2812148749999892
          },
          {
            "name": "A#3",
            "midi": 58,
            "time": 243.15712858333285,
            "velocity": 0.1968503937007874,
            "duration": 0.2812148749999892
          },
          {
            "name": "G3",
            "midi": 55,
            "time": 243.5320817499995,
            "velocity": 0.2204724409448819,
            "duration": 0.3749531666666712
          },
          {
            "name": "A#3",
            "midi": 58,
            "time": 243.90703491666616,
            "velocity": 0.1968503937007874,
            "duration": 0.2812148749999892
          },
          {
            "name": "A#3",
            "midi": 58,
            "time": 244.2819880833328,
            "velocity": 0.1968503937007874,
            "duration": 0.2812148749999892
          },
          {
            "name": "G3",
            "midi": 55,
            "time": 244.65694124999945,
            "velocity": 0.2047244094488189,
            "duration": 0.3749531666666712
          },
          {
            "name": "A#3",
            "midi": 58,
            "time": 245.03189441666612,
            "velocity": 0.2047244094488189,
            "duration": 0.2812148749999892
          },
          {
            "name": "A#3",
            "midi": 58,
            "time": 245.40684758333276,
            "velocity": 0.2047244094488189,
            "duration": 0.27652796041667216
          },
          {
            "name": "G3",
            "midi": 55,
            "time": 245.78180074999943,
            "velocity": 0.2204724409448819,
            "duration": 0.3749531666666712
          },
          {
            "name": "D#3",
            "midi": 51,
            "time": 246.1567539166661,
            "velocity": 0.2047244094488189,
            "duration": 0.2812148749999892
          },
          {
            "name": "D#3",
            "midi": 51,
            "time": 246.53170708333275,
            "velocity": 0.2047244094488189,
            "duration": 0.2812148749999892
          },
          {
            "name": "G3",
            "midi": 55,
            "time": 246.9066602499994,
            "velocity": 0.1889763779527559,
            "duration": 0.3749531666666712
          },
          {
            "name": "D#3",
            "midi": 51,
            "time": 247.28161341666606,
            "velocity": 0.1889763779527559,
            "duration": 0.2812148749999892
          },
          {
            "name": "D#3",
            "midi": 51,
            "time": 247.6565665833327,
            "velocity": 0.1889763779527559,
            "duration": 0.2812148749999892
          },
          {
            "name": "G#3",
            "midi": 56,
            "time": 248.03151974999935,
            "velocity": 0.2204724409448819,
            "duration": 0.3749531666666712
          },
          {
            "name": "D#3",
            "midi": 51,
            "time": 248.40647291666602,
            "velocity": 0.2047244094488189,
            "duration": 0.2812148749999892
          },
          {
            "name": "D#3",
            "midi": 51,
            "time": 248.78142608333266,
            "velocity": 0.2047244094488189,
            "duration": 0.2812148749999892
          },
          {
            "name": "G#3",
            "midi": 56,
            "time": 249.1563792499993,
            "velocity": 0.2125984251968504,
            "duration": 0.3749531666666712
          },
          {
            "name": "D#3",
            "midi": 51,
            "time": 249.53133241666598,
            "velocity": 0.1968503937007874,
            "duration": 0.2812148749999892
          },
          {
            "name": "D#3",
            "midi": 51,
            "time": 249.90628558333262,
            "velocity": 0.1968503937007874,
            "duration": 0.2812148749999892
          },
          {
            "name": "D#3",
            "midi": 51,
            "time": 250.28123874999926,
            "velocity": 0.2204724409448819,
            "duration": 0.3749531666666712
          },
          {
            "name": "C3",
            "midi": 48,
            "time": 250.65619191666593,
            "velocity": 0.1968503937007874,
            "duration": 0.2812148749999892
          },
          {
            "name": "C3",
            "midi": 48,
            "time": 251.03114508333258,
            "velocity": 0.1968503937007874,
            "duration": 0.2812148749999892
          },
          {
            "name": "D#3",
            "midi": 51,
            "time": 251.40609824999922,
            "velocity": 0.2047244094488189,
            "duration": 0.3749531666666712
          },
          {
            "name": "C3",
            "midi": 48,
            "time": 251.7810514166659,
            "velocity": 0.2047244094488189,
            "duration": 0.2812148749999892
          },
          {
            "name": "C3",
            "midi": 48,
            "time": 252.15600458333253,
            "velocity": 0.2047244094488189,
            "duration": 0.2812148749999892
          },
          {
            "name": "F3",
            "midi": 53,
            "time": 252.53095774999917,
            "velocity": 0.2283464566929134,
            "duration": 0.3749531666666712
          },
          {
            "name": "C#3",
            "midi": 49,
            "time": 252.90591091666585,
            "velocity": 0.2047244094488189,
            "duration": 0.2812148749999892
          },
          {
            "name": "C#3",
            "midi": 49,
            "time": 253.2808640833325,
            "velocity": 0.2047244094488189,
            "duration": 0.2812148749999892
          },
          {
            "name": "F3",
            "midi": 53,
            "time": 253.65581724999913,
            "velocity": 0.2125984251968504,
            "duration": 0.3749531666666712
          },
          {
            "name": "C#3",
            "midi": 49,
            "time": 254.0307704166658,
            "velocity": 0.1968503937007874,
            "duration": 0.2812148749999892
          },
          {
            "name": "C#3",
            "midi": 49,
            "time": 254.40572358333245,
            "velocity": 0.1968503937007874,
            "duration": 0.2812148749999892
          },
          {
            "name": "G3",
            "midi": 55,
            "time": 254.7806767499991,
            "velocity": 0.23622047244094488,
            "duration": 0.3749531666666712
          },
          {
            "name": "C#3",
            "midi": 49,
            "time": 255.15562991666576,
            "velocity": 0.2204724409448819,
            "duration": 0.2812148749999892
          },
          {
            "name": "C#3",
            "midi": 49,
            "time": 255.5305830833324,
            "velocity": 0.2204724409448819,
            "duration": 0.2812148749999892
          },
          {
            "name": "C#3",
            "midi": 49,
            "time": 255.90553624999905,
            "velocity": 0.2204724409448819,
            "duration": 0.2812148749999892
          },
          {
            "name": "C#3",
            "midi": 49,
            "time": 256.2804894166657,
            "velocity": 0.1968503937007874,
            "duration": 0.2812148749999892
          },
          {
            "name": "C#3",
            "midi": 49,
            "time": 256.6554425833324,
            "velocity": 0.1968503937007874,
            "duration": 0.2812148749999892
          },
          {
            "name": "C#3",
            "midi": 49,
            "time": 257.03039574999906,
            "velocity": 0.2440944881889764,
            "duration": 0.3749531666666712
          },
          {
            "name": "D#3",
            "midi": 51,
            "time": 257.40534891666573,
            "velocity": 0.2204724409448819,
            "duration": 0.2812148749999892
          },
          {
            "name": "D#3",
            "midi": 51,
            "time": 257.7803020833324,
            "velocity": 0.2204724409448819,
            "duration": 0.2812148749999892
          },
          {
            "name": "C#3",
            "midi": 49,
            "time": 258.1552552499991,
            "velocity": 0.2204724409448819,
            "duration": 0.3749531666666712
          },
          {
            "name": "D#3",
            "midi": 51,
            "time": 258.53020841666574,
            "velocity": 0.1968503937007874,
            "duration": 0.2812148749999892
          },
          {
            "name": "D#3",
            "midi": 51,
            "time": 258.9051615833324,
            "velocity": 0.1968503937007874,
            "duration": 0.2812148749999892
          },
          {
            "name": "G#3",
            "midi": 56,
            "time": 261.52983374999906,
            "velocity": 0.2204724409448819,
            "duration": 0.3749531666666712
          },
          {
            "name": "D#3",
            "midi": 51,
            "time": 261.9047869166657,
            "velocity": 0.2047244094488189,
            "duration": 0.2812148749999892
          },
          {
            "name": "D#3",
            "midi": 51,
            "time": 262.2797400833324,
            "velocity": 0.2047244094488189,
            "duration": 0.2812148749999892
          },
          {
            "name": "G#3",
            "midi": 56,
            "time": 262.65469324999907,
            "velocity": 0.2204724409448819,
            "duration": 0.3749531666666712
          },
          {
            "name": "D#3",
            "midi": 51,
            "time": 263.02964641666574,
            "velocity": 0.2047244094488189,
            "duration": 0.2812148749999892
          },
          {
            "name": "D#3",
            "midi": 51,
            "time": 263.4045995833324,
            "velocity": 0.2047244094488189,
            "duration": 0.2812148749999892
          },
          {
            "name": "G3",
            "midi": 55,
            "time": 263.7795527499991,
            "velocity": 0.2204724409448819,
            "duration": 0.3749531666666712
          },
          {
            "name": "D#3",
            "midi": 51,
            "time": 264.15450591666576,
            "velocity": 0.2047244094488189,
            "duration": 0.2812148749999892
          },
          {
            "name": "D#3",
            "midi": 51,
            "time": 264.5294590833324,
            "velocity": 0.2047244094488189,
            "duration": 0.2812148749999892
          },
          {
            "name": "G3",
            "midi": 55,
            "time": 264.9044122499991,
            "velocity": 0.2204724409448819,
            "duration": 0.3749531666666712
          },
          {
            "name": "D#3",
            "midi": 51,
            "time": 265.27936541666577,
            "velocity": 0.2125984251968504,
            "duration": 0.2812148749999892
          },
          {
            "name": "D#3",
            "midi": 51,
            "time": 265.65431858333244,
            "velocity": 0.2125984251968504,
            "duration": 0.2812148749999892
          },
          {
            "name": "G#3",
            "midi": 56,
            "time": 266.0292717499991,
            "velocity": 0.2204724409448819,
            "duration": 0.3749531666666712
          },
          {
            "name": "D#3",
            "midi": 51,
            "time": 266.4042249166658,
            "velocity": 0.2047244094488189,
            "duration": 0.2812148749999892
          },
          {
            "name": "D#3",
            "midi": 51,
            "time": 266.77917808333245,
            "velocity": 0.2047244094488189,
            "duration": 0.2812148749999892
          },
          {
            "name": "G#3",
            "midi": 56,
            "time": 267.1541312499991,
            "velocity": 0.2204724409448819,
            "duration": 0.3749531666666712
          },
          {
            "name": "D#3",
            "midi": 51,
            "time": 267.5290844166658,
            "velocity": 0.2047244094488189,
            "duration": 0.2812148749999892
          },
          {
            "name": "D#3",
            "midi": 51,
            "time": 267.90403758333247,
            "velocity": 0.2047244094488189,
            "duration": 0.2812148749999892
          },
          {
            "name": "G3",
            "midi": 55,
            "time": 268.27899074999914,
            "velocity": 0.2204724409448819,
            "duration": 0.3749531666666712
          },
          {
            "name": "D#3",
            "midi": 51,
            "time": 268.6539439166658,
            "velocity": 0.1968503937007874,
            "duration": 0.2812148749999892
          },
          {
            "name": "D#3",
            "midi": 51,
            "time": 269.0288970833325,
            "velocity": 0.1968503937007874,
            "duration": 0.2812148749999892
          },
          {
            "name": "G3",
            "midi": 55,
            "time": 269.40385024999915,
            "velocity": 0.1968503937007874,
            "duration": 0.3749531666666712
          },
          {
            "name": "D#3",
            "midi": 51,
            "time": 269.7788034166658,
            "velocity": 0.1968503937007874,
            "duration": 0.2812148749999892
          },
          {
            "name": "D#3",
            "midi": 51,
            "time": 270.1537565833325,
            "velocity": 0.1968503937007874,
            "duration": 0.2812148749999892
          },
          {
            "name": "G#3",
            "midi": 56,
            "time": 270.52870974999917,
            "velocity": 0.2283464566929134,
            "duration": 0.3749531666666712
          },
          {
            "name": "D#3",
            "midi": 51,
            "time": 270.90366291666584,
            "velocity": 0.2125984251968504,
            "duration": 0.2812148749999892
          },
          {
            "name": "D#3",
            "midi": 51,
            "time": 271.2786160833325,
            "velocity": 0.2125984251968504,
            "duration": 0.2812148749999892
          },
          {
            "name": "G3",
            "midi": 55,
            "time": 271.6535692499992,
            "velocity": 0.2047244094488189,
            "duration": 0.3749531666666712
          },
          {
            "name": "D#3",
            "midi": 51,
            "time": 272.02852241666585,
            "velocity": 0.2047244094488189,
            "duration": 0.2812148749999892
          },
          {
            "name": "D#3",
            "midi": 51,
            "time": 272.4034755833325,
            "velocity": 0.2047244094488189,
            "duration": 0.2812148749999892
          },
          {
            "name": "F3",
            "midi": 53,
            "time": 272.7784287499992,
            "velocity": 0.23622047244094488,
            "duration": 0.3749531666666712
          },
          {
            "name": "G#2",
            "midi": 44,
            "time": 273.15338191666586,
            "velocity": 0.2125984251968504,
            "duration": 0.2812148749999892
          },
          {
            "name": "G#2",
            "midi": 44,
            "time": 273.52833508333254,
            "velocity": 0.2125984251968504,
            "duration": 0.2812148749999892
          },
          {
            "name": "F3",
            "midi": 53,
            "time": 273.9032882499992,
            "velocity": 0.2125984251968504,
            "duration": 0.3749531666666712
          },
          {
            "name": "G#2",
            "midi": 44,
            "time": 274.2782414166659,
            "velocity": 0.2125984251968504,
            "duration": 0.2812148749999892
          },
          {
            "name": "G#2",
            "midi": 44,
            "time": 274.65319458333255,
            "velocity": 0.1968503937007874,
            "duration": 0.2812148749999892
          },
          {
            "name": "D#2",
            "midi": 39,
            "time": 290.7761807499992,
            "velocity": 0.2677165354330709,
            "duration": 1.1248595000000137
          },
          {
            "name": "A#2",
            "midi": 46,
            "time": 290.7761807499992,
            "velocity": 0.2125984251968504,
            "duration": 0.3749531666666712
          },
          {
            "name": "D#3",
            "midi": 51,
            "time": 291.15113391666586,
            "velocity": 0.1968503937007874,
            "duration": 0.2812148749999892
          },
          {
            "name": "D#3",
            "midi": 51,
            "time": 291.5260870833325,
            "velocity": 0.1968503937007874,
            "duration": 0.2812148749999892
          },
          {
            "name": "D#2",
            "midi": 39,
            "time": 291.9010402499992,
            "velocity": 0.23622047244094488,
            "duration": 1.1248595000000137
          },
          {
            "name": "D#3",
            "midi": 51,
            "time": 292.27599341666587,
            "velocity": 0.1968503937007874,
            "duration": 0.2812148749999892
          },
          {
            "name": "D#3",
            "midi": 51,
            "time": 292.65094658333254,
            "velocity": 0.1968503937007874,
            "duration": 0.2812148749999892
          },
          {
            "name": "G#2",
            "midi": 44,
            "time": 293.0258997499992,
            "velocity": 0.2283464566929134,
            "duration": 0.3749531666666712
          },
          {
            "name": "D#3",
            "midi": 51,
            "time": 293.4008529166659,
            "velocity": 0.1968503937007874,
            "duration": 0.2812148749999892
          },
          {
            "name": "D#3",
            "midi": 51,
            "time": 293.77580608333255,
            "velocity": 0.1968503937007874,
            "duration": 0.2812148749999892
          },
          {
            "name": "D#3",
            "midi": 51,
            "time": 294.1507592499992,
            "velocity": 0.1968503937007874,
            "duration": 0.2812148749999892
          },
          {
            "name": "D#3",
            "midi": 51,
            "time": 294.5257124166659,
            "velocity": 0.1968503937007874,
            "duration": 0.2812148749999892
          },
          {
            "name": "D#3",
            "midi": 51,
            "time": 294.90066558333257,
            "velocity": 0.1968503937007874,
            "duration": 0.2812148749999892
          },
          {
            "name": "D#3",
            "midi": 51,
            "time": 295.27561874999924,
            "velocity": 0.1968503937007874,
            "duration": 0.33745785000002115
          },
          {
            "name": "D#3",
            "midi": 51,
            "time": 295.6505719166659,
            "velocity": 0.1968503937007874,
            "duration": 0.33745785000002115
          },
          {
            "name": "D#3",
            "midi": 51,
            "time": 296.0255250833326,
            "velocity": 0.1968503937007874,
            "duration": 0.33745785000002115
          },
          {
            "name": "D#3",
            "midi": 51,
            "time": 296.40047824999925,
            "velocity": 0.2047244094488189,
            "duration": 0.33745785000002115
          },
          {
            "name": "D#3",
            "midi": 51,
            "time": 296.7754314166659,
            "velocity": 0.2125984251968504,
            "duration": 0.33745785000002115
          },
          {
            "name": "D#3",
            "midi": 51,
            "time": 297.1503845833326,
            "velocity": 0.2204724409448819,
            "duration": 0.33745785000002115
          },
          {
            "name": "D#2",
            "midi": 39,
            "time": 297.52533774999927,
            "velocity": 0.1889763779527559,
            "duration": 0.33745785000002115
          },
          {
            "name": "C#3",
            "midi": 49,
            "time": 297.52533774999927,
            "velocity": 0.1889763779527559,
            "duration": 0.33745785000002115
          },
          {
            "name": "D#3",
            "midi": 51,
            "time": 297.52533774999927,
            "velocity": 0.23622047244094488,
            "duration": 0.33745785000002115
          },
          {
            "name": "D#2",
            "midi": 39,
            "time": 297.90029091666594,
            "velocity": 0.15748031496062992,
            "duration": 0.33745785000002115
          },
          {
            "name": "C#3",
            "midi": 49,
            "time": 297.90029091666594,
            "velocity": 0.15748031496062992,
            "duration": 0.33745785000002115
          },
          {
            "name": "D#3",
            "midi": 51,
            "time": 297.90029091666594,
            "velocity": 0.1968503937007874,
            "duration": 0.33745785000002115
          },
          {
            "name": "D#2",
            "midi": 39,
            "time": 298.2752440833326,
            "velocity": 0.15748031496062992,
            "duration": 0.33745785000002115
          },
          {
            "name": "C#3",
            "midi": 49,
            "time": 298.2752440833326,
            "velocity": 0.15748031496062992,
            "duration": 0.33745785000002115
          },
          {
            "name": "D#3",
            "midi": 51,
            "time": 298.2752440833326,
            "velocity": 0.1968503937007874,
            "duration": 0.33745785000002115
          },
          {
            "name": "D#2",
            "midi": 39,
            "time": 298.6501972499993,
            "velocity": 0.15748031496062992,
            "duration": 0.33745785000002115
          },
          {
            "name": "C#3",
            "midi": 49,
            "time": 298.6501972499993,
            "velocity": 0.15748031496062992,
            "duration": 0.33745785000002115
          },
          {
            "name": "D#3",
            "midi": 51,
            "time": 298.6501972499993,
            "velocity": 0.1968503937007874,
            "duration": 0.33745785000002115
          },
          {
            "name": "D#2",
            "midi": 39,
            "time": 299.02515041666595,
            "velocity": 0.15748031496062992,
            "duration": 0.33745785000002115
          },
          {
            "name": "C#3",
            "midi": 49,
            "time": 299.02515041666595,
            "velocity": 0.15748031496062992,
            "duration": 0.33745785000002115
          },
          {
            "name": "D#3",
            "midi": 51,
            "time": 299.02515041666595,
            "velocity": 0.1968503937007874,
            "duration": 0.33745785000002115
          },
          {
            "name": "D#2",
            "midi": 39,
            "time": 299.4001035833326,
            "velocity": 0.15748031496062992,
            "duration": 0.33745785000002115
          },
          {
            "name": "C#3",
            "midi": 49,
            "time": 299.4001035833326,
            "velocity": 0.15748031496062992,
            "duration": 0.33745785000002115
          },
          {
            "name": "D#3",
            "midi": 51,
            "time": 299.4001035833326,
            "velocity": 0.2047244094488189,
            "duration": 0.33745785000002115
          },
          {
            "name": "D#2",
            "midi": 39,
            "time": 299.7750567499993,
            "velocity": 0.16535433070866143,
            "duration": 0.33745785000002115
          },
          {
            "name": "C#3",
            "midi": 49,
            "time": 299.7750567499993,
            "velocity": 0.16535433070866143,
            "duration": 0.33745785000002115
          },
          {
            "name": "D#3",
            "midi": 51,
            "time": 299.7750567499993,
            "velocity": 0.2047244094488189,
            "duration": 0.33745785000002115
          },
          {
            "name": "D#2",
            "midi": 39,
            "time": 300.15000991666597,
            "velocity": 0.16535433070866143,
            "duration": 0.33745785000002115
          },
          {
            "name": "C#3",
            "midi": 49,
            "time": 300.15000991666597,
            "velocity": 0.16535433070866143,
            "duration": 0.33745785000002115
          },
          {
            "name": "D#3",
            "midi": 51,
            "time": 300.15000991666597,
            "velocity": 0.2125984251968504,
            "duration": 0.33745785000002115
          },
          {
            "name": "D#2",
            "midi": 39,
            "time": 300.52496308333264,
            "velocity": 0.1732283464566929,
            "duration": 0.33745785000002115
          },
          {
            "name": "C#3",
            "midi": 49,
            "time": 300.52496308333264,
            "velocity": 0.1732283464566929,
            "duration": 0.33745785000002115
          },
          {
            "name": "D#3",
            "midi": 51,
            "time": 300.52496308333264,
            "velocity": 0.2125984251968504,
            "duration": 0.33745785000002115
          },
          {
            "name": "D#2",
            "midi": 39,
            "time": 300.8999162499993,
            "velocity": 0.15748031496062992,
            "duration": 0.33745785000002115
          },
          {
            "name": "C#3",
            "midi": 49,
            "time": 300.8999162499993,
            "velocity": 0.15748031496062992,
            "duration": 0.33745785000002115
          },
          {
            "name": "D#3",
            "midi": 51,
            "time": 300.8999162499993,
            "velocity": 0.1968503937007874,
            "duration": 0.33745785000002115
          },
          {
            "name": "D#2",
            "midi": 39,
            "time": 301.274869416666,
            "velocity": 0.15748031496062992,
            "duration": 0.33745785000002115
          },
          {
            "name": "C#3",
            "midi": 49,
            "time": 301.274869416666,
            "velocity": 0.15748031496062992,
            "duration": 0.33745785000002115
          },
          {
            "name": "D#3",
            "midi": 51,
            "time": 301.274869416666,
            "velocity": 0.1968503937007874,
            "duration": 0.33745785000002115
          },
          {
            "name": "D#2",
            "midi": 39,
            "time": 301.64982258333265,
            "velocity": 0.15748031496062992,
            "duration": 0.33745785000002115
          },
          {
            "name": "C#3",
            "midi": 49,
            "time": 301.64982258333265,
            "velocity": 0.15748031496062992,
            "duration": 0.33745785000002115
          },
          {
            "name": "D#3",
            "midi": 51,
            "time": 301.64982258333265,
            "velocity": 0.1968503937007874,
            "duration": 0.33745785000002115
          },
          {
            "name": "G#2",
            "midi": 44,
            "time": 302.0247757499993,
            "velocity": 0.15748031496062992,
            "duration": 0.33745785000002115
          },
          {
            "name": "C3",
            "midi": 48,
            "time": 302.0247757499993,
            "velocity": 0.15748031496062992,
            "duration": 0.33745785000002115
          },
          {
            "name": "D#3",
            "midi": 51,
            "time": 302.0247757499993,
            "velocity": 0.1968503937007874,
            "duration": 0.33745785000002115
          },
          {
            "name": "D#3",
            "midi": 51,
            "time": 302.399728916666,
            "velocity": 0.1968503937007874,
            "duration": 0.33745785000002115
          },
          {
            "name": "D#3",
            "midi": 51,
            "time": 302.77468208333266,
            "velocity": 0.1968503937007874,
            "duration": 0.33745785000002115
          },
          {
            "name": "D#3",
            "midi": 51,
            "time": 303.14963524999933,
            "velocity": 0.1968503937007874,
            "duration": 0.33745785000002115
          },
          {
            "name": "D#3",
            "midi": 51,
            "time": 303.524588416666,
            "velocity": 0.1968503937007874,
            "duration": 0.33745785000002115
          },
          {
            "name": "D#3",
            "midi": 51,
            "time": 303.8995415833327,
            "velocity": 0.1968503937007874,
            "duration": 0.33745785000002115
          },
          {
            "name": "D#3",
            "midi": 51,
            "time": 304.27449474999935,
            "velocity": 0.1968503937007874,
            "duration": 0.33745785000002115
          },
          {
            "name": "D#3",
            "midi": 51,
            "time": 304.649447916666,
            "velocity": 0.1968503937007874,
            "duration": 0.33745785000002115
          },
          {
            "name": "D#3",
            "midi": 51,
            "time": 305.0244010833327,
            "velocity": 0.1968503937007874,
            "duration": 0.33745785000002115
          },
          {
            "name": "D#3",
            "midi": 51,
            "time": 305.39935424999936,
            "velocity": 0.2047244094488189,
            "duration": 0.33745785000002115
          },
          {
            "name": "D#3",
            "midi": 51,
            "time": 305.77430741666603,
            "velocity": 0.2125984251968504,
            "duration": 0.33745785000002115
          },
          {
            "name": "D#3",
            "midi": 51,
            "time": 306.1492605833327,
            "velocity": 0.2204724409448819,
            "duration": 0.33745785000002115
          },
          {
            "name": "D#2",
            "midi": 39,
            "time": 306.5242137499994,
            "velocity": 0.1889763779527559,
            "duration": 0.33745785000002115
          },
          {
            "name": "C#3",
            "midi": 49,
            "time": 306.5242137499994,
            "velocity": 0.1889763779527559,
            "duration": 0.33745785000002115
          },
          {
            "name": "D#3",
            "midi": 51,
            "time": 306.5242137499994,
            "velocity": 0.23622047244094488,
            "duration": 0.33745785000002115
          },
          {
            "name": "D#2",
            "midi": 39,
            "time": 306.89916691666605,
            "velocity": 0.15748031496062992,
            "duration": 0.33745785000002115
          },
          {
            "name": "C#3",
            "midi": 49,
            "time": 306.89916691666605,
            "velocity": 0.15748031496062992,
            "duration": 0.33745785000002115
          },
          {
            "name": "D#3",
            "midi": 51,
            "time": 306.89916691666605,
            "velocity": 0.1968503937007874,
            "duration": 0.33745785000002115
          },
          {
            "name": "D#2",
            "midi": 39,
            "time": 307.2741200833327,
            "velocity": 0.15748031496062992,
            "duration": 0.33745785000002115
          },
          {
            "name": "C#3",
            "midi": 49,
            "time": 307.2741200833327,
            "velocity": 0.15748031496062992,
            "duration": 0.33745785000002115
          },
          {
            "name": "D#3",
            "midi": 51,
            "time": 307.2741200833327,
            "velocity": 0.1968503937007874,
            "duration": 0.33745785000002115
          },
          {
            "name": "D#2",
            "midi": 39,
            "time": 307.6490732499994,
            "velocity": 0.15748031496062992,
            "duration": 0.33745785000002115
          },
          {
            "name": "C#3",
            "midi": 49,
            "time": 307.6490732499994,
            "velocity": 0.15748031496062992,
            "duration": 0.33745785000002115
          },
          {
            "name": "D#3",
            "midi": 51,
            "time": 307.6490732499994,
            "velocity": 0.1968503937007874,
            "duration": 0.33745785000002115
          },
          {
            "name": "D#2",
            "midi": 39,
            "time": 308.02402641666606,
            "velocity": 0.15748031496062992,
            "duration": 0.33745785000002115
          },
          {
            "name": "C#3",
            "midi": 49,
            "time": 308.02402641666606,
            "velocity": 0.15748031496062992,
            "duration": 0.33745785000002115
          },
          {
            "name": "D#3",
            "midi": 51,
            "time": 308.02402641666606,
            "velocity": 0.1968503937007874,
            "duration": 0.33745785000002115
          },
          {
            "name": "D#2",
            "midi": 39,
            "time": 308.39897958333273,
            "velocity": 0.15748031496062992,
            "duration": 0.33745785000002115
          },
          {
            "name": "C#3",
            "midi": 49,
            "time": 308.39897958333273,
            "velocity": 0.15748031496062992,
            "duration": 0.33745785000002115
          },
          {
            "name": "D#3",
            "midi": 51,
            "time": 308.39897958333273,
            "velocity": 0.2047244094488189,
            "duration": 0.33745785000002115
          },
          {
            "name": "D#2",
            "midi": 39,
            "time": 308.7739327499994,
            "velocity": 0.16535433070866143,
            "duration": 0.33745785000002115
          },
          {
            "name": "C#3",
            "midi": 49,
            "time": 308.7739327499994,
            "velocity": 0.16535433070866143,
            "duration": 0.33745785000002115
          },
          {
            "name": "D#3",
            "midi": 51,
            "time": 308.7739327499994,
            "velocity": 0.2047244094488189,
            "duration": 0.33745785000002115
          },
          {
            "name": "D#2",
            "midi": 39,
            "time": 309.1488859166661,
            "velocity": 0.16535433070866143,
            "duration": 0.33745785000002115
          },
          {
            "name": "C#3",
            "midi": 49,
            "time": 309.1488859166661,
            "velocity": 0.16535433070866143,
            "duration": 0.33745785000002115
          },
          {
            "name": "D#3",
            "midi": 51,
            "time": 309.1488859166661,
            "velocity": 0.2125984251968504,
            "duration": 0.33745785000002115
          },
          {
            "name": "D#2",
            "midi": 39,
            "time": 309.52383908333275,
            "velocity": 0.1732283464566929,
            "duration": 0.33745785000002115
          },
          {
            "name": "C#3",
            "midi": 49,
            "time": 309.52383908333275,
            "velocity": 0.1732283464566929,
            "duration": 0.33745785000002115
          },
          {
            "name": "D#3",
            "midi": 51,
            "time": 309.52383908333275,
            "velocity": 0.2125984251968504,
            "duration": 0.33745785000002115
          },
          {
            "name": "D#2",
            "midi": 39,
            "time": 309.8987922499994,
            "velocity": 0.15748031496062992,
            "duration": 0.33745785000002115
          },
          {
            "name": "C#3",
            "midi": 49,
            "time": 309.8987922499994,
            "velocity": 0.15748031496062992,
            "duration": 0.33745785000002115
          },
          {
            "name": "D#3",
            "midi": 51,
            "time": 309.8987922499994,
            "velocity": 0.1968503937007874,
            "duration": 0.33745785000002115
          },
          {
            "name": "D#2",
            "midi": 39,
            "time": 310.2737454166661,
            "velocity": 0.15748031496062992,
            "duration": 0.33745785000002115
          },
          {
            "name": "C#3",
            "midi": 49,
            "time": 310.2737454166661,
            "velocity": 0.15748031496062992,
            "duration": 0.33745785000002115
          },
          {
            "name": "D#3",
            "midi": 51,
            "time": 310.2737454166661,
            "velocity": 0.1968503937007874,
            "duration": 0.33745785000002115
          },
          {
            "name": "D#2",
            "midi": 39,
            "time": 310.64869858333276,
            "velocity": 0.15748031496062992,
            "duration": 0.33745785000002115
          },
          {
            "name": "C#3",
            "midi": 49,
            "time": 310.64869858333276,
            "velocity": 0.15748031496062992,
            "duration": 0.33745785000002115
          },
          {
            "name": "D#3",
            "midi": 51,
            "time": 310.64869858333276,
            "velocity": 0.1968503937007874,
            "duration": 0.33745785000002115
          },
          {
            "name": "G#2",
            "midi": 44,
            "time": 311.02365174999943,
            "velocity": 0.15748031496062992,
            "duration": 1.1248595000000137
          },
          {
            "name": "C3",
            "midi": 48,
            "time": 311.02365174999943,
            "velocity": 0.15748031496062992,
            "duration": 1.1248595000000137
          },
          {
            "name": "D#3",
            "midi": 51,
            "time": 311.02365174999943,
            "velocity": 0.1968503937007874,
            "duration": 1.1248595000000137
          }
        ],
        "controlChanges": {
          "7": [
            {
              "number": 7,
              "time": 0,
              "value": 0.7874015748031497
            }
          ],
          "10": [
            {
              "number": 10,
              "time": 0,
              "value": 0.5039370078740157
            }
          ]
        },
        "id": 4,
        "name": "Accompaniment left",
        "instrumentNumber": 1,
        "instrument": "bright acoustic piano",
        "instrumentFamily": "piano",
        "channelNumber": 0,
        "isPercussion": false
      },
      {
        "startTime": 0,
        "duration": 0,
        "length": 0,
        "notes": [],
        "controlChanges": {
          "64": [
            {
              "number": 64,
              "time": 0,
              "value": 0
            },
            {
              "number": 64,
              "time": 0.29996253333333334,
              "value": 1
            },
            {
              "number": 64,
              "time": 2.2731535729166668,
              "value": 0
            },
            {
              "number": 64,
              "time": 2.5121862166666666,
              "value": 1
            },
            {
              "number": 64,
              "time": 4.5228725729166666,
              "value": 0
            },
            {
              "number": 64,
              "time": 4.761905216666666,
              "value": 1
            },
            {
              "number": 64,
              "time": 6.786652316666666,
              "value": 0
            },
            {
              "number": 64,
              "time": 7.180353141666666,
              "value": 1
            },
            {
              "number": 64,
              "time": 9.01293674375,
              "value": 0
            },
            {
              "number": 64,
              "time": 9.214474070833333,
              "value": 1
            },
            {
              "number": 64,
              "time": 10.170604645833333,
              "value": 0
            },
            {
              "number": 64,
              "time": 10.41901111875,
              "value": 1
            },
            {
              "number": 64,
              "time": 11.262655743749999,
              "value": 0
            },
            {
              "number": 64,
              "time": 11.487627643749999,
              "value": 1
            },
            {
              "number": 64,
              "time": 12.387515243749998,
              "value": 0
            },
            {
              "number": 64,
              "time": 12.668730118749998,
              "value": 1
            },
            {
              "number": 64,
              "time": 13.521748572916666,
              "value": 0
            },
            {
              "number": 64,
              "time": 13.863893337499999,
              "value": 1
            },
            {
              "number": 64,
              "time": 15.757406829166666,
              "value": 0
            },
            {
              "number": 64,
              "time": 16.14642073958333,
              "value": 1
            },
            {
              "number": 64,
              "time": 18.01181274375,
              "value": 0
            },
            {
              "number": 64,
              "time": 18.161794010416667,
              "value": 1
            },
            {
              "number": 64,
              "time": 20.270905572916668,
              "value": 0
            },
            {
              "number": 64,
              "time": 20.444321412500003,
              "value": 1
            },
            {
              "number": 64,
              "time": 22.511250743750004,
              "value": 0
            },
            {
              "number": 64,
              "time": 22.79715253333334,
              "value": 1
            },
            {
              "number": 64,
              "time": 24.784404316666674,
              "value": 0
            },
            {
              "number": 64,
              "time": 25.04687153333334,
              "value": 1
            },
            {
              "number": 64,
              "time": 27.02943640208334,
              "value": 0
            },
            {
              "number": 64,
              "time": 27.29659053333334,
              "value": 1
            },
            {
              "number": 64,
              "time": 29.27915540208334,
              "value": 0
            },
            {
              "number": 64,
              "time": 29.611926337500005,
              "value": 1
            },
            {
              "number": 64,
              "time": 31.524187487500004,
              "value": 0
            },
            {
              "number": 64,
              "time": 32.02568734791667,
              "value": 1
            },
            {
              "number": 64,
              "time": 33.783280316666676,
              "value": 0
            },
            {
              "number": 64,
              "time": 33.94263541250001,
              "value": 1
            },
            {
              "number": 64,
              "time": 36.018938572916674,
              "value": 0
            },
            {
              "number": 64,
              "time": 36.29546653333334,
              "value": 1
            },
            {
              "number": 64,
              "time": 38.27803140208334,
              "value": 0
            },
            {
              "number": 64,
              "time": 38.507690216666674,
              "value": 1
            },
            {
              "number": 64,
              "time": 40.51837657291667,
              "value": 0
            },
            {
              "number": 64,
              "time": 40.75740921666667,
              "value": 1
            },
            {
              "number": 64,
              "time": 42.78215631666667,
              "value": 0
            },
            {
              "number": 64,
              "time": 43.175857141666675,
              "value": 1
            },
            {
              "number": 64,
              "time": 45.01781457291668,
              "value": 0
            },
            {
              "number": 64,
              "time": 45.209978070833344,
              "value": 1
            },
            {
              "number": 64,
              "time": 46.137987158333345,
              "value": 0
            },
            {
              "number": 64,
              "time": 46.41451511875001,
              "value": 1
            },
            {
              "number": 64,
              "time": 47.276907402083346,
              "value": 0
            },
            {
              "number": 64,
              "time": 47.67060822708335,
              "value": 1
            },
            {
              "number": 64,
              "time": 48.38301924375001,
              "value": 0
            },
            {
              "number": 64,
              "time": 48.87983218958335,
              "value": 1
            },
            {
              "number": 64,
              "time": 49.51725257291668,
              "value": 0
            },
            {
              "number": 64,
              "time": 49.85939733750001,
              "value": 1
            },
            {
              "number": 64,
              "time": 51.76697157291668,
              "value": 0
            },
            {
              "number": 64,
              "time": 52.141924739583345,
              "value": 1
            },
            {
              "number": 64,
              "time": 54.02137748750001,
              "value": 0
            },
            {
              "number": 64,
              "time": 54.157298010416675,
              "value": 1
            },
            {
              "number": 64,
              "time": 56.27578340208334,
              "value": 0
            },
            {
              "number": 64,
              "time": 56.50544221666667,
              "value": 1
            },
            {
              "number": 64,
              "time": 58.51144165833334,
              "value": 0
            },
            {
              "number": 64,
              "time": 58.79265653333334,
              "value": 1
            },
            {
              "number": 64,
              "time": 60.77053448750001,
              "value": 0
            },
            {
              "number": 64,
              "time": 61.04237553333334,
              "value": 1
            },
            {
              "number": 64,
              "time": 63.010879658333344,
              "value": 0
            },
            {
              "number": 64,
              "time": 63.29209453333335,
              "value": 1
            },
            {
              "number": 64,
              "time": 65.26059865833335,
              "value": 0
            },
            {
              "number": 64,
              "time": 65.60743033750002,
              "value": 1
            },
            {
              "number": 64,
              "time": 67.51031765833335,
              "value": 0
            },
            {
              "number": 64,
              "time": 67.72122881458336,
              "value": 1
            },
            {
              "number": 64,
              "time": 69.76941048750002,
              "value": 0
            },
            {
              "number": 64,
              "time": 126.54669375000003,
              "value": 0
            },
            {
              "number": 64,
              "time": 126.84665628333336,
              "value": 1
            },
            {
              "number": 64,
              "time": 128.82922115208336,
              "value": 0
            },
            {
              "number": 64,
              "time": 129.0588799666667,
              "value": 1
            },
            {
              "number": 64,
              "time": 131.0555055791667,
              "value": 0
            },
            {
              "number": 64,
              "time": 131.3085989666667,
              "value": 1
            },
            {
              "number": 64,
              "time": 133.32865915208336,
              "value": 0
            },
            {
              "number": 64,
              "time": 133.7270468916667,
              "value": 1
            },
            {
              "number": 64,
              "time": 135.56431740833338,
              "value": 0
            },
            {
              "number": 64,
              "time": 135.76116782083338,
              "value": 1
            },
            {
              "number": 64,
              "time": 136.68448999375005,
              "value": 0
            },
            {
              "number": 64,
              "time": 136.96570486875004,
              "value": 1
            },
            {
              "number": 64,
              "time": 137.8187233229167,
              "value": 0
            },
            {
              "number": 64,
              "time": 138.06244288125004,
              "value": 1
            },
            {
              "number": 64,
              "time": 138.93420899375005,
              "value": 0
            },
            {
              "number": 64,
              "time": 139.20136312500006,
              "value": 1
            },
            {
              "number": 64,
              "time": 140.06375540833338,
              "value": 0
            },
            {
              "number": 64,
              "time": 140.38246560000005,
              "value": 1
            },
            {
              "number": 64,
              "time": 142.32753515208339,
              "value": 0
            },
            {
              "number": 64,
              "time": 142.6931144895834,
              "value": 1
            },
            {
              "number": 64,
              "time": 144.55850649375006,
              "value": 0
            },
            {
              "number": 64,
              "time": 144.70848776041672,
              "value": 1
            },
            {
              "number": 64,
              "time": 146.83166006666673,
              "value": 0
            },
            {
              "number": 64,
              "time": 146.99101516250005,
              "value": 1
            },
            {
              "number": 64,
              "time": 149.05794449375006,
              "value": 0
            },
            {
              "number": 64,
              "time": 149.3438462833334,
              "value": 1
            },
            {
              "number": 64,
              "time": 151.31703732291672,
              "value": 0
            },
            {
              "number": 64,
              "time": 151.5935652833334,
              "value": 1
            },
            {
              "number": 64,
              "time": 153.5620694083334,
              "value": 0
            },
            {
              "number": 64,
              "time": 153.8432842833334,
              "value": 1
            },
            {
              "number": 64,
              "time": 155.82116223750006,
              "value": 0
            },
            {
              "number": 64,
              "time": 156.15862008750005,
              "value": 1
            },
            {
              "number": 64,
              "time": 158.0615074083334,
              "value": 0
            },
            {
              "number": 64,
              "time": 158.4411474895834,
              "value": 1
            },
            {
              "number": 64,
              "time": 160.33466098125007,
              "value": 0
            },
            {
              "number": 64,
              "time": 160.72367489166675,
              "value": 1
            },
            {
              "number": 64,
              "time": 161.2204878375001,
              "value": 0
            },
            {
              "number": 64,
              "time": 225.5483904937501,
              "value": 0
            },
            {
              "number": 64,
              "time": 225.71711941875012,
              "value": 1
            },
            {
              "number": 64,
              "time": 227.8074833229168,
              "value": 0
            },
            {
              "number": 64,
              "time": 227.99964682083345,
              "value": 1
            },
            {
              "number": 64,
              "time": 230.05251540833345,
              "value": 0
            },
            {
              "number": 64,
              "time": 230.18374901666678,
              "value": 1
            },
            {
              "number": 64,
              "time": 232.31629515208346,
              "value": 0
            },
            {
              "number": 64,
              "time": 232.51314556458345,
              "value": 1
            },
            {
              "number": 64,
              "time": 234.54726649375013,
              "value": 0
            },
            {
              "number": 64,
              "time": 234.69256084583347,
              "value": 1
            },
            {
              "number": 64,
              "time": 235.67212599375014,
              "value": 0
            },
            {
              "number": 64,
              "time": 235.81742034583348,
              "value": 1
            },
            {
              "number": 64,
              "time": 236.82510698125014,
              "value": 0
            },
            {
              "number": 64,
              "time": 236.94227984583347,
              "value": 1
            },
            {
              "number": 64,
              "time": 237.94059265208347,
              "value": 0
            },
            {
              "number": 64,
              "time": 238.05307860208347,
              "value": 1
            },
            {
              "number": 64,
              "time": 239.05607832291682,
              "value": 0
            },
            {
              "number": 64,
              "time": 239.22949416250015,
              "value": 1
            },
            {
              "number": 64,
              "time": 241.31048423750013,
              "value": 0
            },
            {
              "number": 64,
              "time": 241.49796082083347,
              "value": 1
            },
            {
              "number": 64,
              "time": 243.55082940833347,
              "value": 0
            },
            {
              "number": 64,
              "time": 243.6961237604168,
              "value": 1
            },
            {
              "number": 64,
              "time": 245.81929606666682,
              "value": 0
            },
            {
              "number": 64,
              "time": 245.97865116250014,
              "value": 1
            },
            {
              "number": 64,
              "time": 248.05026740833347,
              "value": 0
            },
            {
              "number": 64,
              "time": 248.33148228333346,
              "value": 1
            },
            {
              "number": 64,
              "time": 250.32342098125014,
              "value": 0
            },
            {
              "number": 64,
              "time": 250.58120128333348,
              "value": 1
            },
            {
              "number": 64,
              "time": 252.5497054083335,
              "value": 0
            },
            {
              "number": 64,
              "time": 252.83092028333348,
              "value": 1
            },
            {
              "number": 64,
              "time": 254.81348515208347,
              "value": 0
            },
            {
              "number": 64,
              "time": 254.9447187604168,
              "value": 1
            },
            {
              "number": 64,
              "time": 257.0538303229168,
              "value": 0
            },
            {
              "number": 64,
              "time": 257.5600170979168,
              "value": 1
            },
            {
              "number": 64,
              "time": 259.31292315208344,
              "value": 0
            },
            {
              "number": 64,
              "time": 259.4769651625001,
              "value": 1
            },
            {
              "number": 64,
              "time": 261.5438944937501,
              "value": 0
            },
            {
              "number": 64,
              "time": 261.69387576041674,
              "value": 1
            },
            {
              "number": 64,
              "time": 263.79361349375006,
              "value": 0
            },
            {
              "number": 64,
              "time": 263.9951508208334,
              "value": 1
            },
            {
              "number": 64,
              "time": 266.08551472500005,
              "value": 0
            },
            {
              "number": 64,
              "time": 266.21206141875007,
              "value": 1
            },
            {
              "number": 64,
              "time": 268.3117991520834,
              "value": 0
            },
            {
              "number": 64,
              "time": 268.5273972229167,
              "value": 1
            },
            {
              "number": 64,
              "time": 270.6130742125,
              "value": 0
            },
            {
              "number": 64,
              "time": 270.6786910166667,
              "value": 1
            },
            {
              "number": 64,
              "time": 271.66762999375,
              "value": 0
            },
            {
              "number": 64,
              "time": 271.8129243458333,
              "value": 1
            },
            {
              "number": 64,
              "time": 272.80186332291663,
              "value": 0
            },
            {
              "number": 64,
              "time": 273.03152213749996,
              "value": 1
            },
            {
              "number": 64,
              "time": 273.91266207916664,
              "value": 0
            },
            {
              "number": 64,
              "time": 274.19856386874994,
              "value": 1
            },
            {
              "number": 64,
              "time": 275.04220849374997,
              "value": 0
            },
            {
              "number": 64,
              "time": 275.22499816249996,
              "value": 1
            },
            {
              "number": 64,
              "time": 277.32004898124995,
              "value": 0
            },
            {
              "number": 64,
              "time": 277.52627322291664,
              "value": 1
            },
            {
              "number": 64,
              "time": 279.54164649374997,
              "value": 0
            },
            {
              "number": 64,
              "time": 279.6916277604166,
              "value": 1
            },
            {
              "number": 64,
              "time": 281.80542623749994,
              "value": 0
            },
            {
              "number": 64,
              "time": 281.9741551624999,
              "value": 1
            },
            {
              "number": 64,
              "time": 284.0410844937499,
              "value": 0
            },
            {
              "number": 64,
              "time": 284.3082386249999,
              "value": 1
            },
            {
              "number": 64,
              "time": 286.3142380666666,
              "value": 0
            },
            {
              "number": 64,
              "time": 286.5579576249999,
              "value": 1
            },
            {
              "number": 64,
              "time": 288.5405224937499,
              "value": 0
            },
            {
              "number": 64,
              "time": 288.79830279583325,
              "value": 1
            },
            {
              "number": 64,
              "time": 290.79024149374993,
              "value": 0
            },
            {
              "number": 64,
              "time": 290.9589704187499,
              "value": 1
            },
            {
              "number": 64,
              "time": 293.0587081520832,
              "value": 0
            },
            {
              "number": 64,
              "time": 293.19931558958325,
              "value": 1
            },
            {
              "number": 64,
              "time": 295.50527756458325,
              "value": 0
            },
            {
              "number": 64,
              "time": 304.50415356458325,
              "value": 0
            },
            {
              "number": 64,
              "time": 327.23568929374994,
              "value": 1
            },
            {
              "number": 64,
              "time": 331.0227162770833,
              "value": 0
            }
          ]
        },
        "id": 5,
        "name": "Pedale"
      },
      {
        "startTime": 0,
        "duration": 0,
        "length": 0,
        "notes": [],
        "controlChanges": {},
        "id": 6,
        "name": "Beethoven Sonata No. 8 C minor, Grand Sonate pathtique 2. Movement"
      },
      {
        "startTime": 0,
        "duration": 0,
        "length": 0,
        "notes": [],
        "controlChanges": {},
        "id": 7,
        "name": "Copyright  2003 by Bernd Krueger"
      },
      {
        "startTime": 0,
        "duration": 0,
        "length": 0,
        "notes": [],
        "controlChanges": {},
        "id": 8,
        "name": "http://www.piano-midi.de"
      },
      {
        "startTime": 0,
        "duration": 0,
        "length": 0,
        "notes": [],
        "controlChanges": {},
        "id": 9,
        "name": "Edition: 2012-05-17"
      }
    ]
  }

}
